<svg xmlns="http://www.w3.org/2000/svg" width="80" height="56" fill="none"><path d="M44.566 41.2V26.1h-14.6v17.5h14.6v-2.4zm18.064-3.8V19.1h-14.6v24.5h14.6v-6.2zM26.5 41.2V30.9H11.9v12.7h14.6v-2.4z" fill="#F70000"/><path d="M80 50.4L68.983 45v4.9H6.055V11.1h4.864L5.36 0 0 11.1h4.864v40h64.218V56L80 50.4zM5.36 2.7l3.573 7.2H1.886L5.36 2.7zm71.96 47.7L70.174 54v-7.1l7.146 3.5zm-32.16-6.2H29.38V25.5h15.78v18.7zM30.57 43h13.4V26.7h-13.4V43zm32.656 1.2H47.444V18.5h15.782v25.7zM48.635 43h13.4V19.7h-13.4V43zm-21.538 1.2H11.315V30.3h15.782v13.9zM12.506 43h13.4V31.5h-13.4V43z" fill="#383838"/></svg>