<svg xmlns="http://www.w3.org/2000/svg" width="63" height="72" fill="none"><path d="M31.948 72c-3.802 0-7.004-2.6-7.004-5.9v-5.4h13.908v5.4c.1 3.3-3.102 5.9-6.904 5.9zm-5.803-10.1v4.2c0 2.6 2.602 4.7 5.804 4.7s5.803-2.1 5.803-4.7v-4.2H26.144z" fill="#383838"/><g fill="#F70000"><path d="M36.15 36.8h-8.905v-4.4c0-2.6 2-4.8 4.403-4.8s4.402 2.1 4.402 4.8v4.4h.1zm-7.705-1.2h6.504v-3.2c0-2-1.5-3.6-3.202-3.6s-3.202 1.6-3.202 3.6v3.2h-.1z"/><path d="M37.55 34.2H25.844v8.9H37.55v-8.9z"/></g><path d="M52.283 42.377l-.632 1.02 7.402 4.58.632-1.02-7.402-4.58zm-40.7.508L4.17 47.463l.632 1.02 7.402-4.578-.632-1.02zm51.2-17.25l-8.562 1.572.217 1.18L63 26.814l-.217-1.18zm-62.567-.01L0 26.805l8.562 1.57.216-1.18-8.562-1.57zm51.62-18.373l-5.6 6.405.905.8 5.6-6.405-.905-.8zm-40.216.056l-.904.8 5.598 6.4.904-.8-5.598-6.4zM32.348 0h-1.2v8.7h1.2V0zm6.002 58.6H25.044l-.1-.5c0-.1-1.7-9.2-5.003-16.8-1.9-4.4-3.102-8-3.102-11.9 0-7.6 6.704-13.7 14.9-13.7h.5c8.205 0 14.9 6.2 14.9 13.7 0 3.9-1.2 7.5-3.102 11.9-3.302 7.6-5.003 16.7-5.003 16.8l-.1.5h-.6zm-12.307-1.1H37.85c.4-2 2.1-9.9 5.003-16.6 1.9-4.3 3.002-7.7 3.002-11.5 0-7-6.104-12.6-13.708-12.6h-.5c-7.504 0-13.708 5.7-13.708 12.6 0 3.8 1.2 7.2 3.002 11.5 3.002 6.7 4.703 14.6 5.103 16.6zm17.21-26.4h-1.2c0-5.3-4.303-9.7-9.706-9.7v-1.2c6.104.1 10.906 4.9 10.906 10.9z" fill="#383838"/></svg>