<svg xmlns="http://www.w3.org/2000/svg" width="82" height="80" fill="none"><path d="M57.09 79.207L41.548 75.44V31.92L57.09 29.94v49.27z" fill="#F70000"/><path d="M64.165 79.802h-4.683v-52.64H24.2v52.64h-4.68v-57.2h44.537v57.2h.1zm-3.487-1.2h2.292v-54.82H20.824v54.82h2.292v-52.64h37.662v52.64h-.1zM57.7 80l-16.84-4.064v-44.5l16.838-2.18V80zm-15.543-5.056l14.447 3.47V30.632l-14.447 1.884v42.43zM76.82 58.4l-9.665-5.55.797-1.3 9.764 5.65-.897 1.2zm-70.643.594l-.797-1.2 9.665-5.65.797 1.3-9.665 5.55zM70.84 34.498l-.3-1.388 11.26-1.883.2 1.388-11.16 1.883zm-59.68 0L0 32.615l.3-1.388L11.46 33.1l-.3 1.388zm50.116-16.853l-1.196-1 7.273-7.732 1.196.892-7.273 7.832zm-40.153 0l-7.273-7.83 1.196-.892 7.174 7.732-1.096 1zM42.046 0h-1.594v10.607h1.594V0z" fill="#383838"/></svg>