<svg xmlns="http://www.w3.org/2000/svg" width="61" height="64" fill="none"><g fill="#383838"><path d="M9.935 64c-1.093 0-2.186-.202-3.18-.605C1.987 61.58-.497 56.14 1.292 51.3s7.153-7.358 11.922-5.543c.795.302 1.5.706 2.186 1.21L32.686 0l.596.202c3.18 1.21 4.868 4.838 3.676 8.063l-18.38 49.587C17.187 61.58 13.7 64 9.935 64zm0-17.638c-3.28 0-6.358 2.016-7.55 5.342-1.6 4.233.596 8.97 4.77 10.583s8.842-.605 10.432-4.838L35.766 7.86c.894-2.42-.2-5.14-2.384-6.25l-17.485 47.37-.695-.605c-.696-.706-1.6-1.21-2.484-1.512s-1.888-.504-2.782-.504zm0 13.102c-.596 0-1.093-.1-1.69-.302-1.192-.504-2.186-1.3-2.682-2.52s-.596-2.52-.1-3.83c.894-2.52 3.676-3.83 6.16-2.822a4.79 4.79 0 0 1 2.782 6.249 4.78 4.78 0 0 1-4.471 3.225zm0-8.567c-1.5 0-2.88.907-3.378 2.42-.695 1.915.298 4.032 2.086 4.737 1.888.706 3.974-.302 4.67-2.117.695-1.915-.298-4.03-2.086-4.737-.497-.202-.894-.302-1.29-.302z"/><path d="M61 29.732h-1.192V9.978c0-1.008-.695-1.814-1.5-1.814H36.66v-1.3h21.56c1.5 0 2.682 1.4 2.682 3.024v19.855h.1zm-42.024 9.676H3.378C1.5 39.408 0 38.097 0 36.485V9.877c0-1.613 1.5-2.923 3.378-2.923H30.5v1.1H3.378c-1.192 0-2.186.806-2.186 1.814v26.608c0 1.008.993 1.713 2.186 1.713h15.598v1.2zm39.242 0H25.036V38.2h33.282c.795 0 1.5-.806 1.5-1.713v-2.62H61v2.62c0 1.613-1.192 2.923-2.782 2.923zm-.298-24.794h-1.192V12.7c0-.907-.497-1.713-1.192-1.713H51.76v-1.2h3.775c1.3 0 2.384 1.3 2.384 2.923v1.915z"/></g><path d="M12.816 23.282c-1.69-.706-2.484-1.11-2.484-1.814 0-.605.397-1.11 1.788-1.11 1.5 0 2.384.504 2.88.706l.596-2.318c-.695-.302-1.6-.605-2.98-.706v-1.814H10.63v1.915c-2.186.403-3.477 1.814-3.477 3.628 0 2.016 1.5 3.024 3.676 3.73 1.5.504 2.186 1.008 2.186 1.814s-.795 1.3-1.987 1.3c-1.292 0-2.484-.403-3.378-.907l-.497 2.52c.795.403 2.086.806 3.477.907v1.915h1.987v-2.117c2.285-.403 3.577-2.016 3.577-3.83s-.993-2.923-3.378-3.83z" fill="#F70000"/><path d="M37.852 30.74v-8.87h-2.285v-1.008h5.86v1.008h-2.285v8.87H37.85zm9.238 0l-.596-2.217h-3.477l-.596 2.217h-1.3l2.98-9.877h1.4l2.88 9.877h-1.3zm-2.384-8.668l-1.5 5.342h2.98l-1.5-5.342zm9.836 8.668l-2.285-4.132-2.285 4.132h-1.4l2.88-5.04-2.782-4.838h1.4l2.086 3.93 2.086-3.93h1.4l-2.78 4.838 2.88 5.04H54.54zM35.368 64c-3.775 0-7.352-2.318-8.743-6.148l-4.57-12.498 1.093-.403 4.67 12.498c.795 2.016 2.285 3.73 4.173 4.636 1.987.907 4.173 1.008 6.16.202s3.676-2.318 4.57-4.233c.894-2.016.993-4.233.2-6.25-1.6-4.233-6.26-6.45-10.432-4.838-.894.302-1.788.806-2.484 1.512l-.596.605-3.875-9.978 1.093-.403 3.28 8.365c.695-.504 1.4-.907 2.186-1.2 2.285-.907 4.868-.806 7.054.302 2.285 1.008 3.974 2.923 4.868 5.24 1.788 4.838-.696 10.28-5.464 12.094-.993.302-2.086.504-3.18.504zm0-4.535c-.695 0-1.4-.1-1.987-.403-1.192-.504-2.086-1.512-2.484-2.72-.497-1.2-.397-2.52.1-3.73a4.47 4.47 0 0 1 2.682-2.52c2.484-.907 5.266.302 6.16 2.822.497 1.2.397 2.52-.1 3.73a4.47 4.47 0 0 1-2.682 2.52c-.497.202-1.093.302-1.7.302zm0-8.567c-.397 0-.795.1-1.292.202-.894.302-1.6 1.008-1.987 1.915s-.397 1.915-.1 2.822.993 1.613 1.888 2.016 1.888.403 2.782.1c1.888-.706 2.782-2.822 2.086-4.737-.497-1.4-1.888-2.318-3.378-2.318zM15.598 8.063H8.345l-.2-.403C7.352 4.535 9.04 1.3 12.02.202L12.617 0l2.98 8.063zM9.24 6.854h4.67l-1.987-5.342C10.034 2.62 8.94 4.737 9.24 6.854zm13.908 8.768h-1.192v5.14h1.192v-5.14zm0-8.162h-1.192v5.14h1.192V7.46zm0 16.326h-1.192v5.14h1.192v-5.14zM57.92 15.52h-1.192v2.72h1.192v-2.72z" fill="#383838"/></svg>