<svg xmlns="http://www.w3.org/2000/svg" width="191" height="74"><path fill="#ed1c24" d="M77.908 43.63c-3.434-1.223-4.683-1.96-4.683-3.426 0-.98.734-2.202 3.434-2.202s4.684.978 5.64 1.223l1.225-4.406c-1.225-.734-2.944-1.226-5.64-1.226v-3.427h-3.92v3.698c-4.166.735-6.62 3.425-6.62 6.853 0 3.698 2.944 5.633 7.112 7.1 2.943.98 4.166 1.96 4.166 3.425S77.15 53.7 74.944 53.7c-2.452 0-4.905-.734-6.374-1.71l-1.226 4.65c1.472.734 3.925 1.47 6.62 1.714v3.697H77.9v-3.92c4.412-.736 6.865-3.697 6.865-7.1-.247-3.698-2.206-5.876-6.865-7.345l.018-.045z"/><path fill="#383938" d="M76.435 74c-15.426.012-27.94-12.48-27.952-27.905 0-15.446 12.515-27.96 27.953-27.96s27.953 12.515 27.953 27.95C104.378 61.51 91.87 74 76.444 74h-.01zm0-53.383c-14.223 0-25.746 11.513-25.746 25.71 0 14.222 11.527 25.748 25.747 25.748s25.748-11.526 25.748-25.748c-.015-14.205-11.54-25.714-25.746-25.71h-.003z"/><path fill="#ed1c24" d="M152.937 33.598c-4.434-1.713-6.13-2.694-6.13-4.408 0-1.468.982-2.938 4.437-2.938 3.68 0 6.132 1.225 7.603 1.714l1.226-5.877c-1.715-.734-4.165-1.47-7.603-1.713v-4.4h-5.15v4.897c-5.64.98-8.825 4.652-8.825 9.305 0 5.143 3.68 7.592 9.316 9.55 3.92 1.226 5.395 2.448 5.395 4.408s-1.962 3.18-4.903 3.18a17.73 17.73 0 0 1-8.58-2.202l-1.473 6.12c1.964 1.226 5.395 1.962 8.824 2.203v4.9h5.152V52.94c5.886-.978 9.32-4.896 9.32-9.55s-2.455-7.592-8.58-9.796l-.03.004z"/><path fill="#383938" d="M150.978 74c-20.352 0-37.026-16.65-37.026-36.976C113.952 16.576 130.528 0 150.978 0S188 16.576 188 37.024C188 57.35 171.33 74 150.978 74zm0-71.257c-18.883 0-34.327 15.425-34.327 34.282s15.444 34.28 34.327 34.28 34.327-15.423 34.327-34.28S169.86 2.743 150.978 2.743z"/><path fill="#ed1c24" d="M22.252 54.166c-2.205-.733-2.943-1.225-2.943-2.202 0-.736.493-1.47 2.206-1.47s2.943.493 3.678.734l.734-2.938c-.734-.493-1.962-.736-3.678-.736V45.35h-2.452v2.448c-2.944.734-4.438 2.448-4.438 4.65 0 2.448 1.716 3.697 4.438 4.65 1.962.737 2.696 1.228 2.696 2.205s-.98 1.47-2.453 1.47c-1.715 0-3.187-.49-4.166-1.223l-.734 2.937c.98.734 2.696 1.226 4.437 1.226v2.448h2.453v-2.448c2.944-.494 4.438-2.448 4.438-4.653 0-2.446-1.226-3.92-4.167-4.896l-.05.002z"/><path fill="#383938" d="M21.267 74c-9.993.028-18.115-8.05-18.142-18.045v-.077c-.015-10 8.074-18.103 18.066-18.12h.08a18.1 18.1 0 0 1 18.146 18.042v.077A18.1 18.1 0 0 1 21.348 74h-.08zm0-34.527c-9.07 0-16.427 7.345-16.427 16.405s7.356 16.408 16.427 16.408 16.427-7.345 16.427-16.408-7.356-16.405-16.427-16.405z"/></svg>