<svg xmlns="http://www.w3.org/2000/svg" width="74" height="74" fill="none"><path d="M63.67 36.048a9.84 9.84 0 0 0 9.826-9.813h-19.55c0 5.407 4.312 9.813 9.726 9.813zm-53.242 0a9.84 9.84 0 0 0 9.826-9.813H.602a9.84 9.84 0 0 0 9.826 9.813z" fill="#F70000"/><g fill="#383838"><path d="M69.988 8.51H4.713v1.202h65.275V8.51z"/><path d="M40.9 58.48h-1.203V4.005c0-1.602-1.303-2.804-2.808-2.804a2.8 2.8 0 0 0-2.807 2.804v54.373h-1.203V4.005A4.02 4.02 0 0 1 36.899 0a4.02 4.02 0 0 1 4.011 4.005v54.474z"/><path d="M55.95 65.29h-1.203v-1.502c0-2.604-2.106-4.806-4.813-4.806h-26.27c-2.607 0-4.813 2.103-4.813 4.807v1.502h-1.203v-1.502c0-3.304 2.707-6.008 6.016-6.008h26.27c3.31 0 6.016 2.704 6.016 6.008v1.502z"/><path d="M63.87 74H9.826v-9.313H63.87V74zm-52.84-1.2h51.64v-6.9H11.03v6.9zm52.64-36.15c-5.715 0-10.428-4.606-10.428-10.414v-.6h20.756v.6c.1 5.808-4.612 10.414-10.328 10.414zm-9.124-9.713c.3 4.807 4.312 8.612 9.124 8.612s8.824-3.805 9.124-8.612h-18.25z"/><path d="M57.554 26.536l-1.103-.5 7.22-17.223 7.22 17.223-1.103.5-6.116-14.62-6.116 14.62zM10.428 36.65C4.612 36.65 0 32.044 0 26.336v-.6h20.756v.6c0 5.708-4.612 10.314-10.328 10.314zm-9.225-9.713c.3 4.807 4.312 8.612 9.124 8.612s8.824-3.805 9.125-8.612H1.203z"/><path d="M4.312 26.536l-1.203-.5 7.32-17.223 7.22 17.223-1.103.5-6.116-14.62-6.116 14.62z"/></g></svg>