<svg xmlns="http://www.w3.org/2000/svg" width="60" height="60"><g fill="#404041"><path d="M33.306 29.4c-4.66 0-9.148-1.033-12.984-2.987l-.428-.218.3-.366a17.17 17.17 0 0 1 13.101-6.063 17.14 17.14 0 0 1 13.1 6.063l.312.366-.428.218c-3.837 1.954-8.326 2.987-12.984 2.987zm-12.202-3.446c3.632 1.76 7.84 2.687 12.202 2.687s8.57-.928 12.2-2.687c-3.12-3.457-7.538-5.43-12.2-5.43a16.42 16.42 0 0 0-12.202 5.43zM33.306 54.14c-5.106 0-9.916-2.25-13.195-6.174l-.304-.364.42-.217c3.858-1.987 8.38-3.037 13.078-3.037s9.22 1.05 13.077 3.037l.422.217-.304.364a17.16 17.16 0 0 1-13.195 6.174zm-12.3-6.297a16.4 16.4 0 0 0 24.6 0c-3.655-1.8-7.896-2.736-12.3-2.736s-8.644.945-12.3 2.736z"/><path d="M33.306 54.14c-2.275 0-4.4-1.826-5.955-5.142-1.522-3.226-2.36-7.505-2.36-12.05s.838-8.825 2.36-12.05c1.565-3.315 3.68-5.142 5.955-5.142s4.4 1.826 5.954 5.142c1.522 3.225 2.36 7.504 2.36 12.05s-.838 8.825-2.36 12.05c-1.565 3.316-3.68 5.142-5.954 5.142zm0-33.626c-4.167 0-7.557 7.372-7.557 16.434s3.4 16.434 7.557 16.434 7.557-7.372 7.557-16.434-3.4-16.434-7.557-16.434z"/><path d="M33.306 54.392c-9.62 0-17.445-7.826-17.445-17.445a17.47 17.47 0 0 1 17.445-17.445 17.47 17.47 0 0 1 17.445 17.445 17.47 17.47 0 0 1-17.445 17.445zm0-33.626c-8.923 0-16.18 7.26-16.18 16.18s7.258 16.18 16.18 16.18 16.18-7.26 16.18-16.18-7.26-16.18-16.18-16.18z"/></g><g fill="#EC1C24"><path d="M33.306 59.5a22.63 22.63 0 0 1-16.552-7.233l1.3-1.202c3.923 4.236 9.482 6.666 15.253 6.666 11.46 0 20.783-9.324 20.783-20.784 0-9.83-6.98-18.394-16.594-20.36l.354-1.734c10.436 2.135 18 11.427 18 22.095C55.86 49.383 45.74 59.5 33.306 59.5z"/><path d="M20 50.58l-4.932-1.928.796 5.235z"/></g><path d="M32.926 44.83h.76v8.93h-.76zm0-24.696h.76v8.875h-.76zm8.63 16.433h8.563v.76h-8.563zm-25.063 0h8.615v.76h-8.615zm13.1-20.753h-23.3a.63.63 0 0 1-.632-.632v-2.86a.63.63 0 0 1 .632-.632h23.3a.63.63 0 0 1 .632.632v2.86a.63.63 0 0 1-.632.632zM6.925 14.55H28.96v-1.596H6.925v1.596zm6.297 19.697h-6.93a.63.63 0 0 1-.632-.632V30.14a.63.63 0 0 1 .632-.632h8.034a.63.63 0 0 1 .582.879 19.32 19.32 0 0 0-1.07 3.365.63.63 0 0 1-.617.495zm-6.297-1.264h5.795a19.84 19.84 0 0 1 .676-2.2h-6.47v2.2z" fill="#404041"/><path d="M9.052 17.178h4.497V28H9.052z" fill="#D0D2D3"/><path d="M13.55 28.39H9.052a.38.38 0 0 1-.379-.379V17.178a.38.38 0 0 1 .379-.379h4.497a.38.38 0 0 1 .379.379V28c.001.21-.17.38-.38.38zm-4.117-.76h3.738V17.557H9.432V27.63z" fill="#404041"/><path d="M20.19 21.812v-4.634h-4.497v10.215a20.12 20.12 0 0 1 4.497-5.581z" fill="#D0D2D3"/><path d="M15.694 27.772a.37.37 0 0 1-.093-.012.38.38 0 0 1-.286-.368V17.178a.38.38 0 0 1 .379-.379h4.497a.38.38 0 0 1 .379.379v4.634c0 .1-.048.214-.13.287a19.68 19.68 0 0 0-4.412 5.476.38.38 0 0 1-.333.197zm.38-10.215v8.445c1.03-1.616 2.282-3.08 3.738-4.363v-4.082h-3.738z" fill="#404041"/><path d="M26.833 17.178h-4.497v3c1.388-.9 2.896-1.652 4.497-2.198v-.812z" fill="#D0D2D3"/><path d="M22.336 20.567a.38.38 0 0 1-.38-.379v-3a.38.38 0 0 1 .379-.379h4.497a.38.38 0 0 1 .379.379v.812a.38.38 0 0 1-.257.359 19.28 19.28 0 0 0-4.4 2.156.38.38 0 0 1-.208.062zm.38-3V19.5c1.182-.72 2.436-1.315 3.738-1.78v-.163h-3.738zm6.876-6.504h-23.3a.63.63 0 0 1-.327-1.172l11.65-7.05a.63.63 0 0 1 .655 0L29.92 9.9a.63.63 0 0 1-.327 1.172zM8.558 9.8h18.77l-9.384-5.68L8.558 9.8zm22.554-.065c-.1 0-.225-.03-.328-.1L17.943 1.87 5.1 9.644a.63.63 0 0 1-.654-1.081l13.17-7.97a.63.63 0 0 1 .655 0l13.17 7.97a.63.63 0 0 1-.328 1.172z" fill="#404041"/><g fill="#EC1C24"><path d="M33.306 39.8l-.52-.446-.614.304-.392-.563-.67.14-.24-.64-.683-.03-.073-.68-.655-.2.1-.677-.585-.356.264-.63-.48-.5.413-.547-.34-.593.536-.427-.184-.66.625-.28-.013-.686.675-.114.157-.667.682.057.32-.606.646.225.46-.508.57.378.57-.378.458.508.646-.225.32.606.682-.057.157.667.676.114-.014.686.625.28-.184.66.536.427-.342.593.413.547-.48.5.265.63-.58.356.1.677-.654.2-.073.68-.684.03-.24.64-.67-.14-.392.563-.614-.304-.52.446zm-.444-1.05l.443.382.443-.382.523.26.334-.48.57.12.205-.548.584-.024.062-.58.56-.17-.084-.578.5-.303-.226-.54.4-.42-.354-.466.292-.506-.457-.364.156-.563-.534-.238.012-.585-.576-.098-.134-.57-.583.05-.27-.52-.552.2-.392-.434-.487.323-.487-.323-.392.434-.552-.2-.272.52-.582-.05-.134.57-.576.098.01.585-.534.238.157.563-.458.364.292.506-.353.467.408.418-.226.54.5.303-.084.578.56.17.063.58.584.024.205.548.57-.12.334.48.525-.26zm-.794 1.312l-.426-.614-.733.155-.262-.7-.337-.016-.987 3.352 1.16-.54L32 42.844l.903-3-.154-.133z"/><path d="M35.702 39.593l-.732-.155-.427.614-.67-.332-.154.133.902 3 1.508-1.155 1.16.54-.986-3.352-.338.016zm-2.396-1.05c-1.813 0-3.3-1.476-3.3-3.3s1.475-3.288 3.3-3.288a3.29 3.29 0 0 1 3.288 3.288c0 1.812-1.475 3.3-3.288 3.3zm0-6.07c-1.534 0-2.783 1.248-2.783 2.782a2.79 2.79 0 0 0 2.783 2.783 2.79 2.79 0 0 0 2.783-2.783 2.79 2.79 0 0 0-2.783-2.782zm-.244 4.237v-2.24H32.5v-.306c.158-.013.3-.052.454-.12a.73.73 0 0 0 .314-.245h.466v2.912h-.67z"/></g></svg>