<svg xmlns="http://www.w3.org/2000/svg" width="66" height="60" viewBox="0 0 65.333 60"><style><![CDATA[.B{fill:#404041}.C{fill:#D0D2D3}.D{fill:#EC1C24}]]></style><path d="M40.565 50.62H1.7c-.444 0-.804-.36-.804-.805v-4.292c0-.444.36-.804.804-.804h39.146v1.608H2.505v2.684h38.06v1.61z" class="B"/><path d="M48.118 37.252V22.86h-4.29v17.726a12.33 12.33 0 0 1 4.289-3.335" class="C"/><path d="M44.172 40.587h-.7v-18.07h4.98v14.736h-.69V23.206h-3.602z" class="B"/><path d="M36.275 22.86h4.29v20.26h-4.29z" class="C"/><path d="M40.9 43.465h-4.98v-20.95h4.98v20.95zm-4.29-.7h3.602v-19.57H36.62v19.57z" class="B"/><path d="M12.45 22.86h4.293v20.26H12.45z" class="C"/><path d="M17.09 43.465h-4.983v-20.95h4.983v20.95zm-4.294-.7H16.4v-19.57h-3.604v19.57z" class="B"/><path d="M4.897 22.86H9.19v20.26H4.897z" class="C"/><path d="M9.534 43.465h-4.98v-20.95h4.98v20.95zm-4.292-.7h3.603v-19.57H5.242v19.57z" class="B"/><path d="M20.577 7.024c0 3.287 2.665 5.95 5.95 5.95a5.95 5.95 0 1 0 0-11.901c-3.286.001-5.95 2.664-5.95 5.95" class="C"/><path d="M26.528 13.55c-3.598 0-6.525-2.927-6.525-6.525S22.93.5 26.528.5s6.525 2.927 6.525 6.524-2.928 6.525-6.525 6.525zm0-11.9c-2.964 0-5.376 2.412-5.376 5.375s2.412 5.376 5.376 5.376 5.376-2.412 5.376-5.376-2.412-5.375-5.376-5.375z" class="B"/><path d="M28.387 7.504c-.08-.2-.195-.376-.343-.522s-.335-.268-.562-.366c-.1-.043-.27-.094-.532-.162V5.03a.55.55 0 0 1 .15.119c.094.104.16.265.192.48l.03.2 1.078-.16-.028-.2c-.065-.46-.265-.828-.6-1.095-.216-.178-.495-.297-.833-.353v-.578h-.794v.58c-.387.06-.694.188-.913.377-.375.324-.566.75-.566 1.272 0 .293.067.56.196.793s.32.424.562.557a3.08 3.08 0 0 0 .722.295v1.633c-.108-.05-.208-.133-.3-.247-.104-.135-.18-.36-.227-.67l-.03-.208-1.046.193.013.18c.027.368.126.687.292.947a1.6 1.6 0 0 0 .611.576c.186.096.418.166.688.212v.675h.794v-.67c.426-.057.783-.232 1.064-.526.326-.337.49-.763.49-1.263a1.79 1.79 0 0 0-.119-.643m-2.232-1.266c-.123-.057-.215-.124-.276-.196a.63.63 0 0 1-.14-.424.63.63 0 0 1 .168-.442c.067-.075.15-.132.248-.173v1.235zm1.07 2.51a.79.79 0 0 1-.276.203v-1.42c.2.087.3.165.345.22.088.105.13.25.13.437a.8.8 0 0 1-.2.559" class="D"/><path d="M51.316 21.673H1.7c-.353 0-.665-.23-.77-.568s.024-.703.316-.9l16.95-11.528c.22-.148.497-.18.744-.084a.8.8 0 0 1 .491.565 7.26 7.26 0 0 0 7.095 5.614c3.39 0 6.304-2.3 7.1-5.595a.8.8 0 0 1 .492-.563.81.81 0 0 1 .743.085l16.915 11.506a.8.8 0 0 1 .316.901.8.8 0 0 1-.767.568zM4.313 20.065h44.39L34.848 10.64a8.86 8.86 0 0 1-8.32 5.739c-3.763 0-7.042-2.317-8.33-5.76L4.313 20.065z" class="B"/><path d="M26.458 24.007l7.536 3.388s1.73 11.13-7.466 14.312c-9.196-3.18-7.468-14.312-7.468-14.312l7.398-3.388z" class="C"/><path d="M26.528 42.072l-.113-.04c-9.36-3.237-7.713-14.577-7.696-14.69l.03-.183 7.708-3.53 7.85 3.53.03.185c.018.114 1.664 11.454-7.694 14.69l-.112.04zm-7.15-14.443c-.163 1.426-.912 10.836 7.15 13.713 8.058-2.876 7.312-12.28 7.15-13.71l-7.217-3.245-7.082 3.243z" class="B"/><path d="M25.457 36.266l-3.617-3.088a1.15 1.15 0 0 1-.128-1.62 1.15 1.15 0 0 1 1.62-.128l2.053 1.753 3.675-3.445a1.15 1.15 0 0 1 1.624.052 1.15 1.15 0 0 1-.052 1.624l-5.175 4.852z" class="D"/><path d="M53.31 58.695a10.34 10.34 0 0 1-10.322-10.324c0-5.692 4.63-10.324 10.322-10.324a10.34 10.34 0 0 1 10.324 10.324 10.34 10.34 0 0 1-10.324 10.324" class="C"/><path d="M53.31 59.5c-6.136 0-11.126-4.992-11.126-11.13s4.99-11.128 11.126-11.128 11.13 4.99 11.13 11.128S59.446 59.5 53.31 59.5zm0-20.648c-5.248 0-9.518 4.27-9.518 9.52s4.27 9.52 9.518 9.52 9.52-4.27 9.52-9.52-4.27-9.52-9.52-9.52z" class="B"/><g class="D"><path d="M53.3 54.688c-.317 0-.575-.257-.575-.574l.001-11.485c0-.317.257-.574.574-.574s.574.257.574.574v11.485c0 .318-.257.574-.574.574z"/><path d="M47.567 48.946c-.317 0-.574-.257-.574-.574s.257-.574.574-.574l11.486-.001c.317 0 .574.257.574.574s-.257.575-.574.575H47.567z"/></g></svg>