<svg xmlns="http://www.w3.org/2000/svg" width="80" height="80"><path d="M27.793 8.808s-1.78 11.725-6.827 17.216c-1.335-.148-4.6-.89-4.6-.89s-.89-1.483-2.227-1.483-4.082 3.784-3.636 15.5 1.707 15.435 3.563 15.658 2.226-1.707 2.226-1.707l4.527-.816s5.49 5.12 6.9 17.364l-4.378 2.598-10.166-1.633c-.817-.148-10.91-9.968-10.71-29.064S10.28 8.414 12.457 7.918s10.884-1.88 10.884-1.88l4.452 2.77z" fill="#D0D2D3"/><path d="M23.556 73.356l-10.57-1.698c-1.024-.186-3.984-3.308-6.477-7.966-2.385-4.458-5.206-11.92-5.1-22.146.1-10.6 2.4-18.98 4.32-24.15 1.813-4.908 4.523-10.06 6.494-10.508 2.185-.496 10.595-1.836 10.952-1.893l.388-.062 5.375 3.344-.104.686c-.074.492-1.89 12.108-7.093 17.77l-.36.396-.53-.06c-1.378-.153-4.582-.88-4.718-.9l-.438-.1-.23-.386c-.15-.242-.707-.94-1.284-.97-.66.268-3.037 3.52-2.623 14.415.21 5.575.61 9.477 1.222 11.928.483 1.94 1.047 2.68 1.414 2.725.057.007.112.01.165.01.678 0 .872-.735.904-.883l.15-.688.696-.14 5.046-.9.386.36c.235.22 5.79 5.528 7.23 18.015l.08.695-.6.343c-1.16.653-4.318 2.563-4.35 2.58l-.33.2zm-10.05-3.744l9.62 1.543 3.462-2.062c-1.235-9.438-4.985-14.343-6.146-15.662l-3.354.605c-.39.863-1.235 1.852-2.733 1.852a3.48 3.48 0 0 1-.416-.026c-2.392-.287-3.977-3.175-4.49-16.663-.418-11.012 1.912-14.67 2.933-15.73.695-.722 1.338-.873 1.756-.873 1.41 0 2.396 1.008 2.854 1.598.76.168 2.452.533 3.557.71 3.844-4.572 5.635-13.116 6.085-15.576L23.118 7.14 12.723 8.937c-.71.354-2.996 3.585-5.163 9.588-1.788 4.95-3.94 12.968-4.044 23.045-.18 17.428 8.475 27.013 10 28.042z" fill="#404041"/><path d="M42.3 36.197H29.2V33.68l6.207-6.655c.896-1.027 1.533-1.895 1.9-2.603s.566-1.363.566-1.97c0-.8-.217-1.47-.652-1.983s-1.052-.77-1.852-.77c-.887 0-1.562.3-2.023.902s-.7 1.403-.7 2.405h-3.743l-.026-.08c-.044-1.73.525-3.196 1.707-4.395s2.774-1.8 4.777-1.8c1.977 0 3.53.515 4.66 1.542s1.693 2.398 1.693 4.112a5.76 5.76 0 0 1-.956 3.208c-.637.98-1.7 2.265-3.156 3.854L34.2 33.164l.026.065H42.3v2.968zm13.666-7.13h2.175v2.965h-2.175v4.164h-3.834v-4.164h-7.828l-.17-2.306L52.092 17h3.874v12.058zm-8.25 0h4.415V22.15l-.08-.026-.304.54-4.032 6.403zM50 48.1c-2.057 2.407-3.46 4.65-4.2 6.733s-1.3 4.595-1.614 7.538L44 64.32h-3.848l.184-1.95c.298-2.82.94-5.4 1.924-7.77a23.83 23.83 0 0 1 4.045-6.503H36.43v-2.966H50V48.1zm-24.263-8.074h35.3v1.505h-35.3z" fill="#EC1C24"/><g fill="#404041"><path d="M44.6 77.516l-.25-2.09c18.32-2.2 32.138-17.796 32.138-36.278 0-20.148-16.392-36.54-36.54-36.54V.5c21.3 0 38.647 17.337 38.647 38.646 0 19.548-14.614 36.043-33.993 38.37z"/><path d="M45.168 73.213l-5.222 3.527 5.665 2.76z"/><circle cx="69.642" cy="39.146" r="2.015"/><circle cx="42.315" cy="8.818" r="2.015"/><circle cx="42.315" cy="69.474" r="2.015"/></g></svg>