<svg xmlns="http://www.w3.org/2000/svg" width="60" height="60"><style><![CDATA[.F{fill:#404041}.G{fill:#D0D2D3}.H{fill:#EC1C24}]]></style><path d="M20.914 35.925H59.1V3.852c0-1.398-1.134-2.532-2.532-2.532h-41.96c-1.4 0-2.532 1.134-2.532 2.532v18.32" fill="#fff"/><path d="M59.9 36.745H20.914v-1.64H58.27V3.852c0-.944-.768-1.712-1.712-1.712h-41.96c-.944 0-1.712.77-1.712 1.712v18.32h-1.64V3.852C11.245 2.004 12.75.5 14.598.5h41.96c1.85 0 3.353 1.504 3.353 3.352v32.893z" class="F"/><path d="M47.5 46.174c0 .8-.648 1.447-1.447 1.447h-20.95c-.8 0-1.447-.647-1.447-1.447s.647-1.447 1.447-1.447h20.95a1.45 1.45 0 0 1 1.447 1.447" class="G"/><path d="M46.052 48.207h-20.95c-1.12 0-2.033-.912-2.033-2.033s.912-2.032 2.033-2.032h20.95c1.12 0 2.033.912 2.033 2.032s-.912 2.033-2.033 2.033zm-20.95-2.894a.86.86 0 1 0 0 1.722h20.95a.86.86 0 1 0 0-1.722h-20.95zM47.634 33.98h-5.306c-.323 0-.585-.263-.585-.586s.262-.586.585-.586h5.306c.323 0 .586.263.586.586s-.263.586-.586.586zm6.4 0h-3.497c-.324 0-.586-.263-.586-.586s.262-.586.586-.586h3.497c.675 0 1.223-.548 1.223-1.223v-1.568c0-.323.263-.585.586-.585s.586.262.586.585v1.568a2.4 2.4 0 0 1-2.395 2.395zm1.8-21.344c-.323 0-.586-.262-.586-.586V9.037c0-.324.263-.586.586-.586s.586.262.586.586v3.013c0 .324-.263.586-.586.586zm.01-4.702c-.323 0-.586-.262-.586-.586v-.964c0-.674-.548-1.223-1.223-1.223h-2.17c-.324 0-.586-.262-.586-.586S51.53 4 51.854 4h2.17a2.4 2.4 0 0 1 2.395 2.394v.964c0 .324-.263.586-.586.586z" class="F"/><path d="M44.53 43.28c0 .8-.648 1.446-1.447 1.446H28.07c-.8 0-1.446-.647-1.446-1.446s.647-1.447 1.446-1.447h15.012a1.45 1.45 0 0 1 1.447 1.447" class="G"/><path d="M43.083 45.313H28.07c-1.12 0-2.032-.91-2.032-2.032s.912-2.033 2.032-2.033h15.012c1.12 0 2.033.912 2.033 2.033s-.912 2.032-2.033 2.032zM28.07 42.42a.86.86 0 0 0-.86.861c0 .474.386.86.86.86h15.012a.86.86 0 0 0 .861-.861c0-.474-.386-.86-.86-.86H28.07z" class="F"/><path d="M20.092,41.833h36.466c1.398,0,2.532-1.133,2.532-2.532v-3.376H20.092" class="G"/><path d="M56.558 42.653H20.092v-1.64h36.466c.944 0 1.712-.77 1.712-1.713v-2.556H20.092v-1.64H59.9V39.3a3.36 3.36 0 0 1-3.352 3.354z" class="F"/><path d="M38.912 12.26c0 1.842-1.493 3.335-3.335 3.335s-3.334-1.493-3.334-3.335 1.493-3.335 3.334-3.335 3.335 1.494 3.335 3.335" class="G"/><g class="F"><path d="M35.577 15.83c-1.968 0-3.568-1.6-3.568-3.57s1.6-3.57 3.568-3.57 3.57 1.602 3.57 3.57-1.6 3.57-3.57 3.57zm0-6.67c-1.71 0-3.1 1.39-3.1 3.1s1.392 3.1 3.1 3.1 3.1-1.39 3.1-3.1-1.39-3.1-3.1-3.1z"/><path d="M30.83 12.64c.053.222.31.39.62.39h.013c.108 0 .21-.022.298-.06v-2.653c.062-.496.23-1.015.612-1.455.626-.72 1.707-1.09 3.204-1.09s2.578.37 3.205 1.09c.382.44.55.96.612 1.458v2.65a.75.75 0 0 0 .163.045c-.186.554-.803 1.475-2.856 1.604-.055-.06-.144-.104-.25-.104h-1.104c-.17 0-.305.103-.305.23v.005c0 .126.136.23.305.23h1.104c.13 0 .24-.062.283-.148 2.242-.146 2.905-1.206 3.102-1.8.25-.04.443-.2.487-.38.494-.096.868-.543.868-1.083a1.09 1.09 0 0 0-.902-1.087c-.07-.132-.22-.233-.402-.275-.074-.538-.27-1.104-.692-1.596-.725-.84-1.944-1.27-3.617-1.27s-2.893.432-3.616 1.27c-.424.492-.62 1.058-.692 1.596-.184.042-.332.143-.403.275-.5.082-.9.535-.9 1.087a1.09 1.09 0 0 0 .865 1.081"/></g><path d="M37.495 16.027c-.575.298-1.226.468-1.918.468s-1.342-.17-1.917-.468c-2.982.836-5.17 3.576-5.17 6.826h14.175a7.09 7.09 0 0 0-5.17-6.826" class="G"/><path d="M42.9 23.087H28.256v-.234c0-3.27 2.196-6.17 5.34-7.05l.1-.025.08.042a3.9 3.9 0 0 0 1.81.442 3.89 3.89 0 0 0 1.811-.442l.082-.042.09.025c3.145.88 5.34 3.78 5.34 7.05v.234zm-14.17-.468h13.698a6.88 6.88 0 0 0-4.908-6.341 4.35 4.35 0 0 1-1.941.452c-.67 0-1.338-.156-1.94-.452-2.824.83-4.81 3.406-4.91 6.34z" class="F"/><path d="M35.663 17.824l.786-1.42c-.28.06-.572.09-.87.09s-.59-.032-.872-.092l.77 1.42-.793 5.03h1.786l-.807-5.03z" class="H"/><path d="M16.208 46.93c-.165-.478.088-1 .566-1.164.325-.112.67-.03.9.184V25.688c0-.74-.6-1.342-1.343-1.342H2.02c-.74 0-1.343.6-1.343 1.342V50.73c0 .74.602 1.343 1.343 1.343h8.318l-.352-.3c-.358-.297-.546-.837-.216-1.262s1.046-.416 1.748.184l-2.283-6.608c-.22-.64-.15-1.34.487-1.56s1.064.273 1.296.944l1.104 3.195c-.16-.464.088-.97.55-1.13a.89.89 0 0 1 1.135.552l.265.758c-.178-.514.095-1.074.61-1.252s1.074.095 1.252.608l.275.73z" class="G"/><path d="M15.268 45.354V27.876H3.093v20.666h7.764" fill="#fff"/><path d="M10.857 49.128h-8.35V27.29h13.346v18.063h-1.17V28.462H3.68v19.494h7.178z" class="F"/><path d="M9.722 42.525c.638-.22 1.064.273 1.296.944l.085.245h1.57c.642 0 1.163-.52 1.163-1.163s-.52-1.164-1.163-1.164H5.69c-.644 0-1.164.52-1.164 1.164s.52 1.163 1.164 1.163H9.14c-.078-.518.065-1 .58-1.19" class="H"/><path d="M10.312 52.658H2.02A1.93 1.93 0 0 1 .09 50.73v-25.04a1.93 1.93 0 0 1 1.929-1.929h14.323a1.93 1.93 0 0 1 1.928 1.929v20.2H17.1v-20.2a.76.76 0 0 0-.757-.757H2.02a.76.76 0 0 0-.757.757v25.04a.76.76 0 0 0 .757.757h8.293v1.17z" class="F"/><path d="M6.9 26.24h4.558" class="G"/><path d="M11.46 26.824H6.9c-.323 0-.585-.262-.585-.585s.262-.586.585-.586h4.558c.323 0 .585.262.585.586s-.262.585-.585.585z" class="F"/><path d="M6.9 50.16h1.55" class="G"/><path d="M8.45 50.745H6.9c-.323 0-.585-.263-.585-.586s.262-.586.585-.586h1.55c.323 0 .586.263.586.586s-.263.586-.586.586z" class="F"/><path d="M15.098 59.31l-1.018-2.944c-.074-.217.04-.453.258-.527l5.758-1.99c.217-.076.453.04.528.257l1.017 2.944c.075.216-.04.453-.258.528" class="G"/><g class="F"><path d="M14.544 59.5l-1.018-2.944c-.087-.254-.07-.525.047-.765s.32-.422.574-.51l5.757-1.988c.252-.087.523-.072.764.045s.422.32.5.574l1.017 2.944c.088.253.07.524-.046.765a.99.99 0 0 1-.575.509l-.38-1.108c-.043.015-.078.046-.1.087s-.022.087-.008.13l-.96-2.783-5.437 1.88.96 2.782-1.106.382z"/><path d="M14.115 55.82l-.143-.414c-.482-.064-1.044-.382-1.79-.992l-1.938-1.646-.634-.544c-.564-.47-.863-1.354-.306-2.073.227-.292.563-.475.948-.514.09-.01.183-.01.276-.005l-1.85-5.356c-.37-1.074-.03-2 .85-2.305.688-.236 1.585-.017 2.042 1.307l1.515 4.385-1.107.382-1.515-4.385c-.158-.457-.344-.652-.552-.58-.345.12-.164.7-.124.815l2.986 8.646-1.638-1.4c-.402-.344-.686-.346-.763-.337-.098.01-.13.05-.142.066-.134.173.052.39.127.453l.654.562 1.912 1.625c.976.8 1.237.742 1.265.733l.554-.2.48 1.387-1.105.38z"/><path d="M13.878 48.085l-.624-1.808c-.056-.16-.23-.244-.4-.19s-.243.23-.188.39l-1.106.383a1.48 1.48 0 0 1 .912-1.879c.77-.265 1.614.146 1.88.914l.624 1.808-1.108.382z"/><path d="M15.94 48.013l-.56-1.62a.4.4 0 0 0-.508-.246c-.102.034-.183.106-.23.202s-.054.204-.02.305l-1.107.383c-.137-.396-.11-.822.072-1.2a1.56 1.56 0 0 1 .9-.797c.817-.282 1.713.153 1.996.97l.56 1.62-1.105.382z"/><path d="M19.12 54.298c-.001-.002-.222-.336-.613-.788l-.565-.653.817-.283c.08-.027.265-.092.322-.47.046-.298-.006-.69-.14-1.08l-1.555-4.502a.33.33 0 0 0-.421-.203c-.083.028-.15.088-.188.167a.33.33 0 0 0-.015.252l-1.107.383c-.13-.38-.106-.786.07-1.147a1.49 1.49 0 0 1 .859-.762 1.5 1.5 0 0 1 1.909.929l1.555 4.5c.197.57.266 1.152.19 1.64-.06.39-.21.718-.435.968l.297.4-.98.638z"/></g><path d="M10.906,33.937c0,0.953-0.773,1.727-1.727,1.727s-1.726-0.773-1.726-1.727S8.227,32.21,9.18,32.21 S10.906,32.983,10.906,33.937" class="G"/><path d="M9.18 35.897c-1.08 0-1.96-.88-1.96-1.96s.88-1.96 1.96-1.96 1.96.88 1.96 1.96-.88 1.96-1.96 1.96zm0-3.453c-.822 0-1.49.67-1.49 1.492s.67 1.492 1.49 1.492 1.492-.67 1.492-1.492-.67-1.492-1.492-1.492z" class="F"/><path d="M10.173 35.887c-.298.154-.635.242-.992.242s-.695-.088-.993-.242a3.67 3.67 0 0 0-2.676 3.533h7.337a3.67 3.67 0 0 0-2.676-3.533" class="G"/><path d="M13.083 39.654H5.277v-.234c0-1.743 1.17-3.3 2.847-3.76l.1-.025.082.043c.554.286 1.218.286 1.77 0l.083-.043.088.025c1.677.47 2.848 2.016 2.848 3.76v.234zm-7.33-.468h6.853a3.45 3.45 0 0 0-2.412-3.049 2.4 2.4 0 0 1-2.028 0 3.45 3.45 0 0 0-2.413 3.049zm32.084-10.343a2.61 2.61 0 0 1 2.605-2.604 2.61 2.61 0 0 1 2.604 2.604 2.61 2.61 0 0 1-2.604 2.605 2.61 2.61 0 0 1-2.605-2.605m4.865 0c0-1.246-1.014-2.26-2.26-2.26s-2.26 1.014-2.26 2.26 1.014 2.26 2.26 2.26 2.26-1.014 2.26-2.26" class="F"/><path d="M42.006 29.358s-.604-.092-.887-.352c.007-.07.045-.237.045-.237s.077-.046.077-.115-.195-.2-.8-.187-.796.088-.808.184.09.115.09.115l.042.233s-.265.283-.896.355l-.134-.226.084-.524c.008-.042.514-.563 1.498-.552s1.71.403 1.734.515l.098.56-.142.23z" class="H"/><path d="M31.095 31.448c-1.437 0-2.604-1.168-2.604-2.605a2.61 2.61 0 0 1 2.604-2.604 2.61 2.61 0 0 1 2.604 2.604 2.61 2.61 0 0 1-2.604 2.605m0-4.865c-1.246 0-2.26 1.014-2.26 2.26s1.014 2.26 2.26 2.26 2.26-1.014 2.26-2.26-1.014-2.26-2.26-2.26" class="F"/><path d="M31.6 27.28s-.093.604-.353.888c-.068-.008-.237-.046-.237-.046s-.046-.077-.115-.077-.2.195-.187.8.088.796.183.808.115-.088.115-.088l.234-.042s.282.264.355.895l-.226.134-.524-.084c-.042-.008-.563-.514-.553-1.5s.403-1.71.516-1.734.562-.097.562-.097l.23.143z" class="H"/></svg>