<svg xmlns="http://www.w3.org/2000/svg" width="40.348" height="40"><path fill="#009bde" d="M26.665 28.93h-2.89a.4.4 0 0 0-.396.339l-1.168 7.407a.24.24 0 0 0 .237.278h1.482a.28.28 0 0 0 .277-.237l.33-2.1a.4.4 0 0 1 .396-.339h.914c1.902 0 3-.92 3.288-2.746.13-.798.005-1.426-.368-1.864-.4-.482-1.137-.738-2.104-.738zm.333 2.705c-.157 1.037-.95 1.037-1.716 1.037h-.436l.306-1.936a.24.24 0 0 1 .237-.203h.2c.52 0 1.014 0 1.268.297.152.178.2.44.14.805z"/><path d="M6.062 28.93h-2.9a.4.4 0 0 0-.396.339L1.6 36.676a.24.24 0 0 0 .238.278h1.38a.4.4 0 0 0 .396-.339l.315-1.998a.4.4 0 0 1 .396-.339h.914c1.902 0 3-.92 3.288-2.746.13-.798.005-1.426-.37-1.864-.4-.482-1.138-.738-2.104-.738zm.333 2.705c-.158 1.037-.95 1.037-1.716 1.037h-.436l.306-1.936c.02-.117.12-.203.238-.203h.2c.52 0 1.014 0 1.268.297.15.178.197.44.14.805zm8.3-.033h-1.383a.24.24 0 0 0-.238.204l-.06.387-.097-.14c-.3-.435-.967-.58-1.634-.58-1.528 0-2.833 1.158-3.087 2.782-.132.8.056 1.585.515 2.125.422.497 1.025.703 1.742.703 1.232 0 1.915-.8 1.915-.8l-.062.385a.24.24 0 0 0 .238.278H13.8a.4.4 0 0 0 .396-.339l.748-4.735a.24.24 0 0 0-.238-.278zm-1.927 2.692a1.54 1.54 0 0 1-1.561 1.321c-.4 0-.723-.13-.93-.373s-.28-.588-.216-.972c.125-.783.762-1.33 1.55-1.33.393 0 .712.13.922.377s.294.596.234.978z" fill="#002f87"/><path fill="#009bde" d="M35.298 31.602h-1.383a.24.24 0 0 0-.237.204l-.062.387-.096-.14c-.3-.435-.968-.58-1.635-.58-1.527 0-2.833 1.158-3.088 2.782-.13.81.057 1.585.516 2.125.422.497 1.024.703 1.742.703 1.23 0 1.915-.79 1.915-.79l-.062.385a.24.24 0 0 0 .237.278H34.4a.4.4 0 0 0 .396-.339l.748-4.735c.026-.146-.088-.278-.236-.278zm-1.928 2.692a1.54 1.54 0 0 1-1.561 1.321c-.4 0-.723-.13-.93-.373s-.282-.588-.217-.972c.124-.783.763-1.33 1.55-1.33.393 0 .712.13.922.377s.297.596.235.978z"/><path fill="#002f87" d="M22.063 31.602h-1.39a.4.4 0 0 0-.332.177l-1.917 2.824-.813-2.714a.4.4 0 0 0-.384-.287H15.86c-.165 0-.28.163-.228.32l1.53 4.493-1.44 2.03c-.113.16.001.38.197.38h1.39a.4.4 0 0 0 .33-.173l4.624-6.673c.11-.16-.005-.378-.2-.378z"/><path d="M36.93 29.133l-1.186 7.543a.24.24 0 0 0 .238.278h1.2a.4.4 0 0 0 .396-.339l1.17-7.407a.24.24 0 0 0-.238-.278h-1.334a.24.24 0 0 0-.237.203zM29.18 8.157c.292-1.864-.002-3.133-1-4.282-1.1-1.265-3.116-1.807-5.683-1.807h-7.45c-.524 0-.97.38-1.053.9l-3.102 19.67a.64.64 0 0 0 .632.739h4.6l-.317 2.013a.56.56 0 0 0 .553.646h3.876a.93.93 0 0 0 .921-.787l.038-.196.73-4.63.047-.255a.93.93 0 0 1 .921-.787h.58c3.755 0 6.695-1.526 7.555-5.938.358-1.844.173-3.383-.776-4.464-.288-.327-.645-.598-1.06-.82" fill="#009bde"/><path fill="#022169" d="M29.18 8.157c.292-1.864-.002-3.133-1.01-4.282-1.1-1.265-3.116-1.807-5.683-1.807h-7.45c-.524 0-.97.38-1.053.9l-3.102 19.67a.64.64 0 0 0 .632.739h4.6l1.12-7.096a1.06 1.06 0 0 1 1.049-.899h2.186c4.293 0 7.654-1.744 8.637-6.788a12.87 12.87 0 0 0 .076-.435"/><path fill="#002f87" d="M18.5 8.182a.93.93 0 0 1 .518-.696c.123-.06.26-.09.403-.09h5.84c.69 0 1.337.045 1.926.14l.492.094.464.12.22.07c.3.096.56.21.808.34.292-1.864-.002-3.133-1.01-4.282-1.1-1.265-3.116-1.807-5.683-1.807h-7.45c-.524 0-.97.38-1.053.9l-3.102 19.67a.64.64 0 0 0 .632.739h4.6L18.5 8.182z"/></svg>