<svg xmlns="http://www.w3.org/2000/svg" width="170" height="40"><path fill="#010101" d="M10.91 38.91V36.4c0-.967-.59-1.598-1.598-1.598-.504 0-1.05.17-1.43.715-.294-.462-.715-.715-1.345-.715-.42 0-.84.127-1.177.59v-.504H4.48v4.034h.883v-2.228c0-.714.378-1.05.966-1.05s.883.38.883 1.05v2.228h.883v-2.228c0-.714.42-1.05.967-1.05.59 0 .883.38.883 1.05v2.228h.966zm13.07-4.034h-1.43v-1.22h-.883v1.22h-.8v.798h.8v1.85c0 .925.378 1.47 1.387 1.47.378 0 .8-.126 1.093-.294l-.252-.757c-.252.17-.547.21-.757.21-.42 0-.588-.253-.588-.673v-1.808h1.43v-.798zm7.482-.085c-.505 0-.84.253-1.05.59v-.504h-.883v4.034h.883v-2.27c0-.672.294-1.05.84-1.05.168 0 .378.042.546.084l.252-.84c-.168-.042-.42-.042-.588-.042zm-11.307.42c-.42-.294-1.01-.42-1.64-.42-1.01 0-1.682.505-1.682 1.304 0 .672.505 1.05 1.387 1.177l.42.042c.462.084.715.2.715.42 0 .295-.337.505-.925.505s-1.05-.2-1.346-.42l-.42.673c.462.336 1.093.504 1.724.504 1.177 0 1.85-.546 1.85-1.303 0-.714-.546-1.093-1.387-1.22l-.42-.042c-.38-.042-.673-.126-.673-.378 0-.295.294-.463.757-.463.504 0 1.01.2 1.26.337l.378-.715zm23.453-.42c-.504 0-.84.253-1.05.59v-.504h-.883v4.034h.883v-2.27c0-.672.294-1.05.84-1.05.168 0 .378.042.546.084l.253-.84c-.168-.042-.42-.042-.59-.042zm-11.263 2.102c0 1.22.84 2.102 2.144 2.102.588 0 1.01-.126 1.43-.462l-.42-.715c-.337.253-.673.38-1.05.38-.715 0-1.22-.505-1.22-1.304 0-.756.504-1.26 1.22-1.303.378 0 .714.126 1.05.38l.42-.715c-.42-.336-.84-.463-1.43-.463-1.304 0-2.144.883-2.144 2.102zm8.153 0v-2.017h-.883v.504c-.294-.378-.714-.59-1.26-.59-1.135 0-2.018.883-2.018 2.102s.883 2.102 2.018 2.102c.59 0 1.01-.2 1.26-.588v.504h.883v-2.018zm-3.236 0c0-.714.463-1.303 1.22-1.303.715 0 1.22.547 1.22 1.303 0 .715-.504 1.304-1.22 1.304-.756-.043-1.22-.6-1.22-1.304zm-10.55-2.102c-1.177 0-2.017.84-2.017 2.102s.84 2.102 2.06 2.102c.59 0 1.178-.168 1.64-.546l-.42-.63c-.337.253-.757.42-1.178.42-.546 0-1.093-.253-1.22-.967h2.984v-.337c.042-1.303-.714-2.144-1.85-2.144zm0 .757c.547 0 .925.337 1.01.967H25.62c.084-.546.463-.967 1.093-.967zm21.898 1.345V33.28h-.883v2.102c-.294-.378-.715-.59-1.26-.59-1.135 0-2.018.883-2.018 2.102s.883 2.102 2.018 2.102c.588 0 1.01-.2 1.26-.588v.504h.883v-2.02zm-3.236 0c0-.714.462-1.303 1.22-1.303.715 0 1.22.547 1.22 1.303 0 .715-.504 1.304-1.22 1.304-.757-.043-1.22-.6-1.22-1.304zm-29.506 0v-2.017h-.883v.504c-.294-.378-.714-.59-1.26-.59-1.135 0-2.018.883-2.018 2.102s.883 2.102 2.018 2.102c.59 0 1.01-.2 1.26-.588v.504h.883v-2.018zm-3.278 0c0-.714.463-1.303 1.22-1.303.715 0 1.22.547 1.22 1.303 0 .715-.505 1.304-1.22 1.304-.756-.043-1.22-.6-1.22-1.304z"/><path fill="#f26122" d="M19.863 4.236h13.24v23.79h-13.24z"/><path fill="#ea1d25" d="M20.704 16.13c0-4.833 2.27-9.12 5.758-11.895A15.04 15.04 0 0 0 17.131 1C8.768 1 2 7.767 2 16.13s6.768 15.13 15.13 15.13c3.53 0 6.768-1.22 9.33-3.236a15.11 15.11 0 0 1-5.758-11.895z"/><path fill="#f69e1f" d="M50.966 16.13c0 8.364-6.767 15.13-15.13 15.13-3.53 0-6.767-1.22-9.33-3.236 3.53-2.773 5.76-7.06 5.76-11.895S29.992 7 26.504 4.236C29.068 2.22 32.305 1 35.835 1c8.364 0 15.13 6.81 15.13 15.13z"/><g transform="matrix(1 0 0 -1 -1.667 63)"><path fill="#f69e1f" d="M158.777 33.006c-.364 0-.687-.055-.97-.165s-.524-.268-.73-.473-.372-.447-.503-.73a3.47 3.47 0 0 1-.271-.93h4.834c-.1.728-.368 1.29-.777 1.692s-.938.605-1.585.605zm6.35-7.752v.564h-.148l-.17-.388-.17.388h-.148v-.564h.104v.427l.16-.368h.107l.16.368v-.427h.105zm-.935 0v.47h.188v.096h-.48v-.096h.19v-.47h.104zm-5.377 9.562c.646 0 1.242-.117 1.784-.354s1.006-.57 1.392-1.003.687-.947.904-1.545.326-1.266.326-1.99l-.01-.388-.03-.37h-6.888c.064-.422.185-.78.36-1.08a2.54 2.54 0 0 1 .634-.736c.245-.2.52-.332.826-.422s.623-.136.953-.136c.467 0 .937.085 1.406.257a4.58 4.58 0 0 1 1.289.726l1.012-1.45c-.57-.485-1.177-.825-1.815-1.02a6.91 6.91 0 0 0-2.018-.291c-.7 0-1.342.117-1.926.35s-1.087.563-1.508.992-.75.944-.983 1.546-.35 1.276-.35 2.015c0 .726.112 1.4.338 1.994a4.59 4.59 0 0 0 .954 1.551 4.24 4.24 0 0 0 1.465 1.003c.57.235 1.197.352 1.884.352zm-11.5-1.917c-.44 0-.834-.078-1.18-.237s-.64-.372-.88-.644-.426-.584-.555-.946a3.42 3.42 0 0 1-.194-1.158c0-.408.064-.795.194-1.157s.314-.68.555-.948a2.63 2.63 0 0 1 .881-.644c.347-.16.74-.237 1.18-.237.423 0 .806.074 1.147.23.346.15.64.36.886.628a2.78 2.78 0 0 1 .573.942c.137.364.205.76.205 1.188s-.068.824-.205 1.186-.326.678-.573.945-.54.473-.886.628c-.342.15-.724.225-1.147.225zm-.243 1.917c.67 0 1.243-.124 1.723-.375s.88-.582 1.206-.998v5.818h2.033V25.254h-2.033v1.117c-.325-.415-.728-.745-1.206-.992s-1.053-.37-1.723-.37c-.654 0-1.264.12-1.827.364s-1.057.582-1.48 1.02c-.422.432-.752.95-.99 1.55s-.36 1.258-.36 1.97.12 1.37.36 1.97.57 1.115.99 1.552.914.772 1.48 1.017 1.172.363 1.827.363zM135.946 32.9a3 3 0 0 1-1.16-.219 2.73 2.73 0 0 1-.923-.612c-.26-.263-.463-.577-.613-.943s-.223-.77-.223-1.21.075-.846.223-1.212.353-.682.613-.943.567-.467.923-.612.744-.22 1.16-.22.8.072 1.155.22.668.35.93.612.47.577.618.943a3.21 3.21 0 0 1 .224 1.212c0 .44-.075.845-.224 1.21s-.354.68-.618.943a2.72 2.72 0 0 1-.93.612 2.97 2.97 0 0 1-1.155.219zm0 1.917c.72 0 1.385-.124 2-.375s1.143-.594 1.6-1.032.797-.952 1.05-1.55.38-1.245.38-1.945-.125-1.35-.38-1.946-.604-1.113-1.05-1.55a4.87 4.87 0 0 0-1.59-1.031 5.26 5.26 0 0 0-1.999-.375c-.72 0-1.388.126-2 .375s-1.142.594-1.586 1.03-.792.953-1.046 1.55-.38 1.245-.38 1.946.127 1.35.38 1.945.602 1.115 1.046 1.55.974.782 1.586 1.032 1.28.375 2 .375zm-12.014 4.3c.602 0 1.186-.064 1.75-.194s1.09-.318 1.577-.565.928-.544 1.323-.898a5.16 5.16 0 0 0 .993-1.192l-1.84-1.226a4.44 4.44 0 0 1-1.601 1.44c-.653.35-1.386.524-2.202.524-.696 0-1.338-.12-1.926-.36s-1.1-.577-1.53-1.012-.763-.956-1.007-1.566-.364-1.282-.364-2.014.12-1.403.364-2.013.578-1.133 1.007-1.566a4.48 4.48 0 0 1 1.529-1.012c.588-.24 1.23-.36 1.926-.36.8 0 1.537.17 2.182.515s1.184.824 1.61 1.438l1.79-1.313a5.97 5.97 0 0 0-1.026-1.148c-.394-.336-.828-.624-1.305-.866s-.99-.422-1.538-.548-1.12-.19-1.715-.19c-1.046 0-2.005.177-2.88.53s-1.628.845-2.258 1.473-1.12 1.376-1.47 2.238-.525 1.803-.525 2.82.176 1.958.525 2.82.84 1.61 1.47 2.237a6.7 6.7 0 0 0 2.258 1.473c.876.354 1.835.53 2.88.53zm-13.22-6.12a2.65 2.65 0 0 1-.968-.165 2.09 2.09 0 0 1-.729-.473c-.205-.204-.372-.447-.503-.73s-.22-.592-.27-.93h4.835c-.11.728-.37 1.29-.78 1.692s-.935.605-1.585.605zm.04 1.8c.646 0 1.242-.117 1.784-.354a4 4 0 0 0 1.391-1.003 4.68 4.68 0 0 0 .904-1.545c.218-.6.327-1.266.327-1.99l-.01-.388-.03-.37h-6.886c.064-.422.185-.78.36-1.08s.386-.545.632-.736a2.52 2.52 0 0 1 .827-.422c.305-.092.623-.136.953-.136.467 0 .936.085 1.405.257s.9.414 1.3.726l1.012-1.45a5.1 5.1 0 0 0-1.815-1.021 6.9 6.9 0 0 0-2.018-.291c-.7 0-1.343.117-1.926.35s-1.087.563-1.508.992-.75.944-.982 1.546-.352 1.276-.352 2.015c0 .726.114 1.4.342 1.994s.544 1.12.952 1.55a4.24 4.24 0 0 0 1.465 1.003c.568.235 1.196.352 1.885.352zm-6.83 0a5.11 5.11 0 0 0 .841-.063 3.81 3.81 0 0 0 .725-.199l-.486-2.015c-.214.1-.465.195-.75.254s-.552.088-.798.088a2.37 2.37 0 0 1-.896-.167 1.89 1.89 0 0 1-.7-.486c-.194-.214-.346-.476-.456-.787s-.165-.666-.165-1.06v-5.126h-2.034v9.317h2.015v-1.05a2.78 2.78 0 0 0 1.156.981c.46.2.975.314 1.547.314zM96.5 29.203c0-.74-.125-1.374-.37-1.905s-.57-.968-.973-1.305a3.87 3.87 0 0 0-1.381-.744c-.52-.158-1.05-.238-1.596-.238a5.46 5.46 0 0 0-1.596.238c-.52.158-.98.407-1.385.744s-.73.77-.974 1.305-.365 1.165-.365 1.905v5.37h2.043v-5.184c0-.448.06-.83.176-1.143s.277-.568.48-.765.445-.335.725-.423.577-.13.895-.13.616.044.896.13.52.23.725.423a2 2 0 0 1 .481.765c.118.313.176.694.176 1.143v5.184H96.5v-5.37zm-13.912 5.613a5.03 5.03 0 0 0 1.955-.375c.604-.25 1.112-.62 1.528-1.113l-1.304-1.39a3.93 3.93 0 0 1-1.031.715c-.357.165-.76.247-1.207.247-.4 0-.752-.07-1.09-.22s-.63-.35-.876-.612-.44-.577-.58-.943a3.39 3.39 0 0 1-.209-1.211c0-.44.07-.846.21-1.212s.333-.682.58-.943.538-.467.876-.612.7-.22 1.09-.22c.448 0 .866.092 1.255.277a4.03 4.03 0 0 1 1.031.694l1.255-1.4c-.428-.492-.94-.863-1.537-1.113s-1.245-.375-1.946-.375c-.74 0-1.41.126-2.014.375s-1.12.594-1.546 1.03-.76.953-.993 1.55a5.3 5.3 0 0 0-.35 1.946c0 .7.117 1.35.35 1.945s.564 1.115.993 1.55a4.58 4.58 0 0 0 1.546 1.032c.604.25 1.276.375 2.015.375zm-10.807-1.8a2.66 2.66 0 0 1-.969-.165c-.282-.11-.525-.268-.73-.473s-.37-.447-.5-.73-.22-.592-.272-.93h4.834c-.1.728-.37 1.29-.78 1.692s-.937.605-1.585.605zm.04 1.8c.648 0 1.243-.117 1.785-.354s1.005-.57 1.392-1.003.688-.947.905-1.545.325-1.266.325-1.99l-.01-.388-.03-.37H69.3c.065-.422.184-.78.36-1.08s.386-.545.632-.736.522-.332.828-.422.623-.136.953-.136c.467 0 .936.085 1.405.257s.9.414 1.29.726l1.01-1.45c-.57-.485-1.174-.825-1.813-1.02s-1.312-.29-2.02-.29c-.7 0-1.342.117-1.927.35s-1.085.563-1.507.992-.75.944-.983 1.546-.35 1.276-.35 2.015c0 .726.113 1.4.34 1.994s.545 1.12.954 1.55.897.765 1.464 1.003 1.195.352 1.883.352zm-7.422 1.042c-.584.37-1.194.655-1.83.86s-1.3.308-1.994.308c-.455 0-.87-.048-1.245-.143s-.7-.23-.97-.408-.478-.392-.627-.64-.223-.53-.223-.843c0-.286.064-.527.194-.73s.316-.37.56-.51.54-.255.9-.345.746-.17 1.187-.235l.943-.127c.552-.076 1.09-.197 1.614-.358a4.9 4.9 0 0 0 1.406-.682 3.36 3.36 0 0 0 .993-1.098c.25-.44.374-.978.374-1.605 0-.693-.146-1.308-.438-1.84s-.687-.98-1.187-1.342-1.078-.64-1.736-.828S60.953 25 60.214 25c-.46 0-.94.04-1.435.117s-.986.193-1.47.345-.946.342-1.387.57a6 6 0 0 0-1.186.797l1.196 1.753a4.29 4.29 0 0 1 .841-.595 7.19 7.19 0 0 1 1.055-.475c.376-.14.767-.243 1.173-.317a6.67 6.67 0 0 1 1.201-.112 5.32 5.32 0 0 1 1.25.137 3.39 3.39 0 0 1 1.007.398c.285.175.5.388.676.636a1.49 1.49 0 0 1 .249.842c0 .533-.26.938-.783 1.216s-1.282.487-2.28.623l-1.06.146c-.507.072-1 .188-1.484.35s-.915.39-1.293.685a3.33 3.33 0 0 0-.915 1.108c-.23.444-.346.984-.346 1.62 0 .68.142 1.286.423 1.815a3.97 3.97 0 0 0 1.153 1.331c.486.36 1.055.634 1.708.822s1.347.282 2.086.282c.992 0 1.89-.133 2.69-.395a9.28 9.28 0 0 0 2.233-1.074l-1.117-1.778z"/><path fill="#ea1d25" d="M158.4 52.4c-.457 0-.866-.083-1.226-.247s-.664-.387-.913-.666a2.98 2.98 0 0 1-.575-.984c-.134-.377-.202-.778-.202-1.202a3.55 3.55 0 0 1 .202-1.2c.135-.376.327-.705.575-.984s.553-.5.913-.666.77-.247 1.226-.247c.438 0 .835.08 1.192.238s.66.374.917.65.453.603.595.98.213.787.213 1.23-.07.854-.213 1.232-.34.702-.595.98-.562.492-.917.65-.754.237-1.192.237zm7.253-7.47v-.152h.14c.032 0 .06.007.077.02s.028.03.028.057-.01.044-.028.057-.045.018-.077.018h-.14zm.14.108c.073 0 .13-.016.17-.05s.058-.077.058-.134c0-.046-.015-.085-.046-.116a.23.23 0 0 0-.134-.057l.186-.215h-.145l-.176.214h-.054v-.214h-.123v.57h.264zm-.036-.767a.45.45 0 0 1 .184.037.48.48 0 0 1 .152.102.54.54 0 0 1 .103.151c.022.06.035.12.035.188s-.013.127-.035.186-.06.108-.103.153-.094.078-.152.102a.46.46 0 0 1-.184.037.48.48 0 0 1-.188-.037c-.06-.024-.11-.06-.153-.102a.52.52 0 0 1-.103-.153c-.025-.06-.035-.12-.035-.186s.01-.13.035-.188a.48.48 0 0 1 .103-.151c.042-.042.094-.077.153-.102a.48.48 0 0 1 .188-.037zm0 1.094c.085 0 .167-.017.244-.05a.68.68 0 0 0 .199-.131c.056-.055.1-.12.133-.196s.05-.155.05-.238-.018-.164-.05-.24-.077-.14-.133-.196a.72.72 0 0 0-.199-.132.63.63 0 0 0-.244-.048c-.088 0-.17.016-.248.048a.65.65 0 0 0-.199.132.67.67 0 0 0-.135.196c-.03.075-.048.154-.048.24a.64.64 0 0 0 .048.238c.034.075.08.14.135.196a.61.61 0 0 0 .199.131c.078.032.16.05.248.05zm-7.608 9.025c.692 0 1.288-.13 1.785-.39s.917-.604 1.252-1.034V59h2.11V44.47h-2.11v1.16c-.335-.43-.755-.774-1.252-1.028s-1.093-.384-1.785-.384c-.68 0-1.312.126-1.897.378a4.67 4.67 0 0 0-1.532 1.056c-.438.45-.782.987-1.03 1.608s-.374 1.305-.374 2.043.125 1.42.374 2.044.592 1.16 1.03 1.608.946.803 1.532 1.056 1.216.378 1.897.378zm-6.923 0a5.25 5.25 0 0 0 .873-.066c.258-.043.51-.112.753-.207l-.507-2.088c-.222.114-.48.202-.774.262s-.574.09-.83.09c-.335 0-.645-.058-.928-.172a2 2 0 0 1-.728-.505 2.37 2.37 0 0 1-.473-.817c-.114-.323-.173-.7-.173-1.1V44.47h-2.11v9.666h2.09v-1.09a2.9 2.9 0 0 0 1.2 1.019c.477.214 1.012.323 1.604.323zM138.33 52.4c-.458 0-.867-.083-1.226-.247s-.664-.387-.913-.666a2.98 2.98 0 0 1-.575-.984 3.59 3.59 0 0 1-.202-1.202c0-.424.07-.824.202-1.2s.327-.705.575-.984.554-.5.913-.666.768-.247 1.226-.247c.438 0 .835.08 1.2.238s.664.374.92.65.453.603.595.98a3.41 3.41 0 0 1 .213 1.23c0 .446-.07.854-.213 1.232s-.34.702-.595.98a2.78 2.78 0 0 1-.919.651 2.88 2.88 0 0 1-1.19.237zm4.894-7.93h-2.108v1.16a3.7 3.7 0 0 0-1.251-1.028c-.5-.257-1.093-.384-1.786-.384a4.73 4.73 0 0 0-1.896.378 4.72 4.72 0 0 0-1.534 1.056c-.437.45-.78.987-1.028 1.608s-.373 1.305-.373 2.043.124 1.42.373 2.044.592 1.16 1.028 1.608a4.75 4.75 0 0 0 1.534 1.056c.584.25 1.217.378 1.896.378.693 0 1.287-.13 1.786-.39a3.79 3.79 0 0 0 1.251-1.034v1.17h2.108V44.47zm-14.853 9.92c.727 0 1.403-.13 2.028-.39s1.153-.645 1.584-1.156L130.63 51.4c-.342.323-.698.57-1.068.742a2.95 2.95 0 0 1-1.252.257c-.402 0-.778-.075-1.13-.228a2.66 2.66 0 0 1-.909-.636c-.254-.272-.455-.598-.6-.978s-.216-.8-.216-1.257.07-.876.216-1.255a2.98 2.98 0 0 1 .6-.979c.257-.272.558-.483.91-.634s.727-.23 1.13-.23a2.99 2.99 0 0 1 1.302.288c.403.19.76.432 1.07.72l1.302-1.453c-.443-.51-.975-.896-1.593-1.155s-1.293-.388-2.02-.388c-.767 0-1.463.13-2.087.388s-1.16.616-1.605 1.07-.787.992-1.028 1.61-.363 1.293-.363 2.02.12 1.4.363 2.02.583 1.155 1.028 1.6.98.8 1.605 1.07 1.322.39 2.088.39zm-7.214 0c.323 0 .615-.022.873-.066a3.71 3.71 0 0 0 .751-.207l-.504-2.088c-.22.114-.48.202-.778.262a4.08 4.08 0 0 1-.825.091c-.338 0-.646-.058-.93-.172a1.96 1.96 0 0 1-.726-.505c-.202-.22-.36-.494-.476-.817a3.32 3.32 0 0 1-.17-1.099V44.47h-2.1v9.666h2.09v-1.09c.32.464.723.804 1.2 1.02s1.013.323 1.605.323zM109.24 52.51c-.377 0-.712-.057-1.004-.17a2.17 2.17 0 0 1-.758-.49c-.212-.21-.385-.464-.52-.757s-.228-.614-.282-.963h5.017c-.116.753-.386 1.338-.8 1.756s-.97.625-1.643.625zm.04 1.878c.673 0 1.3-.123 1.852-.37s1.043-.592 1.443-1.04a4.87 4.87 0 0 0 .938-1.605c.227-.622.34-1.3.34-2.063l-.013-.403-.028-.383h-7.143a3.08 3.08 0 0 1 .373-1.12 2.64 2.64 0 0 1 .655-.762c.256-.2.542-.345.858-.44s.646-.142.987-.142c.485 0 .97.1 1.457.268a4.72 4.72 0 0 1 1.339.752l1.05-1.502c-.593-.506-1.22-.858-1.882-1.06s-1.36-.303-2.093-.303c-.727 0-1.393.122-2 .363a4.52 4.52 0 0 0-1.563 1.029c-.438.444-.778.98-1.02 1.604s-.363 1.322-.363 2.088c0 .753.117 1.444.354 2.07a4.73 4.73 0 0 0 .988 1.609 4.41 4.41 0 0 0 1.52 1.039c.59.246 1.24.37 1.952.37zm-6.487-2.17H99.09V48.01c0-.32.04-.598.12-.827s.19-.415.328-.56a1.23 1.23 0 0 1 .483-.317 1.73 1.73 0 0 1 .601-.102c.33 0 .664.063 1.003.19s.655.284.944.464l.837-1.685a6.64 6.64 0 0 0-1.316-.676c-.487-.188-1.036-.283-1.65-.283-1.096 0-1.948.305-2.557.914s-.913 1.555-.913 2.84v4.248h-1.928v1.916h1.928v2.927h2.12v-2.927h3.703V52.22zm-10.01-.505a5.78 5.78 0 0 1-.545.277 5.86 5.86 0 0 1-.717.268c-.264.08-.54.146-.832.2a5.03 5.03 0 0 1-.894.081c-.58 0-1.027-.106-1.348-.318s-.48-.49-.48-.832a.69.69 0 0 1 .126-.423.95.95 0 0 1 .338-.284 2.03 2.03 0 0 1 .505-.176l.626-.116.997-.152c1.058-.155 1.88-.462 2.474-.924s.888-1.104.888-1.932a2.75 2.75 0 0 0-.299-1.277c-.197-.386-.484-.72-.856-1s-.836-.496-1.382-.65-1.17-.23-1.863-.23c-.248 0-.538.016-.866.046a7.35 7.35 0 0 0-1.051.18 7.53 7.53 0 0 0-1.129.379c-.385.162-.75.374-1.1.635l.98 1.584a5.17 5.17 0 0 1 .57-.378c.203-.118.436-.222.695-.312s.545-.164.858-.217.667-.082 1.063-.082c.728 0 1.275.107 1.646.318s.555.5.555.863c0 .275-.135.502-.403.68s-.693.308-1.27.388l-1.01.13c-1.077.148-1.893.462-2.448.943s-.832 1.112-.832 1.893a2.94 2.94 0 0 0 .278 1.292 2.69 2.69 0 0 0 .796.973c.347.266.766.47 1.257.616s1.046.217 1.664.217a8.37 8.37 0 0 0 2.15-.267c.672-.178 1.26-.428 1.766-.75l-.906-1.644zm-14.58.686c-.458 0-.867-.083-1.226-.247s-.664-.387-.913-.666a2.93 2.93 0 0 1-.575-.984 3.54 3.54 0 0 1-.202-1.202 3.5 3.5 0 0 1 .202-1.2c.134-.376.326-.705.575-.984s.553-.5.913-.666.77-.247 1.226-.247c.437 0 .834.08 1.19.238a2.73 2.73 0 0 1 .918.65c.255.276.454.603.595.98s.21.787.21 1.23-.07.854-.21 1.232-.34.702-.595.98-.562.492-.918.65-.754.237-1.19.237zm4.893-7.93H80.99v1.16a3.69 3.69 0 0 0-1.25-1.028c-.5-.257-1.093-.384-1.787-.384-.68 0-1.312.126-1.897.378s-1.096.604-1.533 1.056-.78.987-1.03 1.608-.374 1.305-.374 2.043.125 1.42.374 2.044.592 1.16 1.03 1.608a4.72 4.72 0 0 0 1.533 1.056 4.76 4.76 0 0 0 1.897.378c.693 0 1.288-.13 1.787-.39s.915-.604 1.25-1.034v1.17h2.108V44.47zm-12.005 0h-2.28v11.623l-4.127-10.24h-2.402l-4.127 10.13V44.47h-2.28v14.127h3.5l4.107-10.09 4.107 10.09h3.5V44.47z"/></g></svg>