<?xml version="1.0" encoding="utf-8"?>
<!-- Generator: Adobe Illustrator 16.0.0, SVG Export Plug-In . SVG Version: 6.00 Build 0)  -->
<!DOCTYPE svg PUBLIC "-//W3C//DTD SVG 1.1//EN" "http://www.w3.org/Graphics/SVG/1.1/DTD/svg11.dtd">
<svg version="1.1" id="Layer_1" xmlns="http://www.w3.org/2000/svg" xmlns:xlink="http://www.w3.org/1999/xlink" x="0px" y="0px"
	 width="170px" height="40px" viewBox="0 0 170 40" enable-background="new 0 0 170 40" xml:space="preserve">
<g>
	<g>
		<path fill="#253B7C" d="M107.545,15.45l-3.536-10.805h1.572l1.769,5.304c0.392,1.375,0.783,2.75,1.178,3.929l0,0
			c0.393-1.179,0.786-2.554,1.18-3.929l1.766-5.304h1.573l-3.929,10.805H107.545z"/>
		<path fill="#253B7C" d="M113.635,11.717c0,1.964,1.18,2.75,2.554,2.75c0.983,0,1.572-0.196,2.161-0.392l0.197,0.981
			c-0.393,0.196-1.181,0.394-2.358,0.394c-2.356,0-3.732-1.572-3.732-3.929c0-2.358,1.376-4.126,3.536-4.126
			c2.555,0,3.146,2.162,3.146,3.733c0,0.196,0,0.589,0,0.589H113.635z M117.761,10.735c0-0.981-0.395-2.357-1.964-2.357
			c-1.377,0-1.965,1.376-2.162,2.357H117.761z"/>
		<path fill="#253B7C" d="M120.119,10.145c0-0.982,0-1.768,0-2.357h1.178v1.572l0,0c0.59-1.177,1.375-1.964,2.357-1.964
			c0.196,0,0.196,0,0.393,0v1.375c-0.196,0-0.196,0-0.393,0c-0.982,0-1.768,0.786-1.966,1.768c0,0.197,0,0.394,0,0.59v4.125h-1.569
			V10.145z"/>
		<path fill="#253B7C" d="M126.403,5.431c0,0.394-0.391,0.786-0.98,0.786c-0.591,0-0.786-0.392-0.786-0.786
			c0-0.589,0.393-0.786,0.786-0.786C126.013,4.645,126.403,5.038,126.403,5.431 M124.832,7.591h1.377v7.662h-1.377V7.591z"/>
		<path fill="#253B7C" d="M128.173,15.45v-6.68h-1.18V7.591h1.18V7.199c0-1.179,0.196-2.161,0.983-2.75
			c0.393-0.394,0.982-0.59,1.766-0.59c0.59,0,0.983,0.197,1.181,0.197l-0.197,1.179c-0.197,0-0.59-0.196-0.983-0.196
			c-1.178,0-1.569,0.982-1.569,2.161v0.393h1.963v0.983h-1.963v6.679h-1.18V15.45z"/>
		<path fill="#253B7C" d="M134.265,5.431c0,0.394-0.395,0.786-0.983,0.786s-0.786-0.392-0.786-0.786
			c0-0.589,0.393-0.786,0.786-0.786C134.067,4.645,134.265,5.038,134.265,5.431 M132.692,7.591h1.375v7.662h-1.375V7.591z"/>
		<path fill="#253B7C" d="M136.619,11.717c0,1.964,1.18,2.75,2.556,2.75c0.982,0,1.57-0.196,2.158-0.392l0.197,0.981
			c-0.587,0.196-1.373,0.394-2.553,0.394c-2.358,0-3.732-1.572-3.732-3.929c0-2.358,1.374-4.126,3.537-4.126
			c2.551,0,3.142,2.162,3.142,3.733c0,0.196,0,0.589,0,0.589H136.619z M140.745,10.735c0-0.981-0.39-2.357-1.963-2.357
			c-1.376,0-1.965,1.376-2.163,2.357H140.745z"/>
		<path fill="#253B7C" d="M149.783,4.056v9.43c0,0.589,0,1.375,0,1.964h-1.181v-1.375l0,0c-0.392,0.786-1.372,1.57-2.552,1.57
			c-1.965,0-3.34-1.57-3.34-3.928c0-2.554,1.571-4.126,3.536-4.126c1.178,0,1.964,0.591,2.355,1.179l0,0V4.056H149.783z
			 M148.408,10.735c0-0.197,0-0.392,0-0.59c-0.197-0.982-0.983-1.571-1.966-1.571c-1.372,0-2.356,1.179-2.356,2.947
			c0,1.571,0.784,2.946,2.356,2.946c0.982,0,1.769-0.589,1.966-1.769c0-0.196,0-0.392,0-0.588V10.735z"/>
		<path fill="#253B7C" d="M155.087,15.45c0-0.589,0-1.375,0-1.964v-9.43h1.375v4.911l0,0c0.589-0.785,1.376-1.375,2.555-1.375
			c1.964,0,3.34,1.572,3.34,3.93c0,2.75-1.77,4.125-3.537,4.125c-1.18,0-1.963-0.393-2.553-1.375l0,0v1.375h-1.18V15.45z
			 M156.462,12.307c0,0.196,0,0.392,0,0.589c0.197,0.982,1.178,1.572,2.159,1.572c1.378,0,2.359-1.178,2.359-2.946
			c0-1.572-0.784-2.947-2.359-2.947c-0.981,0-1.765,0.589-2.159,1.769c0,0.195,0,0.392,0,0.589V12.307z"/>
		<path fill="#253B7C" d="M163.927,7.591l1.77,4.519c0.196,0.588,0.391,1.179,0.59,1.571l0,0c0.197-0.393,0.391-0.983,0.588-1.571
			l1.572-4.519h1.571l-2.162,5.501c-0.981,2.553-1.769,3.929-2.553,4.912c-0.591,0.589-1.376,0.785-1.77,0.982l-0.588-1.179
			c0.395-0.197,0.785-0.394,1.178-0.588c0.393-0.394,0.789-0.786,1.18-1.573c0-0.195,0.196-0.195,0.196-0.393c0,0,0-0.196,0-0.392
			l-2.946-7.073h1.374V7.591z"/>
	</g>
	<g>
		<path fill="#253B7C" d="M127.387,20.558l-4.32,10.805l-1.77-9.036c-0.197-0.982-0.981-1.572-1.966-1.572h-6.875v0.393
			c1.376,0.197,2.948,0.786,3.93,1.376c0.591,0.392,0.786,0.589,0.98,1.375l3.342,12.573h4.321l6.679-15.913H127.387z"/>
		<polygon fill="#253B7C" points="133.281,20.558 129.941,36.471 134.067,36.471 137.406,20.558 		"/>
		<path fill="#253B7C" d="M142.908,25.075c0-0.588,0.587-1.178,1.768-1.373c0.589,0,2.159-0.197,4.125,0.785l0.784-3.341
			c-0.982-0.393-2.16-0.786-3.731-0.786c-4.126,0-6.876,2.162-6.876,5.307c0,2.355,1.966,3.534,3.537,4.32
			c1.571,0.785,2.161,1.179,2.161,1.963c0,0.984-1.181,1.574-2.357,1.574c-1.963,0-3.341-0.59-4.126-0.983l-0.786,3.536
			c0.98,0.394,2.751,0.785,4.518,0.785c4.323,0,7.073-2.159,7.073-5.5C148.603,27.04,142.711,26.844,142.908,25.075"/>
		<path fill="#253B7C" d="M154.695,30.772l2.161-5.893l1.178,5.893H154.695z M156.267,20.558c-0.786,0-1.376,0.392-1.77,1.179
			l-6.089,14.734h4.321l0.785-2.358h5.305l0.592,2.358h3.534l-3.339-15.913H156.267z"/>
	</g>
</g>
<g>
	<linearGradient id="SVGID_1_" gradientUnits="userSpaceOnUse" x1="-0.8652" y1="12.248" x2="96.8866" y2="27.7695">
		<stop  offset="0" style="stop-color:#252761"/>
		<stop  offset="0.9946" style="stop-color:#28388C"/>
	</linearGradient>
	<path fill="url(#SVGID_1_)" d="M38.8,5.59L25.679,36.894h-8.56l-6.457-24.982c-0.392-1.539-0.732-2.103-1.924-2.75
		C6.792,8.104,3.578,7.113,0.75,6.498L0.94,5.59h13.781c1.755,0,3.335,1.167,3.733,3.19l3.411,18.115L30.293,5.59H38.8z
		 M72.342,26.672c0.036-8.261-11.425-8.717-11.346-12.408c0.025-1.123,1.095-2.316,3.435-2.621c1.159-0.152,4.357-0.27,7.983,1.4
		l1.424-6.638c-1.951-0.708-4.457-1.388-7.577-1.388c-8.005,0-13.639,4.256-13.685,10.347c-0.053,4.509,4.022,7.021,7.092,8.521
		c3.153,1.533,4.211,2.518,4.2,3.89c-0.025,2.102-2.517,3.026-4.848,3.064c-4.071,0.063-6.433-1.101-8.317-1.978l-1.465,6.858
		c1.89,0.868,5.383,1.626,9.005,1.663C66.751,37.383,72.314,33.183,72.342,26.672 M93.479,36.894h7.489L94.431,5.59h-6.913
		c-1.554,0-2.865,0.903-3.446,2.295l-12.15,29.009h8.5l1.69-4.677H92.5L93.479,36.894z M84.442,25.801l4.263-11.752l2.455,11.752
		H84.442z M50.371,5.59l-6.696,31.304h-8.1L42.275,5.59H50.371z"/>
</g>
</svg>
