<?xml version="1.0" encoding="utf-8"?>
<!-- Generator: Adobe Illustrator 23.0.1, SVG Export Plug-In . SVG Version: 6.00 Build 0)  -->
<svg version="1.1" id="Layer_1" xmlns="http://www.w3.org/2000/svg" xmlns:xlink="http://www.w3.org/1999/xlink" x="0px" y="0px"
	 width="30px" height="30px" viewBox="0 0 30 30" style="enable-background:new 0 0 30 30;" xml:space="preserve">
<style type="text/css">
	.st0{fill:#FFFFFF;}
	.st1{fill:#0077B7;}
	.st2{fill:#2E963D;}
	.st3{fill:#1976D2;}
	.st4{fill:#FAFAFA;}
	.st5{fill:#DD4B39;}
	.st6{fill:url(#SVGID_1_);}
	.st7{fill:url(#SVGID_2_);}
	.st8{fill:url(#SVGID_3_);}
	.st9{fill:url(#SVGID_4_);}
	.st10{fill:url(#SVGID_5_);}
	.st11{fill:url(#SVGID_6_);}
	.st12{fill:#176FC1;}
	.st13{fill:#6E64C3;}
	.st14{fill:#FFDF55;}
	.st15{fill:#FFCE00;}
	.st16{fill:url(#SVGID_7_);}
	.st17{fill:#DE2126;}
	.st18{fill:#00ADF2;}
	.st19{fill:url(#SVGID_8_);}
	.st20{fill:#B0271E;}
	.st21{fill:#FEFEFE;}
	.st22{fill:#0037C1;}
	.st23{fill:#092D74;}
	.st24{fill:url(#SVGID_9_);}
	.st25{fill:#CB2027;}
	.st26{fill:#FEC526;}
	.st27{fill:#F1F2F2;}
	.st28{fill:url(#SVGID_10_);}
	.st29{fill:#FCA726;}
	.st30{fill:url(#SVGID_11_);}
	.st31{fill:#212121;}
	.st32{fill:url(#SVGID_12_);}
	.st33{fill:#FFFFFF;stroke:#006EA7;stroke-width:0.1;stroke-miterlimit:10;}
	.st34{fill:#DA193B;}
	.st35{fill:#41378C;}
	.st36{fill:#FA870A;}
	.st37{fill:#FFC305;}
	.st38{fill:#373C41;}
	.st39{fill:#F3F3F3;}
	.st40{fill:#FF3C3C;}
	.st41{fill:#7D3DAF;}
	.st42{fill:url(#SVGID_13_);}
	.st43{fill:#00C200;}
	.st44{fill:#00C500;}
	.st45{fill:#3B77F0;}
	.st46{fill:url(#SVGID_14_);}
	.st47{fill:#009DFF;}
	.st48{fill:#D2E5F1;}
	.st49{fill:#B5CFE4;}
	.st50{fill:#325078;}
	.st51{fill-rule:evenodd;clip-rule:evenodd;fill:#F2F2F2;}
	.st52{fill:url(#SVGID_15_);}
	.st53{fill:#50ABF1;}
	.st54{fill:#2F4F6E;}
	.st55{fill:#2DC100;}
	.st56{fill:#00BF22;}
	.st57{fill-rule:evenodd;clip-rule:evenodd;fill:#FFFFFF;}
	.st58{fill:url(#SVGID_16_);}
	.st59{fill:#00605E;}
	.st60{fill:#FF0000;}
</style>
<g>
	<linearGradient id="SVGID_1_" gradientUnits="userSpaceOnUse" x1="8.5263" y1="26.0052" x2="23.7143" y2="0.1857">
		<stop  offset="0" style="stop-color:#FAE100"/>
		<stop  offset="0.0544" style="stop-color:#FADC04"/>
		<stop  offset="0.1167" style="stop-color:#FBCE0E"/>
		<stop  offset="0.1829" style="stop-color:#FCB720"/>
		<stop  offset="0.2514" style="stop-color:#FE9838"/>
		<stop  offset="0.3054" style="stop-color:#FF7950"/>
		<stop  offset="0.4922" style="stop-color:#FF1C74"/>
		<stop  offset="1" style="stop-color:#6C1CD1"/>
	</linearGradient>
	<path class="st6" d="M25.5,1h-21C2.57,1,1,2.57,1,4.5v21C1,27.43,2.57,29,4.5,29h21c1.93,0,3.5-1.57,3.5-3.5v-21
		C29,2.57,27.43,1,25.5,1z"/>
</g>
<g>
	<linearGradient id="SVGID_2_" gradientUnits="userSpaceOnUse" x1="8.5263" y1="26.0052" x2="23.7143" y2="0.1857">
		<stop  offset="0" style="stop-color:#FAE100"/>
		<stop  offset="0.0544" style="stop-color:#FADC04"/>
		<stop  offset="0.1167" style="stop-color:#FBCE0E"/>
		<stop  offset="0.1829" style="stop-color:#FCB720"/>
		<stop  offset="0.2514" style="stop-color:#FE9838"/>
		<stop  offset="0.3054" style="stop-color:#FF7950"/>
		<stop  offset="0.4922" style="stop-color:#FF1C74"/>
		<stop  offset="1" style="stop-color:#6C1CD1"/>
	</linearGradient>
	<path class="st7" d="M25.5,1h-21C2.57,1,1,2.57,1,4.5v21C1,27.43,2.57,29,4.5,29h21c1.93,0,3.5-1.57,3.5-3.5v-21
		C29,2.57,27.43,1,25.5,1z"/>
</g>
<linearGradient id="SVGID_3_" gradientUnits="userSpaceOnUse" x1="11.5061" y1="11.724" x2="-39.3175" y2="40.3123" gradientTransform="matrix(1 0 0 -1 1.831055e-04 24.7587)">
	<stop  offset="0" style="stop-color:#A1B5D8;stop-opacity:0"/>
	<stop  offset="0.3094" style="stop-color:#90A2BD;stop-opacity:0.3098"/>
	<stop  offset="0.7554" style="stop-color:#7C8B9C;stop-opacity:0.7569"/>
	<stop  offset="1" style="stop-color:#748290"/>
</linearGradient>
<path class="st8" d="M27.85,6.45c-0.24-2.27-2.04-4.06-4.31-4.31c-5.69-0.61-11.4-0.61-17.1,0C4.18,2.39,2.39,4.18,2.15,6.45
	c-0.61,5.69-0.61,11.4,0,17.1c0.24,2.27,2.04,4.06,4.31,4.31c5.69,0.61,11.4,0.61,17.1,0c2.27-0.24,4.06-2.04,4.31-4.31
	C28.46,17.86,28.46,12.14,27.85,6.45z"/>
<linearGradient id="SVGID_4_" gradientUnits="userSpaceOnUse" x1="19.6043" y1="-2.3886" x2="15.7849" y2="15.6173" gradientTransform="matrix(1 0 0 -1 1.831055e-04 24.7587)">
	<stop  offset="0" style="stop-color:#833AB4;stop-opacity:0"/>
	<stop  offset="1" style="stop-color:#833AB4"/>
</linearGradient>
<path class="st9" d="M28.97,23.85c0,4.2-1.9,5.14-4.66,5.14c-3.58,0-8.13,0.03-11.75,0l-6.38-6.24c0.85,0.74,1.97,1.19,3.26,1.24
	c3.19,0.12,6.4,0.12,9.59,0c2.89-0.1,4.98-2.22,5.07-5.09c0.1-3.04,0.1-6.09,0-9.13c-0.04-1.32-0.51-2.48-1.28-3.36l6.18,6.1
	C29.02,16.12,28.97,20.21,28.97,23.85z"/>
<linearGradient id="SVGID_5_" gradientUnits="userSpaceOnUse" x1="21.9221" y1="2.8113" x2="6.7662" y2="17.9673" gradientTransform="matrix(1 0 0 -1 1.831055e-04 24.7587)">
	<stop  offset="0" style="stop-color:#833AB4;stop-opacity:0"/>
	<stop  offset="1" style="stop-color:#833AB4"/>
</linearGradient>
<path class="st10" d="M18.54,11.37c-1.1-1.2-2.93-1.68-4.75-1.3c-1.84,0.38-3.34,1.87-3.72,3.72c-0.38,1.82,0.02,3.62,1.22,4.72
	l10.73,10.51c0.17-0.02,1.9-0.03,3.63-0.04c1.81-0.01,3.28-1.47,3.31-3.28c0.03-1.78,0.04-3.45,0.06-3.63L18.54,11.37z"/>
<linearGradient id="SVGID_6_" gradientUnits="userSpaceOnUse" x1="22.9474" y1="12.2595" x2="18.3159" y2="16.891" gradientTransform="matrix(1 0 0 -1 1.831055e-04 24.7587)">
	<stop  offset="0" style="stop-color:#833AB4;stop-opacity:0"/>
	<stop  offset="1" style="stop-color:#833AB4"/>
</linearGradient>
<path class="st11" d="M29.02,16.86l-7.66-7.98c-0.21-0.27-0.54-0.43-0.91-0.45c-0.89-0.05-1.28,0.68-1.28,1.31
	c0,0.37,0.18,0.7,0.45,0.91l9.36,9.94C29.06,19.57,28.98,17.87,29.02,16.86z"/>
<g>
	<path class="st0" d="M5,11.14c0.07-0.47,0.12-0.94,0.2-1.4c0.48-2.63,2.34-4.42,5-4.51c3.21-0.11,6.42-0.12,9.63,0
		c2.9,0.1,5,2.25,5.09,5.15c0.1,3.08,0.1,6.17,0,9.25c-0.09,2.9-2.19,5.05-5.09,5.15c-3.21,0.12-6.43,0.12-9.63,0
		c-2.9-0.11-4.9-2.26-5.1-5.17c-0.02-0.25-0.07-0.5-0.11-0.75C5,16.28,5,13.71,5,11.14z M15,23.05c1.47,0,2.94,0.04,4.4-0.01
		c2.3-0.09,3.71-1.46,3.77-3.75c0.07-2.86,0.07-5.73,0-8.59c-0.05-2.3-1.47-3.7-3.77-3.75c-2.92-0.06-5.83-0.06-8.75,0
		C8.38,7,6.96,8.38,6.9,10.65c-0.08,2.9-0.08,5.8,0,8.7c0.06,2.27,1.48,3.61,3.76,3.7C12.1,23.1,13.55,23.05,15,23.05z"/>
	<path class="st0" d="M15,9.9c-2.81,0-5.1,2.28-5.1,5.1c0,2.81,2.28,5.1,5.1,5.1c2.81,0,5.1-2.28,5.1-5.1
		C20.1,12.19,17.81,9.9,15,9.9z M15,18.34c-1.85,0-3.34-1.5-3.34-3.34s1.5-3.34,3.34-3.34s3.34,1.5,3.34,3.34S16.85,18.34,15,18.34z
		"/>
	<path class="st0" d="M21.61,9.67c0,0.67-0.54,1.21-1.21,1.21s-1.21-0.54-1.21-1.21c0-0.67,0.54-1.21,1.21-1.21S21.61,9,21.61,9.67z
		"/>
</g>
</svg>
