<svg xmlns="http://www.w3.org/2000/svg" width="23" height="26" fill="none"><g stroke="#2E2E2E"><g stroke-width="2"><g stroke-miterlimit="10"><path d="M19.618 17.725c-1.152-.96-1.63-2.4-1.63-3.838v-2.783c0-3.167-2.303-6.046-5.374-6.43a6.29 6.29 0 0 0-7.101 6.237v2.975c0 1.44-.576 2.88-1.63 3.742-.48.384-1.056.672-1.63.864-.48.096-.48.864 0 .96 1.056.384 2.11.672 3.263.96 2.015.48 4.03.672 6.237.672s4.318-.192 6.237-.672l3.263-.96c.48-.192.48-.864 0-.96-.576-.096-1.152-.384-1.63-.768z"/><path d="M13.86 5.058V3.714a2.34 2.34 0 0 0-2.303-2.303c-1.248 0-2.1 1.152-2.1 2.4v1.343M8.4 21.66c.192 1.63 1.63 2.88 3.263 2.88s3.07-1.248 3.263-2.88"/></g></g></g></svg>