<?xml version="1.0" encoding="utf-8"?>
<!-- Generator: Adobe Illustrator 23.0.1, SVG Export Plug-In . SVG Version: 6.00 Build 0)  -->
<svg version="1.1" id="Layer_1" xmlns="http://www.w3.org/2000/svg" xmlns:xlink="http://www.w3.org/1999/xlink" x="0px" y="0px"
	 width="30px" height="30px" viewBox="0 0 30 30" style="enable-background:new 0 0 30 30;" xml:space="preserve">
<style type="text/css">
	.st0{fill:#FFFFFF;}
	.st1{fill:#0077B7;}
	.st2{fill:#2E963D;}
	.st3{fill:#1976D2;}
	.st4{fill:#FAFAFA;}
	.st5{fill:#DD4B39;}
	.st6{fill:url(#SVGID_1_);}
	.st7{fill:url(#SVGID_2_);}
	.st8{fill:url(#SVGID_3_);}
	.st9{fill:url(#SVGID_4_);}
	.st10{fill:url(#SVGID_5_);}
	.st11{fill:url(#SVGID_6_);}
	.st12{fill:#176FC1;}
	.st13{fill:#6E64C3;}
	.st14{fill:#FFDF55;}
	.st15{fill:#FFCE00;}
	.st16{fill:url(#SVGID_7_);}
	.st17{fill:#DE2126;}
	.st18{fill:#00ADF2;}
	.st19{fill:url(#SVGID_8_);}
	.st20{fill:#B0271E;}
	.st21{fill:#FEFEFE;}
	.st22{fill:#0037C1;}
	.st23{fill:#092D74;}
	.st24{fill:url(#SVGID_9_);}
	.st25{fill:#CB2027;}
	.st26{fill:#FEC526;}
	.st27{fill:#F1F2F2;}
	.st28{fill:url(#SVGID_10_);}
	.st29{fill:#FCA726;}
	.st30{fill:url(#SVGID_11_);}
	.st31{fill:#212121;}
	.st32{fill:url(#SVGID_12_);}
	.st33{fill:#FFFFFF;stroke:#006EA7;stroke-width:0.1;stroke-miterlimit:10;}
	.st34{fill:#DA193B;}
	.st35{fill:#41378C;}
	.st36{fill:#FA870A;}
	.st37{fill:#FFC305;}
	.st38{fill:#373C41;}
	.st39{fill:#F3F3F3;}
	.st40{fill:#FF3C3C;}
	.st41{fill:#7D3DAF;}
	.st42{fill:url(#SVGID_13_);}
	.st43{fill:#00C200;}
	.st44{fill:#00C500;}
	.st45{fill:#3B77F0;}
	.st46{fill:url(#SVGID_14_);}
	.st47{fill:#009DFF;}
	.st48{fill:#D2E5F1;}
	.st49{fill:#B5CFE4;}
	.st50{fill:#325078;}
	.st51{fill-rule:evenodd;clip-rule:evenodd;fill:#F2F2F2;}
	.st52{fill:url(#SVGID_15_);}
	.st53{fill:#50ABF1;}
	.st54{fill:#2F4F6E;}
	.st55{fill:#2DC100;}
	.st56{fill:#00BF22;}
	.st57{fill-rule:evenodd;clip-rule:evenodd;fill:#FFFFFF;}
	.st58{fill:url(#SVGID_16_);}
	.st59{fill:#00605E;}
	.st60{fill:#FF0000;}
</style>
<g>
	<linearGradient id="SVGID_1_" gradientUnits="userSpaceOnUse" x1="8.5263" y1="26.0052" x2="23.7143" y2="0.1857">
		<stop  offset="0" style="stop-color:#FAE100"/>
		<stop  offset="0.0544" style="stop-color:#FADC04"/>
		<stop  offset="0.1167" style="stop-color:#FBCE0E"/>
		<stop  offset="0.1829" style="stop-color:#FCB720"/>
		<stop  offset="0.2514" style="stop-color:#FE9838"/>
		<stop  offset="0.3054" style="stop-color:#FF7950"/>
		<stop  offset="0.4922" style="stop-color:#FF1C74"/>
		<stop  offset="1" style="stop-color:#6C1CD1"/>
	</linearGradient>
	<path class="st6" d="M25.5,1h-21C2.57,1,1,2.57,1,4.5v21C1,27.43,2.57,29,4.5,29h21c1.93,0,3.5-1.57,3.5-3.5v-21
		C29,2.57,27.43,1,25.5,1z"/>
</g>
<g>
	<path class="st53" d="M25.5,1h-21C2.57,1,1,2.57,1,4.5v21C1,27.43,2.57,29,4.5,29h21c1.93,0,3.5-1.57,3.5-3.5v-21
		C29,2.57,27.43,1,25.5,1z"/>
</g>
<g>
	<path class="st0" d="M5,21.31c1.81,1.15,3.96,1.81,6.26,1.81c6.47,0,11.71-5.24,11.71-11.71c0-0.16,0-0.32-0.01-0.48
		c0.23-0.18,1.68-1.34,2.04-2.09c0,0-1.18,0.49-2.33,0.6c0,0-0.01,0-0.01,0c0,0,0,0,0.01,0c0.11-0.07,1.59-1.08,1.79-2.28
		c0,0-0.83,0.44-1.99,0.83c-0.19,0.06-0.39,0.13-0.6,0.19c-0.75-0.8-1.82-1.3-3-1.3c-2.27,0-4.11,1.84-4.11,4.11
		c0,0.32,0.04,0.63,0.11,0.93c-0.32-0.01-5.15-0.28-8.43-4.26c0,0-1.96,2.68,1.17,5.44c0,0-0.95-0.04-1.77-0.53
		c0,0-0.3,3.25,3.25,4.08c0,0-0.7,0.26-1.81,0.08c0,0,0.62,2.62,3.78,2.87C11.03,19.59,8.54,21.84,5,21.31L5,21.31z M5,21.31"/>
</g>
</svg>
