<?xml version="1.0" encoding="utf-8"?>
<!-- Generator: Adobe Illustrator 23.0.1, SVG Export Plug-In . SVG Version: 6.00 Build 0)  -->
<svg version="1.1" id="Layer_1" xmlns="http://www.w3.org/2000/svg" xmlns:xlink="http://www.w3.org/1999/xlink" x="0px" y="0px"
	 width="30px" height="30px" viewBox="0 0 30 30" style="enable-background:new 0 0 30 30;" xml:space="preserve">
<style type="text/css">
	.st0{fill:#FFFFFF;}
	.st1{fill:#0077B7;}
	.st2{fill:#2E963D;}
	.st3{fill:#1976D2;}
	.st4{fill:#FAFAFA;}
	.st5{fill:#DD4B39;}
	.st6{fill:url(#SVGID_1_);}
	.st7{fill:url(#SVGID_2_);}
	.st8{fill:url(#SVGID_3_);}
	.st9{fill:url(#SVGID_4_);}
	.st10{fill:url(#SVGID_5_);}
	.st11{fill:url(#SVGID_6_);}
	.st12{fill:#176FC1;}
	.st13{fill:#6E64C3;}
	.st14{fill:#FFDF55;}
	.st15{fill:#FFCE00;}
	.st16{fill:url(#SVGID_7_);}
	.st17{fill:#DE2126;}
	.st18{fill:#00ADF2;}
	.st19{fill:url(#SVGID_8_);}
	.st20{fill:#B0271E;}
	.st21{fill:#FEFEFE;}
	.st22{fill:#0037C1;}
	.st23{fill:#092D74;}
	.st24{fill:url(#SVGID_9_);}
	.st25{fill:#CB2027;}
	.st26{fill:#FEC526;}
	.st27{fill:#F1F2F2;}
	.st28{fill:url(#SVGID_10_);}
	.st29{fill:#FCA726;}
	.st30{fill:url(#SVGID_11_);}
	.st31{fill:#212121;}
	.st32{fill:url(#SVGID_12_);}
	.st33{fill:#FFFFFF;stroke:#006EA7;stroke-width:0.1;stroke-miterlimit:10;}
	.st34{fill:#DA193B;}
	.st35{fill:#41378C;}
	.st36{fill:#FA870A;}
	.st37{fill:#FFC305;}
	.st38{fill:#373C41;}
	.st39{fill:#F3F3F3;}
	.st40{fill:#FF3C3C;}
	.st41{fill:#7D3DAF;}
	.st42{fill:url(#SVGID_13_);}
	.st43{fill:#00C200;}
	.st44{fill:#00C500;}
	.st45{fill:#3B77F0;}
	.st46{fill:url(#SVGID_14_);}
	.st47{fill:#009DFF;}
	.st48{fill:#D2E5F1;}
	.st49{fill:#B5CFE4;}
	.st50{fill:#325078;}
	.st51{fill-rule:evenodd;clip-rule:evenodd;fill:#F2F2F2;}
	.st52{fill:url(#SVGID_15_);}
	.st53{fill:#50ABF1;}
	.st54{fill:#2F4F6E;}
	.st55{fill:#2DC100;}
	.st56{fill:#00BF22;}
	.st57{fill-rule:evenodd;clip-rule:evenodd;fill:#FFFFFF;}
	.st58{fill:url(#SVGID_16_);}
	.st59{fill:#00605E;}
	.st60{fill:#FF0000;}
</style>
<path class="st41" d="M25,29H5c-2.21,0-4-1.79-4-4V5c0-2.21,1.79-4,4-4h20c2.21,0,4,1.79,4,4v20C29,27.21,27.21,29,25,29z"/>
<g>
	<path class="st0" d="M24.24,9.81l-0.01-0.02c-0.47-1.89-2.57-3.91-4.5-4.33l-0.02,0c-3.13-0.6-6.3-0.6-9.42,0l-0.02,0
		C8.34,5.87,6.23,7.9,5.76,9.79L5.76,9.81c-0.58,2.64-0.58,5.31,0,7.94l0.01,0.02c0.45,1.81,2.4,3.74,4.26,4.27v2.11
		c0,0.76,0.93,1.14,1.46,0.59l2.13-2.22c0.46,0.03,0.93,0.04,1.39,0.04c1.57,0,3.15-0.15,4.71-0.45l0.02,0
		c1.93-0.42,4.04-2.45,4.5-4.33l0.01-0.02C24.82,15.12,24.82,12.44,24.24,9.81L24.24,9.81z M22.55,17.37
		c-0.31,1.23-1.91,2.76-3.18,3.04c-1.66,0.32-3.34,0.45-5.01,0.4c-0.03,0-0.07,0.01-0.09,0.04c-0.24,0.24-1.56,1.6-1.56,1.6
		l-1.66,1.7c-0.12,0.13-0.33,0.04-0.33-0.13v-3.49c0-0.06-0.04-0.11-0.1-0.12l0,0c-1.27-0.28-2.87-1.81-3.18-3.04
		c-0.52-2.38-0.52-4.8,0-7.18c0.31-1.23,1.91-2.76,3.18-3.04c2.9-0.55,5.85-0.55,8.75,0c1.27,0.28,2.87,1.81,3.18,3.04
		C23.07,12.57,23.07,14.99,22.55,17.37L22.55,17.37z M22.55,17.37"/>
	<path class="st0" d="M17.76,18.98c-0.2-0.06-0.38-0.1-0.55-0.17c-1.79-0.74-3.44-1.7-4.74-3.17c-0.74-0.84-1.32-1.78-1.81-2.78
		c-0.23-0.47-0.43-0.96-0.63-1.45c-0.18-0.45,0.09-0.91,0.37-1.24c0.27-0.32,0.61-0.56,0.98-0.73c0.29-0.14,0.57-0.06,0.78,0.19
		c0.46,0.53,0.87,1.09,1.21,1.7c0.21,0.38,0.15,0.84-0.23,1.09c-0.09,0.06-0.18,0.14-0.26,0.21c-0.07,0.06-0.15,0.12-0.2,0.21
		c-0.09,0.15-0.1,0.33-0.04,0.5c0.47,1.28,1.25,2.28,2.54,2.81c0.21,0.09,0.41,0.19,0.65,0.16c0.4-0.05,0.53-0.48,0.81-0.71
		c0.27-0.22,0.62-0.23,0.91-0.04c0.29,0.19,0.58,0.39,0.86,0.59c0.28,0.2,0.55,0.39,0.81,0.62c0.25,0.22,0.33,0.5,0.19,0.8
		c-0.25,0.54-0.62,0.99-1.16,1.27C18.11,18.9,17.93,18.93,17.76,18.98C17.57,18.92,17.93,18.93,17.76,18.98L17.76,18.98z
		 M17.76,18.98"/>
	<path class="st0" d="M15,8.82c2.34,0.07,4.26,1.62,4.68,3.93c0.07,0.39,0.1,0.8,0.13,1.2c0.01,0.17-0.08,0.33-0.26,0.33
		c-0.19,0-0.27-0.15-0.28-0.32c-0.02-0.33-0.04-0.67-0.09-1c-0.24-1.74-1.63-3.19-3.37-3.5c-0.26-0.05-0.53-0.06-0.79-0.09
		c-0.17-0.02-0.39-0.03-0.42-0.24c-0.03-0.17,0.12-0.31,0.28-0.32C14.91,8.82,14.96,8.82,15,8.82C17.35,8.88,14.96,8.82,15,8.82
		L15,8.82z M15,8.82"/>
	<path class="st0" d="M18.56,13.43c0,0.03-0.01,0.1-0.02,0.16c-0.06,0.23-0.42,0.26-0.5,0.03c-0.02-0.07-0.03-0.15-0.03-0.23
		c0-0.5-0.11-0.99-0.36-1.42c-0.26-0.44-0.65-0.82-1.11-1.04c-0.28-0.14-0.58-0.22-0.89-0.27c-0.13-0.02-0.27-0.04-0.4-0.05
		c-0.16-0.02-0.25-0.13-0.24-0.29c0.01-0.15,0.12-0.26,0.28-0.25c0.54,0.03,1.06,0.15,1.53,0.4c0.97,0.51,1.53,1.33,1.69,2.41
		c0.01,0.05,0.02,0.1,0.02,0.15C18.55,13.15,18.55,13.27,18.56,13.43C18.56,13.46,18.55,13.27,18.56,13.43L18.56,13.43z
		 M18.56,13.43"/>
	<path class="st0" d="M17.11,13.38c-0.2,0-0.3-0.1-0.32-0.28c-0.01-0.13-0.03-0.25-0.06-0.37c-0.06-0.24-0.19-0.46-0.39-0.61
		c-0.1-0.07-0.2-0.12-0.32-0.15c-0.14-0.04-0.29-0.03-0.44-0.07c-0.16-0.04-0.24-0.16-0.22-0.31c0.02-0.13,0.15-0.24,0.3-0.23
		c0.91,0.07,1.56,0.53,1.65,1.6c0.01,0.08,0.01,0.16,0,0.23C17.29,13.31,17.2,13.37,17.11,13.38C16.91,13.38,17.2,13.37,17.11,13.38
		L17.11,13.38z M17.11,13.38"/>
</g>
</svg>
