<svg xmlns="http://www.w3.org/2000/svg" width="93" height="60" viewBox="0 0 92.869 60"><path d="M55.914 44.185c-.173.354-.6.5-.952.33l-2.56-1.247a.71.71 0 0 1-.328-.951l5.792-12.196a.71.71 0 0 1 .951-.328l2.562 1.247c.353.172.5.598.328.952l-5.792 12.194z" fill="#D0D2D3"/><path d="M55.272 45.25a1.37 1.37 0 0 1-.601-.139l-2.562-1.247a1.36 1.36 0 0 1-.635-1.84l5.8-12.2c.23-.476.718-.78 1.24-.78a1.37 1.37 0 0 1 .602.138l2.562 1.247a1.38 1.38 0 0 1 .635 1.84l-5.8 12.19a1.39 1.39 0 0 1-1.242.78zm3.232-14.863c-.018 0-.033.005-.042.023l-5.79 12.2c-.005.01-.012.023-.005.04s.02.024.023.026l2.58 1.252c.005 0 .03-.001.043-.026l5.8-12.188c.014-.03.004-.058-.02-.07l-2.562-1.247z" fill="#404041"/><path d="M87.39 44.185c.172.354.6.5.95.33l2.56-1.247a.71.71 0 0 0 .329-.951L85.44 30.12c-.173-.353-.598-.5-.952-.328l-2.56 1.247a.71.71 0 0 0-.328.952l5.792 12.194z" fill="#D0D2D3"/><g fill="#404041"><path d="M88.032 45.25c-.523 0-1-.304-1.238-.774L81 32.276c-.33-.68-.044-1.504.64-1.835l2.56-1.247a1.37 1.37 0 0 1 .602-.139 1.39 1.39 0 0 1 1.239.773l5.795 12.202c.158.325.18.7.06 1.047a1.37 1.37 0 0 1-.7.788l-2.56 1.246c-.192.092-.394.14-.604.14zm-3.234-14.865l-2.58 1.25c-.023.012-.032.04-.02.063l5.795 12.2c.01.02.035.02.04.02s.014-.002.02-.005l2.56-1.246c.005-.003.018-.01.024-.027s0-.03-.002-.035l-5.795-12.2c-.01-.02-.037-.02-.042-.02zm-.456 17.685l-.8-.624L71.87 38.28c-.053-.038-.178-.128-.458-.02a1.59 1.59 0 0 0-.887 1.034c-.287 1.438-1.918 4.3-4.384 4.366-1.563.046-2.32-.68-2.638-1.117-.446-.616-.58-1.436-.343-2.1.25-.688.537-1.604.537-2.6 0-1.498 1.006-2.94 3.164-4.545 1.937-1.436 4.17-2.26 6.132-2.26.953 0 2.323.32 3.774.66 1.354.316 2.753.645 3.58.645v1.862c-1.042 0-2.55-.353-4.005-.693l-3.35-.6c-1.57 0-3.4.7-5.022 1.893-1.577 1.17-2.4 2.226-2.4 3.05 0 1.274-.348 2.394-.65 3.226-.012.042-.01.217.113.375.18.23.553.347 1.06.333 1.275-.04 2.42-1.88 2.616-2.87.205-1.025 1.04-2.013 2.032-2.402.78-.306 1.592-.218 2.23.243.912.658 8.453 6.6 10.956 8.6l.88-1.3 1.546 1.038-2 2.98zm-24.074 5.245c-.62 0-1.2-.197-1.705-.57-1.244-.942-1.5-2.72-.55-3.964l1.607-2.193a2.81 2.81 0 0 1 2.267-1.135 2.8 2.8 0 0 1 1.704.572c1.245.94 1.5 2.72.55 3.963l-1.606 2.194a2.81 2.81 0 0 1-2.267 1.134zm1.618-6.002c-.307 0-.6.14-.772.385l-1.607 2.194c-.33.436-.245 1.044.18 1.366a.96.96 0 0 0 1.355-.189l1.605-2.194a.97.97 0 0 0-.18-1.368.97.97 0 0 0-.58-.195z"/><path d="M63.247 55.838a2.83 2.83 0 0 1-1.823-.667c-.578-.487-.932-1.17-.995-1.924a2.81 2.81 0 0 1 .635-2.037l1.38-1.87c.54-.64 1.327-1.005 2.163-1.005a2.83 2.83 0 0 1 1.824.668c1.183.998 1.34 2.768.36 3.96l-1.38 1.87c-.54.64-1.327 1.005-2.163 1.005zm.634-5.317l-1.373 1.864a.96.96 0 0 0-.225.705c.02.258.143.49.34.657a.96.96 0 0 0 .623.229c.277 0 .54-.118.724-.323l1.373-1.864a.97.97 0 0 0-.115-1.363.96.96 0 0 0-.623-.229c-.277-.001-.54.117-.724.324z"/><path d="M66.28 58.2a2.83 2.83 0 0 1-1.824-.668c-1.183-.998-1.34-2.768-.36-3.96l1.215-1.652c.54-.638 1.327-1.004 2.163-1.004.666 0 1.313.236 1.823.667a2.81 2.81 0 0 1 .995 1.924c.063.74-.163 1.463-.636 2.036l-1.213 1.652a2.83 2.83 0 0 1-2.164 1.005zm.47-5.098l-1.2 1.645a.97.97 0 0 0 .115 1.363.96.96 0 0 0 .623.229.97.97 0 0 0 .724-.324l1.208-1.645c.167-.197.247-.448.226-.706s-.143-.5-.34-.657a.96.96 0 0 0-.623-.228c-.277-.001-.54.117-.723.323z"/><path d="M69.642 59.5c-.62 0-1.223-.22-1.697-.62a2.64 2.64 0 0 1-.337-3.683l1.535-2.095 4.078 3.33-1.565 2.133a2.63 2.63 0 0 1-2.014.936zm-.157-3.715l-.432.585c-.273.324-.232.812.093 1.086a.76.76 0 0 0 .496.182.77.77 0 0 0 .573-.255l.46-.627-1.2-.97zm-2.213-22.548l.01 1.862-4.842.022-.01-1.862zM82.8 51.633a3.12 3.12 0 0 1-1.889-.637l-6.77-5.107 1.122-1.486 6.77 5.108a1.27 1.27 0 0 0 .951.247c.34-.048.64-.225.847-.5a1.27 1.27 0 0 0 .247-.951 1.27 1.27 0 0 0-.498-.848l1.122-1.486c.67.506 1.104 1.243 1.22 2.076s-.1 1.66-.604 2.33a3.13 3.13 0 0 1-2.076 1.221 3.34 3.34 0 0 1-.443.03z"/><path d="M80.15 54.66c-.63 0-1.24-.203-1.754-.59l-6.132-4.725 1.137-1.476 6.125 4.72c.22.165.496.237.776.198s.528-.185.698-.4a1.06 1.06 0 0 0-.207-1.482l1.12-1.486c1.285.97 1.542 2.805.572 4.09-.47.623-1.154 1.024-1.927 1.133a2.96 2.96 0 0 1-.409.028z"/><path d="M77.042 57.01a2.79 2.79 0 0 1-1.683-.563l-4.864-3.782 1.144-1.47 4.854 3.774c.4.303.99.22 1.3-.192.15-.198.215-.445.18-.692a.93.93 0 0 0-.363-.618l1.12-1.486a2.78 2.78 0 0 1 1.086 1.847c.104.74-.087 1.477-.537 2.072-.55.727-1.39 1.1-2.24 1.1z"/><path d="M73.158 57.975a2.43 2.43 0 0 1-1.47-.492l-.025-.02-2.876-2.332 1.174-1.446 2.86 2.32c.257.186.617.132.8-.122s.124-.682-.14-.88l1.12-1.486a2.53 2.53 0 0 1 .504 3.49c-.48.636-1.214.97-1.955.97zM58.9 43.166l2.373 3.025-1.466 1.15-2.373-3.025z"/></g><g fill="#EC1C24"><path d="M25.07 5.276h-.798v-2.5A2.28 2.28 0 0 1 26.548.5h7.8l3.06 3.3h-10.87a1.48 1.48 0 0 0-1.477 1.477zm1.477-3.978a1.48 1.48 0 0 0-1.477 1.477v.772c.397-.34.914-.546 1.477-.546h9.04l-1.58-1.704h-7.46zm18.07 20.906h-18.07a2.28 2.28 0 0 1-2.275-2.274h.798a1.48 1.48 0 0 0 1.477 1.477h18.07v.797z"/><path d="M51.695 11.9h-.798V5.276a1.48 1.48 0 0 0-1.477-1.477h-22.872a1.48 1.48 0 0 0-1.477 1.477v4.297h-.798V5.276a2.28 2.28 0 0 1 2.275-2.275h22.872a2.28 2.28 0 0 1 2.274 2.275V11.9z"/></g><path d="M56.2 18.95a5.13 5.13 0 0 1-5.128 5.126c-2.83 0-5.126-2.295-5.126-5.126s2.295-5.126 5.126-5.126a5.13 5.13 0 0 1 5.128 5.126" fill="#D0D2D3"/><path d="M51.083 24.477c-3.047 0-5.525-2.48-5.525-5.525s2.48-5.525 5.525-5.525 5.526 2.48 5.526 5.525-2.48 5.525-5.526 5.525zm0-10.253c-2.606 0-4.728 2.12-4.728 4.728s2.12 4.727 4.728 4.727 4.73-2.12 4.73-4.727-2.122-4.728-4.73-4.728z" fill="#404041"/><path d="M51.82 18.7a1.6 1.6 0 0 1-.736.18 1.59 1.59 0 0 1-.738-.18 2.73 2.73 0 0 0-1.988 2.625H53.8a2.73 2.73 0 0 0-1.99-2.625m.556-1.448a1.28 1.28 0 1 1-2.565 0c0-.708.574-1.283 1.283-1.283a1.28 1.28 0 0 1 1.282 1.283" fill="#EC1C24"/><path d="M26.308 12.464h-9.945a.72.72 0 1 1 0-1.441h9.945a.72.72 0 1 1 0 1.441m0 3.244H1.62a.72.72 0 1 1 0-1.441h24.688a.72.72 0 1 1 0 1.441m0 3.242H9.404a.72.72 0 1 1 0-1.442h16.903a.72.72 0 0 1 .001 1.442" fill="#404041"/><g fill="#EC1C24"><path d="M72.47 17.137c-3.07-5.155-8.204-8.703-14.086-9.733l.32-1.834c6.417 1.124 12.018 4.993 15.364 10.615l-1.6.952z"/><path d="M75.348 14.724l-.357 5.558-4.636-3.088zM50.93 49.678c-6.417-1.123-12.017-4.992-15.364-10.614l1.6-.952c3.07 5.155 8.204 8.703 14.086 9.732l-.322 1.834z"/><path d="M34.3 40.524l.357-5.558 4.636 3.088z"/></g></svg>