<svg xmlns="http://www.w3.org/2000/svg" width="154" height="45" viewBox="0 0 153.5 45"><g fill="#3B3A3C"><path d="M67.617 5.652h1.107V39.35h-1.107zm7.84 6.878c0-1.344.2-2.466.602-3.37a6.07 6.07 0 0 1 1.223-1.805c.515-.533 1.083-.923 1.698-1.183.817-.35 1.764-.522 2.828-.522 1.938 0 3.486.605 4.647 1.804s1.745 2.868 1.745 5c0 2.12-.576 3.78-1.726 4.975-1.157 1.2-2.697 1.798-4.625 1.798-1.954 0-3.513-.595-4.664-1.786s-1.728-2.84-1.728-4.923m2.735-.1c0 1.482.34 2.613 1.027 3.382s1.565 1.15 2.62 1.15 1.927-.38 2.604-1.143 1.015-1.906 1.015-3.425c0-1.507-.327-2.63-1-3.372-.656-.74-1.534-1.1-2.63-1.1s-1.975.374-2.643 1.127c-.67.744-1.003 1.882-1.003 3.393m10.97-2.934h1.396v-.714c0-.8.1-1.398.257-1.8s.484-.718.942-.965 1.034-.375 1.738-.375a6.86 6.86 0 0 1 2.102.329l-.338 1.753c-.404-.096-.787-.147-1.162-.147-.36 0-.623.1-.78.257s-.235.5-.235.984v.668h1.88v1.983h-1.88v7.54H90.55v-7.54h-1.396V9.496zm6.1 0h1.404v-.714c0-.8.084-1.398.257-1.8s.484-.718.937-.965c.46-.248 1.038-.375 1.74-.375.714 0 1.415.1 2.104.33l-.342 1.753a4.93 4.93 0 0 0-1.15-.147c-.37 0-.632.1-.8.257-.152.17-.235.5-.235.984v.668h1.88v1.983h-1.88V19H96.66v-7.54h-1.404V9.496zm6.572 5.244l2.585-.25c.15.87.47 1.5.944 1.907s1.116.6 1.925.6c.85 0 1.496-.18 1.928-.54s.65-.786.65-1.266c0-.316-.087-.578-.27-.796s-.497-.4-.954-.573c-.3-.107-1.018-.3-2.125-.57-1.424-.355-2.42-.788-2.995-1.3-.802-.723-1.208-1.604-1.208-2.644a3.36 3.36 0 0 1 .569-1.876c.377-.584.926-1.026 1.646-1.333.706-.3 1.567-.458 2.58-.458 1.647 0 2.9.362 3.727 1.088s1.266 1.688 1.312 2.9l-2.66.117c-.1-.67-.352-1.158-.73-1.456-.37-.294-.935-.443-1.678-.443-.77 0-1.37.16-1.808.478-.283.203-.424.478-.424.813 0 .3.134.575.396.8.334.28 1.144.572 2.433.875s2.25.62 2.87.946a3.75 3.75 0 0 1 1.45 1.336c.352.562.522 1.265.522 2.092a3.88 3.88 0 0 1-.626 2.116c-.418.66-1.005 1.143-1.778 1.463-.76.323-1.712.482-2.855.482-1.66 0-2.936-.386-3.833-1.15-.888-.766-1.418-1.887-1.594-3.356m15.4-8.872v4.827c.8-.95 1.784-1.42 2.9-1.42.578 0 1.104.105 1.57.324s.82.5 1.054.82a3.05 3.05 0 0 1 .484 1.1c.083.4.13 1.04.13 1.9v5.587h-2.517V14c0-1-.05-1.634-.152-1.906-.088-.266-.26-.478-.5-.637s-.547-.236-.9-.236a2.06 2.06 0 0 0-1.12.306c-.33.2-.57.5-.72.917s-.23 1.014-.23 1.814v4.77h-2.52V5.88h2.52zm8.12 8.254c0-.84.205-1.648.618-2.43a4.24 4.24 0 0 1 1.756-1.792 5.21 5.21 0 0 1 2.53-.617c1.438 0 2.624.462 3.54 1.403s1.38 2.116 1.38 3.54c0 1.44-.463 2.638-1.392 3.583s-2.1 1.42-3.5 1.42a5.56 5.56 0 0 1-2.499-.59c-.783-.394-1.4-.976-1.804-1.73-.412-.768-.617-1.697-.617-2.787m2.583.132c0 .947.22 1.666.676 2.17.446.5.995.75 1.653.75s1.208-.25 1.652-.75.67-1.227.67-2.185c0-.936-.224-1.654-.67-2.158a2.14 2.14 0 0 0-1.652-.75c-.652 0-1.207.253-1.653.75-.456.505-.676 1.23-.676 2.173m11.623 4.762h-2.52V9.496h2.338v1.356c.402-.643.762-1.062 1.084-1.266s.685-.3 1.1-.3c.57 0 1.122.158 1.655.47l-.777 2.2c-.428-.28-.82-.415-1.184-.415-.354 0-.65.097-.897.293s-.435.545-.577 1.055c-.144.504-.2 1.57-.2 3.2v2.942zM149.804 16l2.512.42c-.327.917-.832 1.62-1.525 2.104-.697.475-1.567.716-2.616.716-1.654 0-2.88-.54-3.674-1.62-.626-.865-.943-1.96-.943-3.277 0-1.58.415-2.815 1.242-3.705.82-.896 1.864-1.342 3.123-1.342 1.418 0 2.535.462 3.354 1.403.815.936 1.214 2.366 1.173 4.297h-6.3c.02.747.218 1.33.612 1.74.386.417.872.623 1.45.623.396 0 .726-.104.993-.32s.47-.562.608-1.04m.147-2.547c-.02-.73-.207-1.287-.566-1.664-.357-.383-.794-.57-1.308-.57-.56 0-1.006.198-1.365.6s-.53.943-.526 1.632h3.765zm-67.948 22.78c-.407.208-1.226.415-2.28.415-2.435 0-4.263-1.543-4.263-4.37 0-2.706 1.83-4.535 4.504-4.535 1.08 0 1.758.23 2.053.383l-.266.9c-.428-.202-1.027-.355-1.745-.355-2.023 0-3.366 1.3-3.366 3.554 0 2.114 1.216 3.47 3.313 3.47.68 0 1.37-.138 1.82-.354l.23.88zm6.816-2.867c0 2.295-1.587 3.295-3.085 3.295-1.678 0-2.972-1.23-2.972-3.188 0-2.08 1.357-3.296 3.073-3.296 1.782.001 2.984 1.294 2.984 3.2m-4.92.066c0 1.356.787 2.38 1.887 2.38 1.072 0 1.88-1.012 1.88-2.406 0-1.048-.524-2.383-1.854-2.383-1.336-.001-1.914 1.232-1.914 2.4m6.345-1.435l-.052-1.68h.988l.05 1h.037c.346-.6.925-1.14 1.948-1.14.844 0 1.485.5 1.755 1.244H95c.196-.344.44-.617.693-.8.37-.282.786-.436 1.372-.436.818 0 2.04.538 2.04 2.7v3.65H98v-3.5c0-1.193-.437-1.9-1.346-1.9-.64 0-1.14.473-1.336 1.024a1.89 1.89 0 0 0-.086.563v3.83H94.13V32.8c0-.987-.44-1.703-1.295-1.703-.7 0-1.217.563-1.396 1.123a1.64 1.64 0 0 0-.083.555v3.74H90.25v-4.517zm10.678.344l-.048-2.024h1l.05 1.063h.027c.462-.758 1.195-1.203 2.206-1.203 1.497 0 2.622 1.27 2.622 3.15 0 2.227-1.355 3.333-2.818 3.333-.814 0-1.536-.362-1.906-.974h-.028v3.368h-1.115v-6.713zm1.115 1.654l.058.46a1.72 1.72 0 0 0 1.688 1.317c1.2 0 1.883-.974 1.883-2.396 0-1.244-.658-2.3-1.844-2.3-.77 0-1.483.548-1.702 1.392l-.082.46v1.067zm9.6 2.524l-.1-.783h-.033c-.35.492-1.02.925-1.898.925-1.257 0-1.896-.888-1.896-1.78 0-1.502 1.335-2.322 3.726-2.305v-.13c0-.515-.14-1.433-1.4-1.433a3.09 3.09 0 0 0-1.612.459l-.256-.742c.516-.332 1.26-.55 2.04-.55 1.893 0 2.355 1.293 2.355 2.532v2.328c0 .532.02 1.058.103 1.48h-1.027zm-.168-3.167c-1.228-.024-2.624.193-2.624 1.4 0 .728.487 1.074 1.063 1.074.808 0 1.32-.514 1.496-1.04l.064-.363v-1.072zm2.9-1.355l-.052-1.68h1l.06 1.024h.025c.3-.6 1.03-1.165 2.052-1.165.854 0 2.188.5 2.188 2.64v3.703h-1.126v-3.572c0-1-.37-1.834-1.435-1.834-.74 0-1.318.525-1.5 1.15a1.62 1.62 0 0 0-.079.527v3.73h-1.125V32zm7.352-1.68l1.354 3.666.4 1.263h.02l.398-1.3 1.23-3.64h1.2l-1.692 4.42c-.805 2.122-1.357 3.213-2.127 3.88-.55.485-1.103.674-1.38.73l-.28-.948a3.16 3.16 0 0 0 .982-.553 3.46 3.46 0 0 0 .95-1.253l.084-.27-.074-.297-2.293-5.7h1.236zm11.71 5.915c-.407.208-1.23.415-2.276.415-2.438 0-4.27-1.543-4.27-4.37 0-2.706 1.83-4.535 4.5-4.535 1.072 0 1.752.23 2.048.383l-.27.9c-.42-.202-1.023-.355-1.742-.355-2.02 0-3.366 1.3-3.366 3.554 0 2.114 1.217 3.47 3.318 3.47.675 0 1.37-.138 1.816-.354l.232.88zm6.83-2.868c0 2.295-1.593 3.295-3.088 3.295-1.677 0-2.975-1.23-2.975-3.188 0-2.08 1.357-3.296 3.07-3.296 1.787.001 2.992 1.294 2.992 3.2m-4.92.066c0 1.356.783 2.38 1.884 2.38 1.072 0 1.885-1.012 1.885-2.406 0-1.048-.526-2.383-1.864-2.383-1.33-.001-1.905 1.232-1.905 2.4m6.34-1.183l-.048-1.934h.983l.04 1.22h.05c.278-.835.96-1.36 1.716-1.36l.32.038v1.063l-.382-.037c-.802 0-1.36.603-1.514 1.446a3.17 3.17 0 0 0-.054.525v3.306h-1.113V32.25zm4.242.092l-.053-2.024h1.013l.05 1.063h.025c.46-.758 1.195-1.203 2.2-1.203 1.502 0 2.63 1.27 2.63 3.15 0 2.227-1.354 3.333-2.815 3.333-.818 0-1.537-.362-1.9-.974h-.026v3.368h-1.112v-6.713zm1.112 1.654l.054.46c.2.783.88 1.317 1.688 1.317 1.193 0 1.882-.974 1.882-2.396 0-1.244-.65-2.3-1.84-2.3-.77 0-1.486.548-1.707 1.392l-.076.46v1.067z"/></g><g fill="#CC1F26"><path d="M60.24 17.074l-.165-.647c-.06 8.036-8.542 16.003-20.305 18.52-12.964 2.776-25.002-2.113-26.888-10.92S19.98 5.83 32.94 3.054a35.41 35.41 0 0 1 4.627-.674c-3.577-.2-7.374.093-11.236.92C9.984 6.8-1.342 18.643 1.037 29.75s17.56 17.27 33.907 13.77S62.617 28.176 60.24 17.074zm-35.797 5.58l.002-.001zm30.683-3.25l-11.2.976 11.083-2.514c-.183-1.886-.552-3.78-1.122-5.646l-11.108 3.7 10.615-5.167-.532-1.357c-.56-1.315-1.205-2.542-1.915-3.682L40.915 11.83l9.234-7.334C49.07 2.973 47.86 1.634 46.56.5L35.04 9.688a11.48 11.48 0 0 1 1.87 3.153 12.56 12.56 0 0 1 .402 1.182l.147.55c.244 1 .365 2 .37 3l-.02.77c-.05.9-.196 1.777-.432 2.607l-.33 1a9.41 9.41 0 0 1-.832 1.665H55a27.8 27.8 0 0 0 .132-4.202zm-6.64 6.195l.032-.06H28.3l2.226 4.045H46.3z"/></g></svg>