<?xml version="1.0" encoding="utf-8"?>
<!-- Generator: Adobe Illustrator 23.0.1, SVG Export Plug-In . SVG Version: 6.00 Build 0)  -->
<svg version="1.1" id="Layer_1" xmlns="http://www.w3.org/2000/svg" xmlns:xlink="http://www.w3.org/1999/xlink" x="0px" y="0px"
	 width="30px" height="30px" viewBox="0 0 30 30" style="enable-background:new 0 0 30 30;" xml:space="preserve">
<style type="text/css">
	.st0{fill:#FFFFFF;}
	.st1{fill:#0077B7;}
	.st2{fill:#2E963D;}
	.st3{fill:#1976D2;}
	.st4{fill:#FAFAFA;}
	.st5{fill:#DD4B39;}
	.st6{fill:url(#SVGID_1_);}
	.st7{fill:url(#SVGID_2_);}
	.st8{fill:url(#SVGID_3_);}
	.st9{fill:url(#SVGID_4_);}
	.st10{fill:url(#SVGID_5_);}
	.st11{fill:url(#SVGID_6_);}
	.st12{fill:#176FC1;}
	.st13{fill:#6E64C3;}
	.st14{fill:#FFDF55;}
	.st15{fill:#FFCE00;}
	.st16{fill:url(#SVGID_7_);}
	.st17{fill:#DE2126;}
	.st18{fill:#00ADF2;}
	.st19{fill:url(#SVGID_8_);}
	.st20{fill:#B0271E;}
	.st21{fill:#FEFEFE;}
	.st22{fill:#0037C1;}
	.st23{fill:#092D74;}
	.st24{fill:url(#SVGID_9_);}
	.st25{fill:#CB2027;}
	.st26{fill:#FEC526;}
	.st27{fill:#F1F2F2;}
	.st28{fill:url(#SVGID_10_);}
	.st29{fill:#FCA726;}
	.st30{fill:url(#SVGID_11_);}
	.st31{fill:#212121;}
	.st32{fill:url(#SVGID_12_);}
	.st33{fill:#FFFFFF;stroke:#006EA7;stroke-width:0.1;stroke-miterlimit:10;}
	.st34{fill:#DA193B;}
	.st35{fill:#41378C;}
	.st36{fill:#FA870A;}
	.st37{fill:#FFC305;}
	.st38{fill:#373C41;}
	.st39{fill:#F3F3F3;}
	.st40{fill:#FF3C3C;}
	.st41{fill:#7D3DAF;}
	.st42{fill:url(#SVGID_13_);}
	.st43{fill:#00C200;}
	.st44{fill:#00C500;}
	.st45{fill:#3B77F0;}
	.st46{fill:url(#SVGID_14_);}
	.st47{fill:#009DFF;}
	.st48{fill:#D2E5F1;}
	.st49{fill:#B5CFE4;}
	.st50{fill:#325078;}
	.st51{fill-rule:evenodd;clip-rule:evenodd;fill:#F2F2F2;}
	.st52{fill:url(#SVGID_15_);}
	.st53{fill:#50ABF1;}
	.st54{fill:#2F4F6E;}
	.st55{fill:#2DC100;}
	.st56{fill:#00BF22;}
	.st57{fill-rule:evenodd;clip-rule:evenodd;fill:#FFFFFF;}
	.st58{fill:url(#SVGID_16_);}
	.st59{fill:#00605E;}
	.st60{fill:#FF0000;}
</style>
<g>
	<path class="st56" d="M25.5,1h-21C2.57,1,1,2.57,1,4.5v21C1,27.43,2.57,29,4.5,29h21c1.93,0,3.5-1.57,3.5-3.5v-21
		C29,2.57,27.43,1,25.5,1z"/>
</g>
<g>
	<g>
		<g>
			<path class="st57" d="M19.78,16.97c-0.25-0.13-1.46-0.79-1.68-0.88c-0.23-0.09-0.39-0.14-0.57,0.1
				c-0.18,0.24-0.68,0.79-0.83,0.95c-0.15,0.16-0.3,0.18-0.55,0.04c-0.25-0.13-1.04-0.43-1.97-1.32c-0.72-0.69-1.19-1.53-1.33-1.79
				c-0.14-0.26,0-0.39,0.13-0.51c0.12-0.11,0.26-0.28,0.39-0.43c0.13-0.14,0.18-0.24,0.27-0.41c0.09-0.16,0.05-0.31,0-0.44
				c-0.06-0.13-0.51-1.38-0.7-1.89c-0.19-0.51-0.4-0.43-0.55-0.44c-0.15,0-0.31-0.03-0.48-0.04c-0.17-0.01-0.44,0.05-0.68,0.29
				c-0.24,0.24-0.91,0.82-0.96,2.06c-0.05,1.23,0.81,2.46,0.93,2.63c0.12,0.17,1.63,2.85,4.14,3.94c2.51,1.1,2.52,0.76,2.98,0.74
				c0.46-0.02,1.51-0.55,1.74-1.13c0.23-0.58,0.25-1.08,0.19-1.19C20.2,17.18,20.03,17.11,19.78,16.97L19.78,16.97z M15.18,22.91
				c-1.66,0-3.21-0.5-4.5-1.35l-3.14,1.01l1.02-3.04c-0.98-1.35-1.56-3-1.56-4.79c0-4.51,3.67-8.17,8.17-8.17
				c4.51,0,8.17,3.67,8.17,8.17C23.35,19.25,19.69,22.91,15.18,22.91L15.18,22.91z M15.18,4.92c-5.42,0-9.82,4.4-9.82,9.82
				c0,1.86,0.52,3.59,1.41,5.07L5,25.08l5.44-1.74c1.41,0.78,3.02,1.22,4.75,1.22c5.42,0,9.82-4.4,9.82-9.82
				C25,9.32,20.6,4.92,15.18,4.92L15.18,4.92z"/>
		</g>
	</g>
</g>
</svg>
