<svg xmlns="http://www.w3.org/2000/svg" width="80" height="80"><g fill="#404041"><path d="M26.735 41.875h-1.117v-4.287h5.023v1.117h-3.906zM33.292 6.46h1.117v2.753h-1.117zm3.575 0h1.117v2.753h-1.117zm3.573 0h1.117v2.753H40.44zm-7.148 5.34h1.117v2.75h-1.117zm3.575 0h1.117v2.75h-1.117zm3.573 0h1.117v2.75H40.44zm0 5.34h1.117v2.75H40.44zm0 5.34h1.117v2.8H40.44zm-15.16-.737h1.117v13.2H25.28zm3.794 0h1.117v13.2h-1.117zm3.796 0h1.117v6.604H32.87zm22.962 20.132h-1.117v-3.17H49.36v-1.117h6.47zm-11.744-25.04H55.7v1.117H44.088zm0-4.37H55.7v1.117H44.088zm5.574 21.848h6.027v1.117h-6.027zm-6.03-8.74H55.7V26.7H43.633zm.455-4.37H55.7v1.117H44.088zm4.142 8.74h7.46v1.116h-7.46zm-26.793 11.8h-1.564V19.18a2.4 2.4 0 0 1 2.394-2.394H36.52a2.4 2.4 0 0 1 2.394 2.394v7.734H37.35V19.18a.83.83 0 0 0-.83-.829h-14.253a.83.83 0 0 0-.83.829v22.565z"/><path d="M27.46 17.344h-1.564V2.894A2.4 2.4 0 0 1 28.29.5h23.1a2.4 2.4 0 0 1 2.395 2.394v5.75h-1.564v-5.75a.83.83 0 0 0-.83-.829H28.3a.83.83 0 0 0-.83.829v14.45z"/><path d="M60.676 41.818h-1.564V10.33a.83.83 0 0 0-.83-.83H45.244a.83.83 0 0 0-.83.83v16.546H42.85V10.33c0-1.32 1.072-2.394 2.393-2.394H58.28a2.4 2.4 0 0 1 2.395 2.394v31.488z"/><path d="M47.832 41.093h13.852v1.563H47.832z"/></g><path d="M29.632,41.875" fill="none" stroke="#404041" stroke-width="5" stroke-miterlimit="10"/><path d="M18.317 41.093h13.85v1.563h-13.85zM40.04 55.556c-4.497 0-8.83-.996-12.534-2.882l-.63-.32.458-.54a16.66 16.66 0 0 1 7.76-5.128l.332 1.067a15.54 15.54 0 0 0-6.76 4.245c3.4 1.6 7.315 2.44 11.374 2.44s7.97-.843 11.372-2.44a15.55 15.55 0 0 0-6.824-4.266l.328-1.068c3.05.933 5.756 2.714 7.828 5.15l.46.54-.63.32c-3.705 1.887-8.04 2.883-12.533 2.883z" fill="#404041"/><path d="M44.752,47.198" fill="none" stroke="#404041" stroke-width="5" stroke-miterlimit="10"/><g fill="#404041"><path d="M40.04 79.277c-4.953 0-9.617-2.183-12.797-5.988l-.447-.535.62-.32c3.722-1.918 8.088-2.932 12.624-2.932s8.897 1.014 12.622 2.932l.62.32-.447.535c-3.18 3.806-7.843 5.988-12.794 5.988zM28.57 73.11c2.946 3.22 7.087 5.05 11.47 5.05a15.51 15.51 0 0 0 11.467-5.051c-3.422-1.63-7.37-2.49-11.467-2.49s-8.05.86-11.47 2.49z"/><path d="M40.04 79.277c-4.58 0-8.166-7.324-8.166-16.673 0-5.883 1.517-11.378 3.958-14.342l.862.71c-2.285 2.772-3.704 7.995-3.704 13.63 0 8.432 3.228 15.556 7.05 15.556s7.047-7.124 7.047-15.556c0-5.675-1.436-10.916-3.742-13.68l.855-.716c2.47 2.953 4.004 8.47 4.004 14.395.001 9.35-3.585 16.673-8.163 16.673z"/><path d="M40.04 79.5c-9.317 0-16.896-7.58-16.896-16.896 0-7.447 4.775-13.933 11.882-16.138l.464 1.493c-6.45 2-10.782 7.887-10.782 14.645 0 8.454 6.878 15.332 15.333 15.332s15.33-6.878 15.33-15.332a15.24 15.24 0 0 0-10.844-14.662l.457-1.496c3.387 1.035 6.43 3.172 8.568 6.018a16.74 16.74 0 0 1 3.383 10.141C56.936 71.92 49.355 79.5 40.04 79.5z"/><path d="M39.482 51.115H40.6V78.72h-1.117z"/><path d="M23.926 62.046H56.23v1.117H23.926z"/></g><path d="M47.434 35.336c0-4.004-3.166-7.268-7.13-7.426v.006L40 27.908a7.56 7.56 0 0 0-.302.008v-.006c-3.965.158-7.13 3.422-7.13 7.426 0 .035.001.064.002.093l.003.108c.03 1.145.317 2.226.81 3.186 1.76 4.552 5.82 10.454 6.62 10.454s4.86-5.902 6.62-10.454a7.42 7.42 0 0 0 .811-3.186c0-.037.002-.072.002-.108 0-.03.002-.058.002-.087zM40 39.87a4.53 4.53 0 0 1-4.527-4.527A4.53 4.53 0 0 1 40 30.815a4.53 4.53 0 0 1 4.527 4.527A4.53 4.53 0 0 1 40 39.869z" fill="#EC1C24"/></svg>