<svg xmlns="http://www.w3.org/2000/svg" width="93" height="80" viewBox="0 0 92.5 80"><g fill="#404041"><path d="M84.345 79.5H74.16c-2.617 0-4.746-2.13-4.746-4.746V43.256c0-2.616 2.13-4.745 4.746-4.745h10.186c2.616 0 4.745 2.13 4.745 4.745v31.498c0 2.617-2.13 4.746-4.745 4.746zM74.16 41.42a1.84 1.84 0 0 0-1.837 1.836v31.498a1.84 1.84 0 0 0 1.837 1.837h10.186a1.84 1.84 0 0 0 1.836-1.837V43.256a1.84 1.84 0 0 0-1.836-1.836H74.16zm5.72 31.572h-1.45c-.65 0-1.176-.526-1.176-1.176s.526-1.175 1.176-1.175h1.45a2.12 2.12 0 0 0 2.115-2.116v-5.132c0-.648.526-1.175 1.175-1.175s1.176.526 1.176 1.175v5.132c0 2.463-2.004 4.467-4.466 4.467z"/><path d="M34.17 79c-4.537 0-6.836-.57-8.865-1.96-2.22-1.518-15.333-13.57-19.5-19.263-2.62-3.568-3.085-6.906-1.387-9.92.928-1.647 2.24-2.15 3.178-2.283 3.013-.427 5.93 2.268 6.483 2.813.063.062.298.302.667.682 7.158 7.344 12.05 12.096 14.54 14.124 1.36 1.1 2.924 1.733 4.78 1.906l16.9-.195.033 2.9-17.106.2c-2.486-.216-4.6-1.052-6.435-2.555-2.576-2.1-7.55-6.927-14.786-14.35l-.624-.638c-1.1-1.092-2.9-2.17-4.037-2.007-.294.042-.68.174-1.05.832-1.117 1.98-.736 4.133 1.2 6.77 3.928 5.355 16.726 17.16 18.806 18.583 1.806 1.235 4.12 1.74 12.378 1.276 8.027-.452 30.767-9.112 30.996-9.2l1.038 2.718c-.95.363-23.396 8.9-31.87 9.386-2.065.117-3.814.18-5.318.18zM22.6 52.498l-6.5-6.606c-1.1-1.1-2.902-2.17-4.035-2.004-.295.04-.68.174-1.05.83L8.46 43.3c.928-1.646 2.24-2.15 3.178-2.283 3.012-.426 5.93 2.268 6.483 2.812l.63.646 5.893 5.975-2.054 2.058zm3.9-4.332l-5.625-5.718c-1.112-1.093-2.903-2.17-4.037-2.008-.295.042-.68.174-1.052.832l-2.535-1.428c.928-1.648 2.24-2.152 3.18-2.284 3-.43 5.93 2.268 6.482 2.812l.687.702 4.96 5.04-2.058 2.053zm.43 8.354l-1.86-2.235c.247-.205 6.103-5.038 11.04-5.038.353 0 .98.042 1.846.1 6.18.412 9.74.313 10.583-.295l.68-.502c2.364-1.762 6.322-4.7 11.454-4.7 7.545 0 11.146 4.376 11.294 4.563l-2.27 1.82 1.135-.9-1.128.918c-.118-.142-2.944-3.48-9.032-3.48-4.167 0-7.507 2.487-9.716 4.134l-.716.527c-1.765 1.275-6.084 1.267-12.48.84l-1.652-.094c-3.22-.002-7.717 3.15-9.178 4.363z"/></g><path d="M45.648 31.346c-8.504 0-15.423-6.92-15.423-15.423S37.144.5 45.648.5 61.07 7.42 61.07 15.923s-6.92 15.423-15.423 15.423zm0-28.768c-7.358 0-13.345 5.986-13.345 13.345s5.986 13.345 13.345 13.345 13.345-5.986 13.345-13.345S53.007 2.578 45.648 2.578z" fill="#EC1C24"/><path d="M59.822 34.395a7.85 7.85 0 0 1-7.837-7.839 7.85 7.85 0 0 1 7.837-7.838 7.85 7.85 0 0 1 7.839 7.838 7.85 7.85 0 0 1-7.839 7.839z" fill="#D0D2D3"/><path d="M59.822 35.018c-4.665 0-8.46-3.796-8.46-8.462s3.796-8.46 8.46-8.46 8.462 3.795 8.462 8.46-3.796 8.462-8.462 8.462zm0-15.677c-3.978 0-7.214 3.236-7.214 7.215s3.236 7.215 7.214 7.215 7.215-3.236 7.215-7.215-3.236-7.215-7.215-7.215z" fill="#404041"/><g fill="#EC1C24"><path d="M59.822 31.54c-.344 0-.623-.28-.623-.623V22.196c0-.345.28-.624.623-.624s.623.28.623.624l-.001 8.72c0 .344-.278.623-.623.623z"/><path d="M55.463 27.18c-.345 0-.624-.28-.624-.623s.28-.624.624-.624h8.72c.344 0 .623.28.623.623s-.28.624-.623.624h-8.72zm-3.72-10.718c-.304.786-.717 1.414-1.24 1.883a5.12 5.12 0 0 1-2.142 1.117c-.613.16-1.424.238-2.43.238H44.2v4.914h-3.838V8.93h5.13l1.25.03a10.86 10.86 0 0 1 1.283.146c.952.165 1.718.5 2.297.972 1.228 1.042 1.842 2.425 1.842 4.148a6.26 6.26 0 0 1-.414 2.234zM47.5 12.76c-.4-.207-1.007-.3-1.82-.3H44.2v3.734h1.624c.772 0 1.355-.117 1.748-.352.504-.297.756-.807.756-1.53-.001-.736-.277-1.25-.83-1.54z"/></g></svg>