<svg xmlns="http://www.w3.org/2000/svg" width="98" height="80" viewBox="0 0 97.667 80"><g fill="#404041"><path d="M73.647 23.87c-5.028-9.662-14.4-16.55-25.097-18.42l.377-2.153c11.353 1.99 21.32 9.302 26.66 19.565l-1.94 1.01z"/><path d="M77.142 21.163l-.63 6.51-5.323-3.798z"/></g><path d="M21.07 34.453A17 17 0 0 1 4.094 17.476 17 17 0 0 1 21.071.5a17 17 0 0 1 16.977 16.977 17 17 0 0 1-16.977 16.976zm0-30.892c-7.673 0-13.916 6.242-13.916 13.916s6.243 13.916 13.916 13.916 13.916-6.243 13.916-13.916S28.745 3.56 21.07 3.56zm6.546 14.495c-.326.844-.77 1.52-1.333 2.022a5.5 5.5 0 0 1-2.3 1.2c-.66.17-1.53.255-2.6.255h-1.866V26.8h-4.12V9.97h5.5l1.344.034a11.91 11.91 0 0 1 1.377.155c1.022.178 1.844.526 2.466 1.044 1.318 1.12 1.978 2.604 1.978 4.455a6.69 6.69 0 0 1-.445 2.399zM23.05 14.08c-.43-.222-1.082-.333-1.956-.333h-1.6v4h1.744c.83 0 1.456-.126 1.877-.378.54-.318.8-.866.8-1.644.001-.793-.295-1.345-.887-1.656z" fill="#EC1C24"/><g fill="#404041"><path d="M92.48 42.488h-6.52c-1.182 0-2.142-.96-2.142-2.143v-7.423a1.09 1.09 0 0 1 .703-1.021c.423-.163.902-.045 1.205.292l7.57 8.473c.287.32.358.78.183 1.175a1.09 1.09 0 0 1-.997.647zm-6.477-2.186h4.034l-4.034-4.516v4.516z"/><path d="M89.58 79.5H64.196c-2.2 0-3.992-1.8-3.992-3.992V35.823a4 4 0 0 1 3.992-3.993H84.9v2.186H64.196a1.81 1.81 0 0 0-1.806 1.807v39.685a1.81 1.81 0 0 0 1.806 1.807H89.58a1.81 1.81 0 0 0 1.807-1.807V41.396h2.186v34.112A4 4 0 0 1 89.58 79.5zM64.253 35.85h2.23v1.312h-2.23zm3.62 0h5.203v1.312h-5.203zm-3.62 22.148h6.7V59.3h-6.7zm12.933 0h12.338V59.3H77.186zm-3.716 0h2.13V59.3h-2.13zm-9.217 3.567h6.7v1.312h-6.7zm12.933 0h8.408v1.312h-8.408zm-12.933 7.358h6.7v1.312h-6.7zm12.933 0h3.2v1.312h-3.2zm-3.716-7.358h2.13v1.312h-2.13zm-9.217 3.568h6.7v1.312h-6.7zM88.185 54.48H65.592a2 2 0 0 1-1.995-1.993V45.65c0-1.1.896-1.993 1.995-1.993h22.593c1.1 0 1.994.894 1.994 1.993v6.838c0 1.098-.894 1.993-1.994 1.993zm-22.593-9.513c-.377 0-.684.306-.684.682v6.838c0 .376.307.682.684.682h22.593c.377 0 .683-.306.683-.682V45.65c0-.376-.306-.682-.683-.682H65.592z"/></g><g fill="#EC1C24"><path d="M67.16 46.848l.038-.128h2.296l-.045.128c-.208 0-.367.047-.477.14s-.206.286-.3.58l-.86 3c-.063.213-.094.354-.094.427a.22.22 0 0 0 .098.193c.083.06.24.093.472.098l-.034.128H65.92l.038-.128c.233 0 .405-.044.514-.133s.206-.285.294-.585l.868-3c.053-.186.08-.325.08-.42 0-.085-.032-.153-.098-.2s-.22-.082-.464-.098zm3.68 1.36l-.43 1.487.648-.9c.2-.23.393-.4.545-.472s.296-.125.43-.125c.12 0 .223.044.3.133s.128.206.128.35a1.72 1.72 0 0 1-.083.473l-.444 1.48c-.037.13-.055.214-.055.254 0 .022.008.043.025.063s.035.027.054.027a.15.15 0 0 0 .073-.027c.08-.067.162-.162.246-.285l.1-.146.132.08c-.34.57-.698.856-1.072.856a.48.48 0 0 1-.337-.111.36.36 0 0 1-.12-.277c0-.097.027-.24.082-.434l.435-1.48c.03-.098.045-.17.045-.216 0-.025-.01-.048-.03-.067s-.046-.03-.073-.03c-.088 0-.194.06-.32.18-.32.305-.627.76-.926 1.363l-.285 1.03h-.885l.65-2.227a1.98 1.98 0 0 0 .094-.47.17.17 0 0 0-.028-.099c-.018-.026-.05-.047-.1-.063s-.12-.022-.236-.022l.038-.132 1.17-.204h.2zm3.03 3.312h-.125l.01-.43c0-.264-.02-.645-.06-1.143s-.087-.83-.137-.997a.6.6 0 0 0-.156-.268.26.26 0 0 0-.17-.056.94.94 0 0 0-.143.015v-.125l1.155-.3c.23.63.343 1.44.336 2.424.34-.323.574-.585.702-.787s.193-.37.193-.503c0-.106-.04-.214-.12-.324a1.38 1.38 0 0 1-.149-.234c-.02-.046-.028-.097-.028-.152a.42.42 0 0 1 .117-.302c.08-.08.178-.12.298-.12.128 0 .226.04.295.12.098.113.146.248.146.402s-.028.316-.086.47a2.77 2.77 0 0 1-.291.545 3.73 3.73 0 0 1-.459.57c-.3.316-.753.717-1.328 1.205zm4.5-3.312a1.1 1.1 0 0 1 .515.126.86.86 0 0 1 .364.353c.082.15.123.316.123.5 0 .375-.104.75-.313 1.124a2.43 2.43 0 0 1-.828.887c-.342.217-.687.324-1.034.324-.313 0-.558-.094-.73-.28s-.258-.416-.258-.687a2.16 2.16 0 0 1 .19-.903 2.73 2.73 0 0 1 .489-.736 2.23 2.23 0 0 1 .682-.5 1.88 1.88 0 0 1 .798-.196zm-.142.184a.45.45 0 0 0-.306.107c-.16.146-.345.486-.548 1.02s-.306 1.02-.306 1.448a.37.37 0 0 0 .098.264c.066.07.14.104.23.104a.37.37 0 0 0 .24-.084c.1-.083.227-.27.374-.56a4.98 4.98 0 0 0 .364-.961 3.71 3.71 0 0 0 .143-.963.42.42 0 0 0-.087-.28c-.057-.067-.124-.097-.2-.097zm3.182-.184l-.712 2.466c-.04.142-.06.233-.06.278 0 .024.01.05.03.07s.043.033.066.033c.04 0 .078-.018.117-.052.104-.086.23-.24.375-.465l.118.07c-.35.608-.72.912-1.113.912a.5.5 0 0 1-.36-.127.42.42 0 0 1-.133-.32 1.2 1.2 0 0 1 .059-.326l.482-1.658c.047-.16.07-.28.07-.36 0-.05-.02-.095-.065-.135s-.104-.06-.18-.06l-.125.003.045-.14 1.176-.2h.2zm-.216-1.596a.49.49 0 0 1 .363.149c.1.1.146.22.146.36a.49.49 0 1 1-1.014 0c0-.142.05-.262.146-.36a.49.49 0 0 1 .359-.149z"/><path d="M84.24 50.588l.104.093c-.224.27-.444.465-.662.6-.3.167-.6.25-.898.25a1.12 1.12 0 0 1-.553-.134c-.16-.1-.28-.214-.356-.374s-.114-.326-.114-.495c0-.38.104-.752.3-1.118a2.43 2.43 0 0 1 .815-.871c.338-.214.67-.32.996-.32.26 0 .457.058.6.173s.197.26.197.43c0 .154-.05.286-.148.396a.45.45 0 0 1-.334.163c-.106 0-.195-.035-.265-.104a.33.33 0 0 1-.106-.246c0-.125.063-.233.188-.326.085-.064.13-.122.13-.17 0-.04-.02-.075-.053-.1a.28.28 0 0 0-.18-.056c-.194 0-.378.08-.548.236a1.99 1.99 0 0 0-.52.79c-.12.32-.18.622-.18.908 0 .228.062.407.184.543s.268.203.437.203a1.2 1.2 0 0 0 .481-.114 1.77 1.77 0 0 0 .488-.348zm1.594-.466c-.02.15-.03.274-.03.372 0 .173.05.312.15.416s.235.156.404.156a1.13 1.13 0 0 0 .487-.118c.164-.078.352-.217.567-.413l.104.094c-.266.322-.524.55-.776.687s-.53.205-.836.205c-.387 0-.653-.093-.802-.277a1 1 0 0 1-.223-.642c0-.38.1-.76.33-1.14a2.56 2.56 0 0 1 .902-.912c.38-.23.763-.343 1.146-.343.195 0 .34.046.44.14a.46.46 0 0 1 .148.351c0 .168-.05.333-.146.492-.134.218-.303.393-.507.525s-.43.234-.684.304a3.75 3.75 0 0 1-.676.103zm.032-.18a1.82 1.82 0 0 0 .475-.123 1.12 1.12 0 0 0 .329-.25 1.58 1.58 0 0 0 .278-.434 1.2 1.2 0 0 0 .118-.491c0-.064-.018-.115-.054-.152a.18.18 0 0 0-.137-.056c-.1 0-.235.078-.375.232-.254.283-.465.708-.634 1.274z"/></g></svg>