<svg xmlns="http://www.w3.org/2000/svg" width="22" height="15"><path d="M-.333-.056h22.665V7.5H-.333z" fill="#ED2939"/><path d="M-.333 7.5h22.665v7.556H-.333zm7.775-3.778c0 1.57-1.272 2.842-2.84 2.842a2.84 2.84 0 1 1 0-5.683 2.84 2.84 0 0 1 2.841 2.841z" fill="#fff"/><path d="M8.334 3.722c0 1.483-1.202 2.686-2.685 2.686S2.964 5.206 2.964 3.722 4.166 1.037 5.65 1.037 8.334 2.24 8.334 3.722z" fill="#ED2939"/><path d="M4.953 3.79l-.387-.296-.386.296.15-.478-.387-.293H4.42l.147-.48.146.48H5.2l-.387.293.15.478zm580.216 0l-.386-.296-.386.296.148-.478-.386-.293.48.001.146-.48.147.48H585.408l-.387.293.148.478zM295.357-211.544l-.386-.296-.386.296.15-.478-.387-.293h.478l.147-.478.146.478.478-.001-.388.294.15.478zM113.52 348.338l-.387-.296-.385.297.15-.48-.388-.294.478.001.146-.478.148.478.477-.001-.387.294.15.478zm363.084 0l-.387-.296-.385.297.148-.48-.387-.294.48.001.145-.478.147.48.478-.001-.387.293.15.478z" fill="#fff"/></svg>