<svg xmlns="http://www.w3.org/2000/svg" width="80" height="80"><path d="M77.94 79.5H2.06a1.3 1.3 0 0 1-1.298-1.299v-6.563a1.3 1.3 0 0 1 1.298-1.298h75.88a1.3 1.3 0 0 1 1.298 1.298V78.2a1.3 1.3 0 0 1-1.299 1.299zm-74.58-2.597H76.64v-3.968H3.358v3.968z" fill="#404041"/><path d="M6.787 36.98h6.564v30.98H6.787z" fill="#D0D2D3"/><path d="M14.278 68.89H5.86V36.054h8.42V68.89zm-6.564-1.855h4.71V37.907h-4.71v29.127z" fill="#404041"/><path d="M18.34 36.98h6.563v30.98H18.34z" fill="#D0D2D3"/><path d="M25.83 68.89h-8.417V36.054h8.417V68.89zm-6.562-1.855h4.708V37.907h-4.708v29.127z" fill="#404041"/><path d="M55.098 36.98h6.563v30.98h-6.563z" fill="#D0D2D3"/><path d="M62.588 68.89H54.17V36.054h8.417V68.89zm-6.564-1.855h4.71V37.907h-4.71v29.127z" fill="#404041"/><path d="M66.648 36.98h6.565v30.98h-6.565z" fill="#D0D2D3"/><path d="M74.142 68.9h-8.42V36.054h8.42V68.9zm-6.566-1.855h4.7V37.907h-4.7v29.127zM77.94 35.23H2.06a1.3 1.3 0 0 1-1.241-.918c-.167-.546.042-1.137.516-1.456l23.178-15.63a1.3 1.3 0 0 1 1.959.672c1.92 5.862 7.357 9.8 13.527 9.8a14.21 14.21 0 0 0 13.53-9.799c.126-.387.427-.7.812-.823a1.3 1.3 0 0 1 1.146.151l23.178 15.63a1.3 1.3 0 0 1 .515 1.456c-.166.546-.67.918-1.24.918zM6.307 32.636h67.388L55.4 20.3A16.81 16.81 0 0 1 40 30.293 16.8 16.8 0 0 1 24.612 20.3L6.307 32.636zm33.666-6.22c-7.146 0-12.96-5.813-12.96-12.958S32.827.5 39.973.5 52.93 6.313 52.93 13.457s-5.813 12.958-12.957 12.958zm0-24.06a11.12 11.12 0 0 0-11.104 11.104 11.12 11.12 0 0 0 11.104 11.104 11.12 11.12 0 0 0 11.103-11.104A11.12 11.12 0 0 0 39.973 2.354z" fill="#404041"/><path d="M46.985 54.338c-.307-.782-.758-1.467-1.336-2.037-.568-.56-1.305-1.04-2.185-1.422-.394-.166-1.057-.37-2.072-.632V44.7c.226.128.42.28.585.463.37.406.62 1.035.748 1.865l.12.777 4.194-.624-.1-.778c-.258-1.8-1.03-3.223-2.294-4.258-.842-.697-1.93-1.154-3.243-1.374v-2.25h-3.086v2.253c-1.5.238-2.704.73-3.554 1.468-1.46 1.262-2.203 2.925-2.203 4.948 0 1.14.258 2.177.76 3.083.5.923 1.247 1.65 2.187 2.17s1.886.906 2.8 1.146v6.354c-.427-.198-.813-.517-1.172-.958-.4-.523-.706-1.4-.884-2.607l-.12-.8-4.066.754.05.704c.105 1.434.487 2.673 1.14 3.7.658 1.02 1.458 1.772 2.375 2.238.727.37 1.624.646 2.68.823v2.63h3.086V63.8c1.653-.22 3.045-.907 4.144-2.048 1.267-1.3 1.908-2.965 1.908-4.913-.002-.888-.156-1.73-.46-2.498zm-8.678-4.93c-.48-.223-.84-.48-1.077-.76-.367-.434-.545-.973-.545-1.646s.215-1.233.654-1.725c.263-.3.584-.514.968-.675v4.807zm4.163 9.772a3.17 3.17 0 0 1-1.077.786v-5.52c.785.336 1.162.64 1.34.86.342.4.508.967.508 1.7-.001.884-.252 1.593-.772 2.176zm1.017-44.826c-.158-.403-.4-.757-.7-1.052-.294-.3-.674-.536-1.128-.734-.203-.085-.546-.2-1.07-.326v-2.86a1.23 1.23 0 0 1 .303.239c.2.2.32.534.386.963l.062.4 2.166-.322-.057-.4c-.133-.925-.53-1.665-1.185-2.2-.435-.36-.997-.596-1.675-.7V6.2h-1.593v1.163c-.78.122-1.396.377-1.835.758-.755.65-1.138 1.5-1.138 2.555 0 .6.133 1.124.393 1.592a2.82 2.82 0 0 0 1.13 1.12c.486.267.974.47 1.45.592v3.28c-.22-.103-.42-.267-.605-.495-.2-.27-.365-.723-.456-1.346l-.063-.42-2.1.4.026.363c.054.74.25 1.38.588 1.905s.753.915 1.227 1.156c.375.2.84.333 1.384.425v1.357H40.6v-1.35a3.54 3.54 0 0 0 2.141-1.058c.653-.676.984-1.53.984-2.536 0-.457-.08-.892-.238-1.3zm-4.48-2.546c-.25-.114-.435-.247-.557-.393-.2-.224-.28-.502-.28-.85a1.31 1.31 0 0 1 .338-.9c.136-.15.302-.266.5-.35v2.482zm2.15 5.046c-.162.18-.346.315-.557.406V14.4c.405.174.6.33.692.444.177.212.263.5.263.878.001.456-.13.822-.398 1.123z" fill="#EC1C24"/></svg>