<svg xmlns="http://www.w3.org/2000/svg" width="80" height="80"><path d="M50.973 7.083V1.8H7.896v56.08H14.4" fill="#D0D2D3"/><path d="M14.4 59.18H6.597V.5h45.675v6.583h-2.6V3.1H9.196v53.48H14.4z" fill="#404041"/><path d="M57.475 14.397V7.083H14.4v56.08h6.5" fill="#D0D2D3"/><path d="M20.9 64.463h-7.8V5.783h45.674v8.614h-2.6V8.383H15.698v53.48h5.2z" fill="#404041"/><path d="M63.976 22.12v-7.722H20.9v56.08h8.13" fill="#D0D2D3"/><path d="M29.028 71.777H19.6v-58.68h45.674v9.02h-2.6v-6.422H22.2v53.48h6.83z" fill="#404041"/><path d="M29.028 22.12h43.075V78.2H29.028z" fill="#fff"/><path d="M73.403 79.5H27.73V20.82h45.675V79.5zm-43.075-2.6h40.477V23.42H30.328V76.9z" fill="#404041"/><path d="M52.5 37.678H33.38v-8.97H52.5v8.97zM35.24 35.82h15.415v-5.256H35.24v5.256zm21.22-7.1h10.97v1.856H56.46zm0 7.1h10.97v1.856H56.46zM34.3 42.118h33.12v1.857H34.3z" fill="#6D6E70"/><path d="M34.3 49.027h33.12v1.857H34.3zm0 6.9h33.12v1.856H34.3zm.01 6.907h33.12V64.7H34.3z" fill="#EC1C24"/><path d="M34.31 69.75h17.27v1.857H34.31z" fill="#6D6E70"/></svg>