<svg xmlns="http://www.w3.org/2000/svg" width="80" height="80"><path d="M35.306 48.103c-.434-1.258-.298-2.642.96-3.076s2.1.538 2.557 1.86l1.088 3.15h7.94c1.293 0 2.343-1.05 2.343-2.344V4c0-1.295-1.05-2.343-2.344-2.343H22.853c-1.295 0-2.344 1.048-2.344 2.343v43.705c0 1.294 1.05 2.344 2.344 2.344h13.122l-.67-1.936z" fill="#D0D2D3"/><path d="M47.85 51.186h-7.718v-2.294h7.718c.66 0 1.195-.537 1.195-1.196V4c0-.66-.536-1.195-1.196-1.195H22.853a1.2 1.2 0 0 0-1.197 1.195v43.705a1.2 1.2 0 0 0 1.197 1.196h13.122v2.294H22.853c-1.925 0-3.492-1.565-3.492-3.5V4c0-1.925 1.566-3.5 3.492-3.5H47.85c1.926 0 3.49 1.565 3.49 3.5v43.705c0 1.925-1.566 3.49-3.5 3.49z" fill="#404041"/><path d="M35.76 5.865h-11.03V38.05h21.248V5.865z" fill="#fff"/><path d="M46.795 38.868H23.908V5.045h22.887v33.823zm-21.248-1.64h19.61V6.685h-19.61V37.23z" fill="#404041"/><path d="M36.296 44.878c1.114-.384 1.857.477 2.262 1.646l.148.43h2.738a2.03 2.03 0 0 0 0-4.061H29.26a2.03 2.03 0 1 0 0 4.061h6.025c-.138-.905.112-1.765 1.012-2.075z" fill="#EC1C24"/><path d="M59.775 73.67a.82.82 0 0 1-.508 1.042L47.91 78.635a.82.82 0 0 1-1.042-.508l-2.006-5.808c-.147-.428.08-.894.508-1.04l11.355-3.924a.82.82 0 0 1 1.043.507l2.006 5.807z" fill="#D0D2D3"/><g fill="#404041"><path d="M47.644 79.5a1.64 1.64 0 0 1-1.549-1.106l-2.006-5.807a1.63 1.63 0 0 1 .077-1.255 1.62 1.62 0 0 1 .94-.828L56.46 66.58a1.64 1.64 0 0 1 2.085 1.014l2.007 5.808c.292.857-.164 1.79-1.018 2.084L48.18 79.4a1.65 1.65 0 0 1-.535.09zm9.35-11.37L45.64 72.054l2.005 5.806L59 73.936l-2.006-5.806z"/><path d="M45.15 71.174l-.33-.954c-.936-.075-2.04-.684-3.553-1.922l-3.81-3.24-1.258-1.08c-1.03-.854-1.58-2.465-.567-3.77.407-.525 1.014-.854 1.7-.927a3.16 3.16 0 0 1 .86.034l-3.77-10.91c-.686-1.99-.07-3.7 1.534-4.254 1.25-.43 2.886-.017 3.734 2.433l2.986 8.648-1.75.604-2.986-8.647c-.362-1.045-.827-1.48-1.38-1.287-.885.306-.478 1.636-.387 1.898l5.614 16.25-2.588-2.21c-.583-.498-1.21-.768-1.678-.718-.195.02-.338.09-.436.22-.337.436-.015.96.284 1.208a101.45 101.45 0 0 1 1.291 1.108l3.773 3.207c1.877 1.538 2.523 1.552 2.714 1.486l.874-.302.87 2.52-1.753.607z"/><path d="M44.682 55.916L43.45 52.35c-.15-.434-.625-.664-1.06-.516s-.662.625-.513 1.06l-1.75.604a2.69 2.69 0 0 1 1.659-3.415c1.402-.48 2.933.265 3.415 1.66l1.23 3.565-1.75.606z"/><path d="M48.75 55.773l-1.105-3.196a1.02 1.02 0 0 0-1.292-.629 1.02 1.02 0 0 0-.63 1.293l-1.75.604c-.516-1.495.28-3.13 1.776-3.647s3.13.28 3.646 1.774l1.105 3.196-1.75.605z"/><path d="M54.994 68.12c-.004-.006-.444-.674-1.23-1.58l-.895-1.034 1.292-.447c1.17-.404.84-2.366.502-3.347l-3.066-8.877c-.158-.457-.66-.704-1.12-.544a.88.88 0 0 0-.543 1.118l-1.75.605a2.74 2.74 0 0 1 1.689-3.475 2.74 2.74 0 0 1 3.476 1.689l3.066 8.878c.635 1.837.627 3.9-.563 5.053l.693.946-1.55 1.015z"/></g></svg>