<svg xmlns="http://www.w3.org/2000/svg" width="80" height="80"><style><![CDATA[.B{fill:#404041}.C{fill:#EC1C24}.D{stroke-miterlimit:10}]]></style><path d="M56.75 30.416" stroke-width="5.65" stroke="#404041" fill="none" class="D"/><g class="B"><path d="M39.367 22.37l-9.525-.013v-11.67a5.31 5.31 0 0 1 5.3-5.301h.296a5.31 5.31 0 0 1 5.3 5.301v11.682l-1.37.002zm-7.213-2.322l6.27.008v-9.37a2.99 2.99 0 0 0-2.988-2.988h-.296c-1.647 0-2.988 1.34-2.988 2.988v9.363z"/><path d="M38.426 22.37V5.8a5.31 5.31 0 0 1 5.3-5.3h.296a5.31 5.31 0 0 1 5.301 5.3v16.556l-10.897.015zm5.3-19.558a2.99 2.99 0 0 0-2.987 2.988v14.254l6.27-.008V5.8c0-1.647-1.34-2.988-2.988-2.988h-.296z"/><path d="M57.906 22.4l-1.226-.053-9.67.013V12.164a5.31 5.31 0 0 1 5.3-5.301h.296a5.31 5.31 0 0 1 5.301 5.301V22.4zM52.3 9.176a2.99 2.99 0 0 0-2.987 2.988v7.88l6.27-.008v-7.87c0-1.647-1.34-2.988-2.988-2.988H52.3zM32.154 22.36l-10.896-.015V19.86a5.31 5.31 0 0 1 5.301-5.3h.295a5.31 5.31 0 0 1 5.301 5.3v2.5zm-8.584-2.325l6.27.01v-.184a2.99 2.99 0 0 0-2.988-2.988h-.295a2.99 2.99 0 0 0-2.988 2.988v.175zm31.5 43.688H27.654l-.337-.328c-3.908-3.817-6.06-8.923-6.06-14.378v-3.724l26.846-.047c1.182-1.006 2.324-2.603 2.46-6.235l.014-.377-.015-2.08v-2.04a5.31 5.31 0 0 1 5.301-5.3h.296c.24 0 .5.02.762.06a5.26 5.26 0 0 1 2.547 1.103 5.27 5.27 0 0 1 1.991 4.137v14.504a19.94 19.94 0 0 1-6.061 14.378l-.336.328zM28.605 61.4H54.1a17.64 17.64 0 0 0 5.034-12.394V34.512a2.97 2.97 0 0 0-1.124-2.332c-.412-.33-.908-.544-1.435-.62a2.97 2.97 0 0 0-.43-.036h-.296a2.99 2.99 0 0 0-2.988 2.987v2.024c.02 1.397.03 2.133-.004 2.56h.003c-.14 3.785-1.3 6.397-3.65 8.22l-.313.242-25.34.044v1.415a17.64 17.64 0 0 0 5.036 12.394z"/></g><path d="M59.153 77.014c0 .81-.655 1.463-1.463 1.463H25.025c-.807 0-1.462-.654-1.462-1.463V65.8a1.46 1.46 0 0 1 1.462-1.462h32.665c.808 0 1.463.654 1.463 1.462v11.213z" fill="#D0D2D3"/><path d="M57.7 79.5H25.025a2.49 2.49 0 0 1-2.485-2.486V65.8a2.49 2.49 0 0 1 2.485-2.485H57.7a2.49 2.49 0 0 1 2.485 2.485v11.213A2.49 2.49 0 0 1 57.69 79.5zM25.025 65.362a.44.44 0 0 0-.439.438v11.213a.44.44 0 0 0 .439.439H57.7a.44.44 0 0 0 .439-.439v-11.212a.44.44 0 0 0-.439-.438H25.025z" class="B"/><path d="M51.73 37.737l-.013-1.2v-2.024c0-2.29 1.855-4.144 4.145-4.144h.296c.2 0 .397.02.592.047a4.11 4.11 0 0 1 1.994.861l.014-8.035c.001-.42-.13-.8-.35-1.133a2 2 0 0 0-1.685-.919l-17.357.023L22 21.2c-.708-.001-1.327.367-1.685.92-.22.323-.352.713-.35 1.133l.014 10.144-.014 9.948.026-.01V44.402c.002 1.107.9 2.004 2.008 2.002l26.503-.003c1.692-1.312 3.053-3.288 3.204-7.348.02-.017.018-.676.014-1.316" class="C"/><path d="M22.01 47.837h-.002c-1.572 0-2.9-1.062-3.3-2.505l-.133.05-.023-2.05.014-9.948-.014-10.14a3.42 3.42 0 0 1 .601-1.943c.617-.955 1.696-1.543 2.865-1.543l17.36.023 17.353-.023a3.43 3.43 0 0 1 2.889 1.573c.374.546.582 1.22.58 1.916l-.014 10.708-2.383-1.602a2.69 2.69 0 0 0-1.246-.519c-.15-.022-.276-.033-.4-.033h-.296c-1.496 0-2.712 1.216-2.712 2.71v2.023l.013 1.192-.015 1.38c-.144 3.873-1.337 6.55-3.757 8.427l-.388.3-26.993.004zm-.6-6.218l.024 2.78c.001.314.258.57.574.57v1.433-1.433H48c1.106-.972 2.156-2.523 2.284-5.97l.014-.36-.002-.894-.013-1.2v-2.044c0-3.075 2.502-5.576 5.577-5.576h.296a5.45 5.45 0 0 1 .802.063l.358.063.007-5.822a.55.55 0 0 0-.1-.322c-.128-.197-.307-.296-.5-.296l-17.357.023-17.36-.023a.57.57 0 0 0-.48.265c-.087.128-.12.237-.12.352l.014 10.145-.01 8.234z" class="B"/><path d="M22.972 37.737h5.826" class="C"/><path d="M22.972 37.124h5.826v1.228h-5.826z" class="B"/><path d="M31.608 37.737h5.827" class="C"/><path d="M31.608 37.124h5.826v1.228h-5.826z" class="B"/><path d="M40.246 37.737h5.826" class="C"/><path d="M40.246 37.124h5.827v1.228h-5.827z" class="B"/><path d="M26.143 30.795a3.3 3.3 0 0 1-.008-6.6l6.598-.007a3.3 3.3 0 0 1 3.304 3.294 3.3 3.3 0 0 1-3.295 3.304l-6.6.01z" class="C"/><path d="M26.144 31.41h-.005a3.92 3.92 0 0 1-3.913-3.908 3.92 3.92 0 0 1 3.908-3.919l6.6-.007a3.92 3.92 0 0 1 3.918 3.908 3.89 3.89 0 0 1-1.143 2.769 3.88 3.88 0 0 1-2.766 1.15l-6.598.007zm6.594-6.607l-6.603.008a2.69 2.69 0 0 0-2.681 2.689 2.69 2.69 0 0 0 2.685 2.682v.614l.003-.614 6.598-.01c.717 0 1.39-.28 1.898-.79a2.67 2.67 0 0 0 .784-1.9 2.69 2.69 0 0 0-2.684-2.681z" class="B"/><g class="C"><path d="M48.514 46.4" stroke="#404041" stroke-width="6" class="D"/><path d="M48.277 37.737h3.453"/></g><path d="M48.277 37.124h3.453v1.228h-3.453z" class="B"/></svg>