<svg xmlns="http://www.w3.org/2000/svg" width="32" height="32"><path d="M21.137 17.326a4.15 4.15 0 0 0-.948-1.446c-.404-.398-.927-.738-1.553-1.012-.278-.117-.75-.26-1.473-.447v-3.933a1.65 1.65 0 0 1 .417.328c.262.29.44.735.53 1.326l.086.552 2.98-.442-.077-.553c-.183-1.272-.73-2.3-1.63-3.027-.6-.494-1.372-.82-2.306-.976V6.094h-2.19v1.6c-1.072.168-1.92.52-2.525 1.043-1.038.897-1.565 2.08-1.565 3.516 0 .8.183 1.547.54 2.2.363.656.887 1.172 1.555 1.54s1.34.646 1.996.814v4.518c-.304-.142-.58-.37-.833-.683-.29-.37-.5-.994-.627-1.854l-.085-.574-2.9.536.035.5c.074 1.018.347 1.9.81 2.62.47.725 1.037 1.26 1.688 1.59.517.263 1.155.458 1.905.586v1.866h2.19v-1.857c1.176-.156 2.165-.645 2.945-1.455.898-.932 1.355-2.106 1.355-3.5-.001-.63-.11-1.23-.328-1.776zm-6.165-3.502c-.34-.16-.598-.34-.766-.54-.26-.307-.386-.69-.386-1.17s.152-.876.464-1.224a1.88 1.88 0 0 1 .688-.48v3.414zm2.958 6.943c-.223.25-.475.434-.767.558v-3.922c.558.24.826.455.955.612.242.29.36.687.36 1.206.001.628-.178 1.132-.547 1.546z" fill="#EC1C24"/><g fill="#404041"><path d="M28.478 8.678a14.44 14.44 0 0 0-9.965-6.925L18.733.5a15.71 15.71 0 0 1 10.842 7.533l-1.097.645z"/><path d="M30.452 7.036l-.26 3.798-3.16-2.122zM13.268 31.5a15.71 15.71 0 0 1-10.842-7.533l1.097-.645a14.44 14.44 0 0 0 9.964 6.924l-.22 1.254z"/><path d="M1.55 24.964l.258-3.798 3.16 2.122zm22.417 4.6l-.646-1.098c3.67-2.158 6.194-5.8 6.926-9.964l1.253.22a15.71 15.71 0 0 1-7.533 10.842z"/><path d="M24.964 30.45l-3.798-.258 2.122-3.16zM1.753 13.487L.5 13.268A15.71 15.71 0 0 1 8.033 2.426l.646 1.097a14.44 14.44 0 0 0-6.926 9.964z"/><path d="M7.036 1.548l3.797.258-2.12 3.16z"/></g></svg>