<svg xmlns="http://www.w3.org/2000/svg" width="32" height="32"><path d="M15.884 1.172L28.52 6.854s2.9 18.667-12.52 24c-15.42-5.333-12.523-24-12.523-24l12.407-5.682z" fill="#D0D2D3"/><path d="M16 31.5l-.2-.068C9.286 29.178 4.983 24.184 3.36 16.988c-1.214-5.385-.516-10.034-.486-10.23l.05-.324L15.882.5l13.192 5.932.052.327c.03.195.73 4.844-.486 10.23-1.622 7.195-5.924 12.19-12.44 14.443l-.2.07zM4.04 7.268c-.13 1.132-.474 5.107.52 9.487C6.098 23.52 9.947 28.043 16 30.205c6.054-2.162 9.902-6.687 11.438-13.45.994-4.377.65-8.348.52-9.484L15.887 1.843 4.04 7.268z" fill="#404041"/><path d="M9.39 15.085l4.754 4.06 7.42-6.957" fill="#D0D2D3"/><path d="M14.172 20.315L8.824 15.75c-.367-.313-.4-.864-.097-1.23s.865-.4 1.232-.097l4.16 3.55 6.85-6.423c.352-.33.904-.312 1.234.04a.87.87 0 0 1-.04 1.234l-8 7.492z" fill="#EC1C24"/></svg>