<svg xmlns="http://www.w3.org/2000/svg" width="35" height="32" viewBox="0 0 34.625 32"><path d="M23.035 11.017a1.59 1.59 0 0 1-1.589 1.59H13.18a1.59 1.59 0 0 1-1.59-1.59v-8.265a1.59 1.59 0 0 1 1.59-1.589h8.266a1.59 1.59 0 0 1 1.589 1.589v8.265z" fill="#D0D2D3"/><path d="M21.446 13.27H13.18c-1.242 0-2.253-1-2.253-2.253V2.752A2.25 2.25 0 0 1 13.18.5h8.266c1.24 0 2.252 1 2.252 2.252v8.264a2.25 2.25 0 0 1-2.252 2.254zM13.18 1.826a.93.93 0 0 0-.928.926v8.264a.93.93 0 0 0 .928.928h8.266a.93.93 0 0 0 .926-.928V2.752c0-.5-.415-.926-.926-.926H13.18zM28.198 19.4h-1.326v-.654a2.18 2.18 0 0 0-2.176-2.176H9.93a2.18 2.18 0 0 0-2.178 2.176v.654H6.428v-.654c0-1.93 1.57-3.5 3.503-3.5h14.766c1.93 0 3.502 1.57 3.502 3.5v.654z" fill="#EC1C24"/><path d="M12.813 29.247a1.59 1.59 0 0 1-1.589 1.59H2.958a1.59 1.59 0 0 1-1.59-1.59v-8.265a1.59 1.59 0 0 1 1.59-1.589h8.266a1.59 1.59 0 0 1 1.589 1.589v8.265z" fill="#D0D2D3"/><path d="M11.224 31.5H2.958c-1.242 0-2.253-1.01-2.253-2.253v-8.265c0-1.24 1.01-2.252 2.253-2.252h8.266c1.24 0 2.252 1.01 2.252 2.252v8.265c0 1.242-1.01 2.253-2.252 2.253zM2.958 20.057c-.512 0-.927.415-.927.926v8.265a.93.93 0 0 0 .927.928h8.266a.93.93 0 0 0 .926-.928v-8.265c0-.51-.415-.926-.926-.926H2.958z" fill="#EC1C24"/><path d="M33.257 29.247a1.59 1.59 0 0 1-1.589 1.59h-8.266a1.59 1.59 0 0 1-1.59-1.59v-8.265a1.59 1.59 0 0 1 1.59-1.589h8.266a1.59 1.59 0 0 1 1.589 1.589v8.265z" fill="#D0D2D3"/><path d="M31.668 31.5h-8.266c-1.242 0-2.252-1-2.252-2.253v-8.265a2.25 2.25 0 0 1 2.252-2.252h8.266c1.242 0 2.252 1 2.252 2.252v8.265a2.25 2.25 0 0 1-2.252 2.253zm-8.266-11.443a.93.93 0 0 0-.927.926v8.265a.93.93 0 0 0 .927.928h8.266a.93.93 0 0 0 .927-.928v-8.265a.93.93 0 0 0-.927-.926h-8.266zm-6.752-7.45h1.326v3.3H16.65z" fill="#EC1C24"/></svg>