<svg xmlns="http://www.w3.org/2000/svg" width="58" height="32" viewBox="0 0 57.75 32"><path d="M17.867 19.068a7.26 7.26 0 0 1-3.357.818 7.26 7.26 0 0 1-3.358-.818c-5.227 1.465-9.06 6.264-9.06 11.957h24.833c0-5.693-3.832-10.492-9.06-11.957z" fill="#D0D2D3"/><path d="M27.4 31.5H1.618v-.475c0-5.757 3.868-10.86 9.405-12.413l.18-.05.166.086a6.75 6.75 0 0 0 3.141.766c1.104 0 2.16-.258 3.14-.766l.166-.086.18.05c5.537 1.552 9.403 6.656 9.403 12.413v.475zm-24.822-.95H26.44c-.202-5.077-3.643-9.525-8.526-10.975a7.81 7.81 0 0 1-3.405.785c-1.194 0-2.34-.264-3.406-.785-4.884 1.45-8.325 5.898-8.527 10.975z" fill="#404041"/><path d="M14.657 22.216l1.378-2.49c-.492.105-1.003.16-1.525.16a7.38 7.38 0 0 1-1.527-.16l1.35 2.49-1.388 8.8h3.127l-1.416-8.8z" fill="#EC1C24"/><circle cx="14.51" cy="12.469" r="5.842" fill="#D0D2D3"/><path d="M14.5 18.785c-3.482 0-6.316-2.833-6.316-6.316s2.834-6.316 6.316-6.316 6.315 2.833 6.315 6.316-2.833 6.316-6.315 6.316zm0-11.683c-2.96 0-5.367 2.408-5.367 5.367s2.407 5.368 5.367 5.368 5.367-2.408 5.367-5.368S17.47 7.102 14.5 7.102z" fill="#404041"/><path d="M46.6 19.068a7.27 7.27 0 0 1-3.359.818 7.26 7.26 0 0 1-3.357-.818c-5.227 1.465-9.06 6.264-9.06 11.957h24.833c-.001-5.693-3.833-10.492-9.058-11.957z" fill="#D0D2D3"/><path d="M56.132 31.5H30.35v-.475c0-5.757 3.867-10.86 9.404-12.413l.18-.05.166.086c.98.508 2.036.766 3.14.766s2.162-.258 3.14-.766l.166-.086.18.05c5.537 1.552 9.404 6.656 9.404 12.413v.475zm-24.823-.95h23.865c-.203-5.077-3.644-9.524-8.527-10.975a7.69 7.69 0 0 1-3.406.785c-1.193 0-2.338-.264-3.405-.785-4.885 1.45-8.325 5.898-8.527 10.975z" fill="#404041"/><path d="M43.39 22.216l1.378-2.49a7.31 7.31 0 0 1-1.526.16c-.523 0-1.034-.056-1.526-.16l1.35 2.49-1.388 8.8h3.128l-1.417-8.8z" fill="#EC1C24"/><circle cx="43.241" cy="12.469" r="5.841" fill="#D0D2D3"/><path d="M43.24 18.785c-3.482 0-6.315-2.833-6.315-6.316s2.833-6.316 6.315-6.316 6.316 2.833 6.316 6.316-2.832 6.316-6.316 6.316zm0-11.683c-2.96 0-5.367 2.408-5.367 5.367s2.408 5.368 5.367 5.368 5.368-2.408 5.368-5.368S46.2 7.102 43.24 7.102z" fill="#404041"/><path d="M38.047 17.385c-1.55-1.514-3.473-2.648-5.62-3.25-1.063.552-2.27.865-3.553.865s-2.488-.313-3.553-.865c-2.146.6-4.067 1.735-5.62 3.25 4.14 1.51 7.158 5.125 7.966 9.4h2.412c.81-4.275 3.828-7.89 7.966-9.4z" fill="#D0D2D3"/><path d="M30.474 27.26h-3.197l-.073-.387c-.782-4.14-3.72-7.604-7.663-9.043l-.708-.258.54-.527c1.633-1.592 3.646-2.756 5.822-3.366l.18-.05.166.086c1.038.54 2.16.812 3.335.812s2.297-.273 3.334-.812l.166-.086.18.05c2.177.6 4.2 1.774 5.822 3.367l.54.526-.71.258c-3.943 1.438-6.88 4.903-7.662 9.043l-.074.387zm-2.418-.95h1.64a13.01 13.01 0 0 1 7.478-9.087 12.66 12.66 0 0 0-4.696-2.581 8.22 8.22 0 0 1-3.601.832c-1.265 0-2.475-.28-3.6-.832a12.66 12.66 0 0 0-4.696 2.581 13.01 13.01 0 0 1 7.477 9.087z" fill="#404041"/><path d="M29.032 17.465l1.458-2.633a7.74 7.74 0 0 1-1.615.169c-.554 0-1.095-.06-1.615-.17l1.43 2.634-1.468 9.32h3.3l-1.5-9.32z" fill="#EC1C24"/><circle cx="28.875" cy="7.154" r="6.18" fill="#D0D2D3"/><path d="M28.875 13.81c-3.67 0-6.654-2.985-6.654-6.655S25.206.5 28.875.5s6.654 2.985 6.654 6.654-2.985 6.655-6.654 6.655zm0-12.36c-3.146 0-5.705 2.56-5.705 5.706s2.56 5.706 5.705 5.706 5.706-2.56 5.706-5.706-2.56-5.706-5.706-5.706z" fill="#404041"/></svg>