<svg xmlns="http://www.w3.org/2000/svg" width="32" height="32"><path d="M30.726 27.595l-5.997-5.997a2.04 2.04 0 0 0-1.766-.572l-1.35-1.35c1.507-1.966 2.403-4.424 2.403-7.093A11.67 11.67 0 0 0 12.345.914 11.67 11.67 0 0 0 .677 12.583a11.67 11.67 0 0 0 11.669 11.67 11.62 11.62 0 0 0 7.617-2.829l1.3 1.3a2.04 2.04 0 0 0 .572 1.766l5.997 5.997c.8.8 2.094.8 2.893 0s.798-2.094 0-2.893zm-18.364-5.25a9.78 9.78 0 0 1-9.776-9.776 9.78 9.78 0 0 1 9.776-9.775 9.78 9.78 0 0 1 9.775 9.775 9.78 9.78 0 0 1-9.775 9.776z" fill="#D0D2D3"/><path d="M29.28 31.5c-.656 0-1.274-.256-1.738-.72l-5.998-5.997c-.5-.502-.76-1.2-.712-1.906l-.894-.894c-2.144 1.732-4.824 2.683-7.592 2.683A12.1 12.1 0 0 1 .262 12.583C.263 5.92 5.684.5 12.346.5a12.1 12.1 0 0 1 12.083 12.083c0 2.56-.784 5-2.27 7.053l.957.957a2.44 2.44 0 0 1 1.906.713l5.998 5.996c.958.96.958 2.52 0 3.48a2.45 2.45 0 0 1-1.74.719zm-9.296-10.64l1.722 1.72-.033.208c-.082.523.084 1.037.456 1.41l5.997 5.997c.31.308.72.478 1.154.478a1.62 1.62 0 0 0 1.154-.478c.636-.637.636-1.672 0-2.31l-5.997-5.997a1.62 1.62 0 0 0-1.151-.476c-.086 0-.173.007-.258.02l-.208.032-1.756-1.755.22-.288c1.517-1.978 2.317-4.343 2.317-6.84A11.27 11.27 0 0 0 12.345 1.326C6.14 1.327 1.1 6.376 1.1 12.583S6.14 23.84 12.346 23.84a11.25 11.25 0 0 0 7.347-2.729l.3-.25zm-7.62 1.898c-5.62 0-10.19-4.57-10.19-10.19s4.57-10.19 10.19-10.19S22.55 6.95 22.55 12.57a10.2 10.2 0 0 1-10.188 10.189zm0-19.55C7.2 3.207 3 7.407 3 12.57s4.2 9.362 9.362 9.362 9.36-4.2 9.36-9.362-4.2-9.362-9.36-9.362z" fill="#404041"/><path d="M8.882 12.063c-.308.16-.655.25-1.025.25s-.718-.09-1.025-.25c-1.595.447-2.765 1.912-2.765 3.65h7.58c-.001-1.74-1.17-3.203-2.765-3.65z" fill="#EC1C24"/><path d="M7.9 12.944l.42-.782c-.15.033-.306.05-.466.05s-.315-.018-.466-.05l.412.782-.424 2.768h.955L7.9 12.944z" fill="#fff"/><g fill="#EC1C24"><circle cx="7.856" cy="10.048" r="1.783"/><path d="M17.65 12.063a2.22 2.22 0 0 1-1.025.25c-.37 0-.718-.09-1.024-.25-1.596.447-2.766 1.912-2.766 3.65h7.58a3.79 3.79 0 0 0-2.766-3.65z"/></g><path d="M16.672 12.944l.42-.782a2.16 2.16 0 0 1-.466.051 2.18 2.18 0 0 1-.466-.051l.412.782-.423 2.768h.955l-.432-2.768z" fill="#fff"/><g fill="#EC1C24"><circle cx="16.627" cy="10.048" r="1.783"/><path d="M15.04 11.55a4 4 0 0 0-1.715-.992 2.34 2.34 0 0 1-1.085.264c-.39 0-.76-.095-1.084-.264-.655.184-1.242.53-1.716.992 1.264.46 2.186 1.564 2.432 2.87h.736c.247-1.305 1.17-2.41 2.432-2.87z"/></g><path d="M12.29 11.5l.445-.825a2.29 2.29 0 0 1-.493.053 2.29 2.29 0 0 1-.493-.053l.437.825-.448 2.92h1l-.458-2.92z" fill="#fff"/><circle cx="12.242" cy="8.426" r="1.886" fill="#EC1C24"/></svg>