<svg xmlns="http://www.w3.org/2000/svg" width="22" height="22" fill="none"><path d="M16.1 14.76a1.25 1.25 0 0 0-1.757 1.778L16.1 14.76zm2.955 6.435a1.25 1.25 0 0 0 1.757-1.778l-1.757 1.778zM15.6 9.282c0 3.53-2.862 6.392-6.392 6.392v2.5c4.91 0 8.892-3.98 8.892-8.892h-2.5zm-6.392 6.392c-3.53 0-6.392-2.862-6.392-6.392h-2.5c0 4.91 3.98 8.892 8.892 8.892v-2.5zM2.806 9.282c0-3.53 2.862-6.392 6.392-6.392V.39C4.287.39.306 4.372.306 9.282h2.5zM9.198 2.89c3.53 0 6.392 2.862 6.392 6.392h2.5C18.1 4.372 14.11.39 9.198.39v2.5zm5.155 13.65l4.713 4.657 1.757-1.778L16.1 14.76l-1.757 1.778z" fill="#2E2E2E"/></svg>