<svg xmlns="http://www.w3.org/2000/svg" width="28" height="28" fill="none" xmlns:v="https://vecta.io/nano"><path d="M22.537 28H5.463C2.445 28 0 25.556 0 22.537V5.463C0 2.445 2.445 0 5.463 0h17.073C25.556 0 28 2.445 28 5.463v17.073C28 25.556 25.556 28 22.537 28z" fill="#fff"/><mask id="A" maskUnits="userSpaceOnUse" x="1" y="1" width="26" height="26" mask-type="alpha"><circle cx="14" cy="14" r="12.305" fill="#fff"/></mask><g mask="url(#A)"><path fill="url(#B)" d="M0 0h28v28H0z"/></g><path d="M23.264 12.359l-.049-.202c-.016 2.499-2.625 4.977-6.234 5.759-3.981.864-7.673-.656-8.252-3.396s2.177-5.655 6.158-6.519c.481-.104.957-.175 1.422-.208-1.099-.06-2.264.027-3.451.284-5.02 1.088-8.498 4.769-7.771 8.22s5.392 5.37 10.407 4.282c5.02-1.088 8.498-4.769 7.771-8.22zm-1.673.722l-3.434.301 3.402-.782a8.98 8.98 0 0 0-.344-1.755l-3.413 1.148 3.259-1.608-.164-.421a7.68 7.68 0 0 0-.591-1.143l-3.084 1.903 2.833-2.28a6.95 6.95 0 0 0-1.099-1.241l-3.527 2.86a3.49 3.49 0 0 1 .574.979c.049.12.087.246.126.366l.044.17c.077.312.115.623.115.935l-.005.241a3.91 3.91 0 0 1-.131.809 2.85 2.85 0 0 1-.098.306 2.85 2.85 0 0 1-.257.519h5.764c.038-.427.055-.864.033-1.307zm-2.035 1.925l.005-.017H13.36l.678 1.252h4.84l.678-1.236z" fill="#fff"/><defs><linearGradient id="B" x1="10.211" y1="17.639" x2="18.602" y2="9.579" gradientUnits="userSpaceOnUse"><stop stop-color="#f21d60"/><stop offset=".332" stop-color="#f7393d"/><stop offset=".772" stop-color="#fc5915"/><stop offset="1" stop-color="#fe6605"/></linearGradient></defs></svg>